<mxfile host="65bd71144e">
    <diagram id="7zA8iCkCoz8Ht_Ia2Rvs" name="Page-1">
        <mxGraphModel dx="2218" dy="2147" grid="1" gridSize="10" guides="1" tooltips="1" connect="1" arrows="1" fold="1" page="1" pageScale="1" pageWidth="827" pageHeight="1169" background="#333333" math="0" shadow="0">
            <root>
                <mxCell id="0"/>
                <mxCell id="1" parent="0"/>
                <mxCell id="HBQPNcR7yE109nPYtxZq-1" value="Workflow" style="text;html=1;strokeColor=none;fillColor=none;align=center;verticalAlign=middle;whiteSpace=wrap;rounded=0;fontSize=20;fontStyle=1" parent="1" vertex="1">
                    <mxGeometry x="344" y="-1150" width="140" height="30" as="geometry"/>
                </mxCell>
                <mxCell id="HBQPNcR7yE109nPYtxZq-15" value="Criação do Conjunto de Dados" style="text;html=1;strokeColor=none;fillColor=none;align=center;verticalAlign=middle;whiteSpace=wrap;rounded=0;fontSize=16;fontStyle=1" parent="1" vertex="1">
                    <mxGeometry x="294" y="-670" width="240" height="30" as="geometry"/>
                </mxCell>
                <mxCell id="HBQPNcR7yE109nPYtxZq-28" style="edgeStyle=orthogonalEdgeStyle;rounded=0;orthogonalLoop=1;jettySize=auto;html=1;entryX=0;entryY=0.5;entryDx=0;entryDy=0;fontSize=11;" parent="1" source="HBQPNcR7yE109nPYtxZq-17" target="HBQPNcR7yE109nPYtxZq-27" edge="1">
                    <mxGeometry relative="1" as="geometry"/>
                </mxCell>
                <mxCell id="HBQPNcR7yE109nPYtxZq-17" value="Conjunto de Dados Interpolados Variável 1" style="shape=parallelogram;perimeter=parallelogramPerimeter;whiteSpace=wrap;html=1;fixedSize=1;fontSize=12;" parent="1" vertex="1">
                    <mxGeometry x="30" y="-620" width="160" height="60" as="geometry"/>
                </mxCell>
                <mxCell id="HBQPNcR7yE109nPYtxZq-29" style="edgeStyle=orthogonalEdgeStyle;rounded=0;orthogonalLoop=1;jettySize=auto;html=1;fontSize=11;" parent="1" source="HBQPNcR7yE109nPYtxZq-18" edge="1">
                    <mxGeometry relative="1" as="geometry">
                        <mxPoint x="350" y="-380" as="targetPoint"/>
                        <Array as="points">
                            <mxPoint x="270" y="-430"/>
                            <mxPoint x="270" y="-380"/>
                        </Array>
                    </mxGeometry>
                </mxCell>
                <mxCell id="HBQPNcR7yE109nPYtxZq-18" value="Conjunto de Dados Interpolados Variável n" style="shape=parallelogram;perimeter=parallelogramPerimeter;whiteSpace=wrap;html=1;fixedSize=1;fontSize=12;" parent="1" vertex="1">
                    <mxGeometry x="30" y="-460" width="160" height="60" as="geometry"/>
                </mxCell>
                <mxCell id="HBQPNcR7yE109nPYtxZq-19" value="&lt;font style=&quot;font-size: 16px&quot;&gt;...&lt;/font&gt;" style="text;html=1;strokeColor=none;fillColor=none;align=center;verticalAlign=middle;whiteSpace=wrap;rounded=0;fontSize=14;fontStyle=1" parent="1" vertex="1">
                    <mxGeometry x="80" y="-525" width="60" height="30" as="geometry"/>
                </mxCell>
                <mxCell id="HBQPNcR7yE109nPYtxZq-30" style="edgeStyle=orthogonalEdgeStyle;rounded=0;orthogonalLoop=1;jettySize=auto;html=1;entryX=0;entryY=0.5;entryDx=0;entryDy=0;fontSize=11;" parent="1" source="HBQPNcR7yE109nPYtxZq-20" target="HBQPNcR7yE109nPYtxZq-27" edge="1">
                    <mxGeometry relative="1" as="geometry"/>
                </mxCell>
                <mxCell id="HBQPNcR7yE109nPYtxZq-20" value="portalbio_export.xlsx&lt;br&gt;(Dados de Ocorrência de Espécies)" style="shape=parallelogram;perimeter=parallelogramPerimeter;whiteSpace=wrap;html=1;fixedSize=1;fontSize=12;" parent="1" vertex="1">
                    <mxGeometry x="30" y="-360" width="160" height="60" as="geometry"/>
                </mxCell>
                <mxCell id="HBQPNcR7yE109nPYtxZq-31" style="edgeStyle=orthogonalEdgeStyle;rounded=0;orthogonalLoop=1;jettySize=auto;html=1;fontSize=11;" parent="1" source="HBQPNcR7yE109nPYtxZq-21" edge="1">
                    <mxGeometry relative="1" as="geometry">
                        <mxPoint x="350" y="-380" as="targetPoint"/>
                        <Array as="points">
                            <mxPoint x="270" y="-170"/>
                            <mxPoint x="270" y="-380"/>
                        </Array>
                    </mxGeometry>
                </mxCell>
                <mxCell id="HBQPNcR7yE109nPYtxZq-21" value="GBIF_occu.xlsx&lt;br&gt;(Dados de Ocorrência de Espécies)" style="shape=parallelogram;perimeter=parallelogramPerimeter;whiteSpace=wrap;html=1;fixedSize=1;fontSize=12;" parent="1" vertex="1">
                    <mxGeometry x="30" y="-200" width="160" height="60" as="geometry"/>
                </mxCell>
                <mxCell id="HBQPNcR7yE109nPYtxZq-23" value="&lt;font style=&quot;font-size: 11px&quot;&gt;Dados coletados entre os anos de 2009 a 2019 dentro da área de interesse (região Amazônica)&lt;br&gt;&lt;/font&gt;" style="text;html=1;strokeColor=none;fillColor=none;align=center;verticalAlign=middle;whiteSpace=wrap;rounded=0;fontSize=16;" parent="1" vertex="1">
                    <mxGeometry x="30" y="-290" width="160" height="80" as="geometry"/>
                </mxCell>
                <mxCell id="HBQPNcR7yE109nPYtxZq-33" style="edgeStyle=orthogonalEdgeStyle;rounded=0;orthogonalLoop=1;jettySize=auto;html=1;entryX=0;entryY=0.5;entryDx=0;entryDy=0;fontSize=11;" parent="1" source="HBQPNcR7yE109nPYtxZq-27" target="HBQPNcR7yE109nPYtxZq-32" edge="1">
                    <mxGeometry relative="1" as="geometry"/>
                </mxCell>
                <mxCell id="HBQPNcR7yE109nPYtxZq-27" value="Jupyter Notebook&lt;br&gt;Geração Conjunto de Dados&lt;br&gt;(Python, biblioteca Pandas)" style="rounded=0;whiteSpace=wrap;html=1;fontSize=12;" parent="1" vertex="1">
                    <mxGeometry x="350" y="-410" width="160" height="60" as="geometry"/>
                </mxCell>
                <mxCell id="HBQPNcR7yE109nPYtxZq-32" value="Conjunto de Dados Bioclimático" style="shape=parallelogram;perimeter=parallelogramPerimeter;whiteSpace=wrap;html=1;fixedSize=1;fontSize=12;" parent="1" vertex="1">
                    <mxGeometry x="590" y="-410" width="160" height="60" as="geometry"/>
                </mxCell>
                <mxCell id="HBQPNcR7yE109nPYtxZq-36" value="Modelagem de Distribuição de Espécies" style="text;html=1;strokeColor=none;fillColor=none;align=center;verticalAlign=middle;whiteSpace=wrap;rounded=0;fontSize=16;fontStyle=1" parent="1" vertex="1">
                    <mxGeometry x="262" y="-80" width="336" height="30" as="geometry"/>
                </mxCell>
                <mxCell id="HBQPNcR7yE109nPYtxZq-40" style="edgeStyle=orthogonalEdgeStyle;rounded=0;orthogonalLoop=1;jettySize=auto;html=1;entryX=0;entryY=0.5;entryDx=0;entryDy=0;fontSize=11;" parent="1" source="HBQPNcR7yE109nPYtxZq-38" target="HBQPNcR7yE109nPYtxZq-39" edge="1">
                    <mxGeometry relative="1" as="geometry"/>
                </mxCell>
                <mxCell id="HBQPNcR7yE109nPYtxZq-38" value="Conjunto de Dados Bioclimático" style="shape=parallelogram;perimeter=parallelogramPerimeter;whiteSpace=wrap;html=1;fixedSize=1;fontSize=12;" parent="1" vertex="1">
                    <mxGeometry x="30" y="40" width="160" height="60" as="geometry"/>
                </mxCell>
                <mxCell id="HBQPNcR7yE109nPYtxZq-43" style="edgeStyle=orthogonalEdgeStyle;rounded=0;orthogonalLoop=1;jettySize=auto;html=1;fontSize=11;" parent="1" source="HBQPNcR7yE109nPYtxZq-39" target="HBQPNcR7yE109nPYtxZq-41" edge="1">
                    <mxGeometry relative="1" as="geometry"/>
                </mxCell>
                <mxCell id="HBQPNcR7yE109nPYtxZq-44" style="edgeStyle=orthogonalEdgeStyle;rounded=0;orthogonalLoop=1;jettySize=auto;html=1;entryX=0;entryY=0.5;entryDx=0;entryDy=0;fontSize=11;" parent="1" source="HBQPNcR7yE109nPYtxZq-39" target="HBQPNcR7yE109nPYtxZq-42" edge="1">
                    <mxGeometry relative="1" as="geometry"/>
                </mxCell>
                <mxCell id="HBQPNcR7yE109nPYtxZq-39" value="Jupyter Notebook&lt;br&gt;Modelagem de Distribuição de Espécies&lt;br&gt;(Python, bibliotecas Pandas, Matplotlib, Scikit-learn)" style="rounded=0;whiteSpace=wrap;html=1;fontSize=12;" parent="1" vertex="1">
                    <mxGeometry x="332" y="30" width="196" height="80" as="geometry"/>
                </mxCell>
                <mxCell id="HBQPNcR7yE109nPYtxZq-41" value="Mapas de Distribuição Potencial" style="shape=parallelogram;perimeter=parallelogramPerimeter;whiteSpace=wrap;html=1;fixedSize=1;fontSize=12;" parent="1" vertex="1">
                    <mxGeometry x="630" y="-30" width="160" height="60" as="geometry"/>
                </mxCell>
                <mxCell id="HBQPNcR7yE109nPYtxZq-42" value="Curvas de Resposta" style="shape=parallelogram;perimeter=parallelogramPerimeter;whiteSpace=wrap;html=1;fixedSize=1;fontSize=12;" parent="1" vertex="1">
                    <mxGeometry x="630" y="110" width="160" height="60" as="geometry"/>
                </mxCell>
                <mxCell id="HBQPNcR7yE109nPYtxZq-47" value="Para mais detalhes, consultar Artigo &quot;Experimento de Modelagem de Distribuição de Espécies baseada em variáveis ambientais e de aerossóis na região próxima a Manaus-AM&quot;" style="text;html=1;strokeColor=none;fillColor=none;align=center;verticalAlign=middle;whiteSpace=wrap;rounded=0;fontSize=11;" parent="1" vertex="1">
                    <mxGeometry x="312" y="140" width="236" height="30" as="geometry"/>
                </mxCell>
                <mxCell id="7D1AHzV3ZWomSayQhPVa-1" value="Para mais detalhes, consultar Artigo &quot;Experimento de Modelagem de Distribuição de Espécies baseada em variáveis ambientais e de aerossóis na região próxima a Manaus-AM&quot;" style="text;html=1;strokeColor=none;fillColor=none;align=center;verticalAlign=middle;whiteSpace=wrap;rounded=0;fontSize=11;" parent="1" vertex="1">
                    <mxGeometry x="312" y="-320" width="236" height="30" as="geometry"/>
                </mxCell>
                <mxCell id="nhbN_m_MJA_WDUEvRPEo-2" value="" style="shape=image;verticalLabelPosition=bottom;labelBackgroundColor=default;verticalAlign=top;aspect=fixed;imageAspect=0;image=data:image/png,iVBORw0KGgoAAAANSUhEUgAAAKQAAACjCAYAAAAEsLX5AAAAAXNSR0IArs4c6QAAAARnQU1BAACxjwv8YQUAAAAJcEhZcwAAFxEAABcRAcom8z8AAPhVSURBVHhe3P0FYBxJsjUKa5jHMGZmliymBpGZmZmZ2bJsWTLIzMzMzMzMzLZsi5mau89/olqyvbOz9/vuW3j7/pSii7KqsjJPnojIzMpywH9TsGWLJVu4LgsDRacsbbDarPY4Jv7oTIwgMawwK38WWKyMw102M3eLSHRum7hu4ClZ3KGHEWabHjDyQBbjyMV5KQlyDR1/03iTJEoK46fYTIi3GfHBlolIazolAy+tqXhmTcMjazJuW2Nx1xKDh5ZoPLck4Ik1EY95/KlVx3UD3ljNiLHZeA0gmfdI53V595zkfQ7yXBbutTBRNj41n1Wew2xUVpXjZoqJZ5n4DBaKbNn4gGYel2PKBeXCJj6b5A3vDabfnpO8HsWinG/l2ZJvsi87ZN9DWeas52zL6SKfIv97wn8nIL/IENmU7JQClOy3sGCtZslsHpESsDCiFBz/JHOV7GZBWEzcrxQML8XoElXAmMYdmbySgQctPEduY+QxPSWZx55kReNM5F3sfngBC45vw6hVM9BvXjA6TRuCJiE9UWN4a3j3rQ/v3vWh6tMY7lxW7RmISj38Ub1nDbj0rA3X3vXgRHHp3xQ+IzugzoQ+aB8xCn0XTMbodXOw4OhW7Lp9Fmdf3MOrzHgC34gMpkTqhZFpMnHNyCfOSZ/yI4/LZ7Jy3USUmggyk4VVx6zjPnluRpO8YRwBr5X5o9RdVtBPaOa/BMktAaXk199gTLkIRXb8T/JvDP9dgMzJEXtOUuxPL3sFlHY+EHAxs3MyhkubFAQjKQXCGFaFXexItPGAifvl3AwWQQZPyFDWgSfpidj96BrC969Hh7njUTu0P1zHdEC5gQ1Qqk9NFOvhhwIdPVCIkq+dG3K3ccZvbSrj55Yl8WvzYvitQSH82rgwfmlZHD+3KY2fWpfHz20r4be21fBj60r4jvJjeyf81s4Fedq7Il8nT+Tp5IWCPbQo2acWKvVvQMC2Rr2JPdF22ghM3LoMux6ew5OMSFYaG8WuHT5hIHtFntJoMcBABjbzOZVKymNKHoiGYBwjK6OCRSJORNkp8ukaf7NpDzk7c0RZyPXsrCryN/H/DeG/E5A5IqiTHKDInhxQKkxJUfZRV5mongSMkmEmqlYjudDwiQftYBTNnMyt6zHPEbp5CRoH94f3sI6oMrg5ivUKIogc8XWzUnBoUhAOTfPi61b58H37IsjVqxry9PNAnv7eyNvfHfn7lkPxQQVRdVg+eAzPB+3EsvCf6orSQ8qh4FAnFBrtg4IjfFBgmBfyD/dE3qE8d6A7r+GK33pXwU+9yuLbrsXwfacS+Kkz11uVwg8tyuHHJlVQqJ0aTkMaEaQtUHdsN4xdNw/XPj4nq8vT2oOQvoHbBgJRnk7MC5MgkXlkpuYwshIqecRtvTCqaJLs7MzJy0/y5/Dn40oFFyaVa/I+XP+r0/6V4b8KkPa6LVlgr5dfAlJEisXIfUqGs/orec0fM0Fp5raBVKBjtolIHGGYx5lR2H73NML2LEfHuSPgN6YtCrf3gUOdMnBoVB7ftK2KXJ0qoXSfMvAcXhQ1x/+OplNyo+2CkvCbVBQVRldC0TG+yD9KjfxDqsItpAjG7q+G/Y/9cfiuG048roEN15vAfVAeFB9SGsUm+KDIeF+UCFGj+ARfFBnriWLjfFFqrA/KjSyPKiNzwX30T6jU9wcU6/wTCnb5A4V7l0P+3q74pYsrvmlXhRWiBNNXDLnbecNzdCs0m9kPE/csxLqbR3E/M0apXBKkguqZTxZqExttRauFz81lFvNBjonVIhaNglfJQ4bsxT8I2Rn9ST7zo/1PyuffG/7rAGmvkXb1YM+U7IVkKhcCSkUIQMlkUVE6oxE6pTbbGeStJRmbr5/CsA2z0XzOYLgMbYxiXXzxTd3S+KZJOfzSzRW/D/RBrmEE2ggPFOxTAnWnVMbG641w4rYLrj52wtVXGiw65gLn4XlRbIQjykwOQInRFdB6YSGcf+XGtPjT96gCY4YnXn1siAaDf0S5fvlQLtQb5cP8UX6yFmUm+aLcZB9UCFWh7MjqUE8oivHbSmHDJUcsPVYN4Tuc0HeNB7yDy6Pk0GooOFKFXMO9kWuUN34Z5oNverjCoRUrTuNC+L27EyoMq4/6s4Zi5MYF2Hz+KN7qUvm09iD6QU9nSFhTTxvTQKY0E5gC1i9JUuTvgmSsSHYMyckc+XzwU6R/a/gvA6Rkqxj1di9QskTJg5yczM4Tu1MjsLRnkPwm8IxDj29i4u41aL9sEqoObgGH+mSbRhXwU3tH/Na1OvL1cUPRob4owIIvNE6DgmSwYiGuKDawADouroqnWb2QqfeDLbMaLBluePEhAPXH/YxyQ0rBeUYgKowri6GbSuBZVDWkJxREZvSvyIwqiqj3KoyakRvV+/4ClzAfeM+uDZdpWlSZ6otqM3zhHEFVPKYiGbooHkQFIkOvRYbOD9GZ9XEjvgsaTi6HQl0Lo2ywGsWCA1E8JACFgv3wxygf5B/jg3zDPfBjz6r4rqMrvmrhim8bV0c5Ok+tZ4/ClF1rcfjRDUTZshStIDankUAU29JMD98i69n5KeZLjqNkz7nskJ2vOSuf/74IOWXwbw7/ZYC0s5+Ja5J5omqUTJCdQn2s6uJB20yS9faQZErD8ftXEbx9ETxHtMRX9crDIagwHBoWx/dtyiBPH0cUHuFOcUOxMZ4oOV6lSCmq1NJh3ig3xRnlRxVA5yXlcCe6EdITK8D04UcgKg90iV4YuzgfbbqC8JnuhWrjimHy3rJI13kj8X0efHj6E/Tx5ZEao8KqrUWg6v8dVJM9UGt+LfjP1sJ7rhbu81Rwn1YdtaaWwYJD1ZGeroU5oTgyP+ZBcmx5xOqao1VwcRRulRtukzWoNrkOKoQEEpwalJ7oi5Lj3FF2rBtKDHNCvr50kLo7kuEd8UMnVrYGxfB1w3JwHdkK/agNNl0/jxiztEfYg4X2tMEqtmYOIHMU7xdgs2Pwb+XPQfbllMVfHf8Xhv8YIMUT/j8FxVumSJua4iFyKaKAUXYqrGgPsYZkHH1wEWO3zILLgPr4rm45fN+oJL3iQvRec6PG5CLovdEdndZ6oWS/vKgwvjLKBLuizEQVqkwORNWwAFSeooJThCuqjS+IbstL41F8QxgSKiL5gQPSnv2IrARX7DzjhHpjckM7uQJqziiDJScqMVFqRD7Kj1OHfoAuyRkZse7YfbAIggZ8Db/JjL8oALUWaFBjsR+CFvkiIKwIBiwriNuRtZGa4IaEl7nx6NJXiIssiRRdfQyYRlu13Y/wCvWA+/SaqBZKYIb5oVq4FpXGVIbr8ELov0mFXuurI2hyXlQc9BsK9cyPP3qWQO6elfF9u6oEZ2UU71yTJsESHLt/BVFZiUo+Sa5LBTdRhVus0qgkVV0ylweyAfbJxvxSvgyynR337479i8N/DJBKWxnlS2D+FUjFSZF2Q+UQM0HxEkWyQ1RqPI49uIQR2yJQuoeWKrkMfu5IT7inG0oOqIaWs8tjwZFyuEA7LwZNcCOuITrNLQQ32oJVgyvBiarUZVoNeEbUhluEP7xneRAIRdBzZQncj64LXUxVPD/7Fc7t/wox0e54ndIQHULyQD00F3qtrYxDtz2pE71x+1x+LF34G9ISfJAZ74hLV0ui7uDvUGOKI5qs9EeD5So0XqZFozlO6L0wP/ZcKI3krFqIjfXF7u3fYs1yB7x9UxV6azOELy8G165fwXuSI9RzAuExQwWPmQFwnaqB97jyaBeWB49TOyEKzXDsaQVM2loALacWgu/YIig1sBhy9SyNn6nSv29XGT81qohKXQNoZ0Zg/+1zeJ0QqygYCRYLNYs0h0nmZmsdqfAm5q/0MwjmRJQgWf4nUcjh3xz+oyrbQoYTUErIAaMsP4vsoEgUASaXkm+ioGOy0nDq2U30XzYRRVu647um5fAj1VauAa60sTyRb4g71DM02PWsDTJsDZCQVB4xMaURn+6LB7H10WVGLqiDC0Mz2wc+cwLgOzcAfgsDUHORD4KmlcSA9aVx+30QGbIyXlz8ETNCv8GTF9701BtjHtVx3WFfYei6Crj2KgjmNDcc350XweNyIT5KBVNyZbx6WxX1hvyImtOc0GpDIJqtVqPNam+0nV0Ui/YWQjzZNi3FHU9e1UKXPt9ixmwHvP/gAqOlCRZtKgz/fg7QhlZGrYU1mC4tVPP84D3dFzWnVMGYdeVxO7oh3qZr8NHghWhjQz5TC2y7Hoihq8sgaPyvcBr6O0r1L4B8XYvhj46V8AuBmbueI7rMHovjj28gJjOVTCnZK/nMjBUwcod05Eh9F0Vv73xgvnOpFMYnkR3/mfD/ig0poBRwfrkuYrYIi3Kf0l6hHEYqs+dS7EuqrJko1EmDr5tXwg9dqiPXQA/kHe6OgmM9UYQ2VtGRLvCb7oydt1Qw6JyRGlkAMS9KQJfsgrRUZ1x6VFUBZY2p5VFjiQ/8l/uixjJfNF7uTRYrg6Gby+JGpJpgK4fXt/KgV/fvcfehPzINGjz9UBl9pv2AQYvK4cGHushM9sC2tX+gd488iP/oD1sabcEER9Qb+hNqMg0dttZBu41+aLeiPEatz4cLd0rCklyBqt0Ru096w7veN4iY54DoaFfodbWxcW8B1BvsAL+Q8mi8oi7qLa+BoMUBCFigQt25zui0uCzGbymFTZcdcTtKi6gUNZKTPJGR4oPEJDVuP3XGsgNF0W1+HriOzYvig0sjXz9X/NrZAz+1dEaxjhr0XTsF5z48QpJFOmCZx8oPs5mgVHpQuW3vRbX3eNkLQFArIuuyT+TfG/6jKvtLVpTwJTAVhuRSminECJeeimh9FtbfPAWvMe3xXXMnfN/ZDT/2ckOuYd7IO8oT+QnEYhNo9E9yR7nx1REwpQIO3XXltRzx7Nr3OLY7F1I+OsGYVJLsVA1rDhZG+4hcqDuvDGoud0a9lZ5otdoLLReWx4jN5XHljRfMhvJ486ggOnT+HkdOu7LAHaE3VMHUpT9jyppyiExuhOgoV8ye/TO6dP8DsTFBsKSVRlxCBbQL+RH1Iqqi85aa6L5Vhe7L/8Cig7nwLrI0va/i+Pi8DAZM+AY12ztg6SqaBO8doctQ4+Cp/Gg0zAGa8WXRen19NF4diPor/AhMNRot90DjhZVQOywXao39Hj0jfsSOk8Xw/m016GPLwRRfHBlxpRCb5IG7ic0w+UwdlB5SGAUGV0fBEQH4tbc3HSAXfN+iGqr0r4t5J7ciOitDAZ/Ay0hdrSdFincuDClwtTe5SbkIp4qaFx1FYP7/EyD/HASAX6pvs1keWDIDSGatPP3xMRpHDEWe1szQ9u74sZsn8gzUoPBwLT1PP5QY743Sk7xQMcyTxr8bXMPcUHtKGey5Wp5XqIb7t3Jj8syvsIOg1CdVhCW1NMHlQvX7KzovyIuWK6uhxRovdKGz0HF5VYzaUgmXCUidrgzevi6GHkO+wczleRH1sQLLpAx27fwOW6l6U/R1cOOBM7r0+wo9h+fBqw9qOjbFeO2yGL3kB7SYWQo9NmrRd3N1BG/+Hadv5UdWSjkgsQhuXiiAZt0d0HP0V9i06WvEvysPU4Y7Lt8pjmZjHOAbXB6dtjVE87VaNF2nsstaHzRZ5YWGS11Rh/Zx89mF0GTkT+gz5kecPJkHGQlFkB5XGJmZLniT0RyT9/qjUJtfUGKAI0qN8Uf+4WrkGuKN73tVx7cdquD3Vo6oFdIVx1/fRgqNdQFiFvNeGZTCdWlsswOPJaHYm5/aPBT5d4f/GCBzAJizFAAqrCjbYlvyTx49xpaOOUc3o3r/Jvi+qTO+aeWMn7p4oEB/DUqNCEKFMYGoEKxF5VA1HRQVnKd5wWM67ccIT9SjLbj9YnHejHbg2zIYTRXWc9w3uHu/JAuuLPTJpfAysiyCV/6CjgsIus3e6LFVja6rHDFhRxVceuXKgi2NyPcl0Tf4awye+jWePi0BZBbDm/vf4s71X5CcrsLOY87QNnPA0Om/48FrN2QlFUVaUhnM3ZoHHWYUwoCNbhi+pRzWny6Aj9EloU8oivT3BfH+dQVceuCN87er4v6NAkh6XZT2ZyU8fUXHJeQ7qOjA9NjdEG3W0/7cqEJbVpZWG3zRfJ0aLdf5oNWq6mg1Oz/GrSmMg5cc8fJdVSSTmTMzXBGX5o+Np5zh3vU3lOtaAK7jvVBtoj/KhLASj/NBvjGe1Cwe1DI0eVpURPUB9TF64xw8SPmgsKXif0v5CEkoXqVdZCSRYndKGSol+e8N/xFA5gBP1HMOIHPsRqPB3qaoIyB33j+LBuF9UKS9Gt/UKY8fGlRGuV414D22GVyH1eG6J8oNcIfb5CC4TtHCPUIN7Twt/Ob6Imi+Cg1mlcauq2WYqdXwIroawrdVRI0BX2H6hl/x4E01JMWWQFZqWdx56YwJ6/Kj+8ry6L1Li27rHBG2rwquvHSiCi2NqJhyGBjxNToEO+DclaLQxxeBMfY3pEfnRWaWLxZvdoFzQweErP4Z119UISCpNmNLY+uBEug2+Sc6GiUx41ApXH5Ygk5SMWR8/IOVoTKf1RfpRg1S02n/RZWFLrIgTLFFEUMW7jX5F6iGl0OfXQ3QdYsGXVhRum3VoNNmX7Tf4Io2S0vwugWx41xFvBJVn1YF+rRqTK8Gl+96omtwXrh1/gkuAwtAE+5Mh4iVNVyFypO8UX68G0qMckJx2tlFhrnj527V8FUrOj3tPVAjpDt23b1AW93OfxYBI215m9jzUmbZ+xUw8oe7/q3h3w5I8egUr04eLIch5UFZ84xUzfKAYqlsu3IMroObwaFWGTgEloH3iFYIO7ocewnS0y+v4OSTC1h9eSO6rewH73GB8AwhGGf5o+ZCf9RepEGdxQTknNLYfqUMDMZqiEx0wax91eHV1QED5zpg55l8iIshIOMLISPdDXvOlcCAlfnQa4sL+m11wpR95XH1eVUYM8ogJrYCRiz8Hh0nf4vtx/LTcSlBWy0XTIl0YhJcELq0PLzafYWp2//AhUflkJFYEllx5XCWrNVz/E8YPO9nPk9pvKbtaKOqTnlfAMdO/oGl6//AkbO/4+GTIoh5Uxi6qCKwRBdAZlwlDJuaC6oBpdBvez30ZSXpu8OH6fJGr/VV0H1NIYTtL4aTNysgIcoR1iSaAOnlYM3ywtHT1dG4N1mx2VfUKmVQew5V+yIPaGc6wm1CCXgFF0OdGRXRZK4T6s3gvnGlUbB3fuTuUQw/diiL75qWh+vAxlh94SDSFYOJ5UFQmkVYOGJIyV6lXVhIk/tEFIR+Ac4vVv825MT7hxH+NvxLAPnpnvyRRMuGrMuK3f6gjUJ3LsdmNBOgekaUrVf6OIzbNBfVetWBQ43SKN7FDyO3LsCpp3eQrJjZn0MWefRB3BOsu7IZ3Zb2RFBoAOrOD0BDOgCNVtDeml8KWy6VQXpmZcTFVcaRC5UwdfG3OHW9AJ4+/4NgLICsqFzIiC6G6BgXLDpQCH1XF8KI3ZUQcaQcrjyvBFM6HZSYipi4PDe6TPkZC7b9hrcfyiMrmecn/IZ7ZL2BYb+h3sAfMXNveRy/VR4piaUJ5Gp4/qE2uo3+A8ELf8T9N5WQEFOSiS6Hu7fKoU0/B7Qc6oDJa3/HrE3fYcmmb/HydUkyaCHoEsph0oLfUWNEUQzYURNDDvhj8C5XDFxfCsHbCmDT1VK485HqOZmsmFAetkxXPHtaATOWFkCdXr/As3se1J9aBc2X0Qla6klbszSazsyFUZsKY+MFR5y874kzj71x/JEv9tzywfyjLmgzqzCKd/8JeToXxffNS6N8n5rovywcD5IilbKUEUX27lulOO1lK2DkHoVgskEpYwkUwFJkKU1IEt8elJPsB7MvJMc+H//78C8CpLAelzmpkvSKKOjkY9n4eFajYjcaqQqEEWUw6qmXd9Akoi9+a1kd3zSuiDLdAzDvxFbEWz4DMcOQgCxTSvaWPRh5hXMvzqH/0l5oOLsGGi/XoOUaFdotKY3NF8sgObUiUqNKI+ZVJUS/LAVbVhWeVQ1pMfmQRRWZEUVgJpXHo/fumLGnCAatyoMFZ6vg/LPKyEguh5iY6pi+sSQ6hudC6LpcuMzCT8qoyGvQ/rtRAc0GOKD9xLyYfdAVOy9XRkyKMz6Q5S4+16LdiN+xZn856Cw1YDH50CZ1xdJNheDd/gf0WeyE4F0+GL2hOCauz42rL8ojlSrdnF4Zq3YVQIvQfOi/xQsj97ti9I4SWHqqDM48qYzIpGq0XSvAwDSkJlTCTl6/25if4dfzR9QYWxWdVvuj6+ZAtF3jgZZLK6PXqmLYcLkiHn5wRnqKOyxpLiwGL6bfnyVVEylpNXD+kRrjt1WF05DfUbBvaXzdpgJ+aFwFdSb1wPGnN5W2XyknvZSZUax7gaKZZSmmFreFXARrFBN/ZMypxJcG9s+AYxyJl4NYiZ+9+o/CPw9ISYDUHKUN0V6jpJaYxEa0kh2VYVFGWE1mmE2sdTwmD3vg6RVl3J9D3dL4tk01FOymQtiRlYhX/D4gmsb2yl1L0Js2Tr8pvbHu0Dp8SPvI2wmzyvAyPQF0Aq2n10OLxVp02uiPTivKYOP5kkhMqIjMmDIEX3UY0zR486o6dh8ojNBZ32Hb/tyIpXpNTSxGW84dl+47YerGXJgnvTsvfZCW5Y+Y1NoI31oRLabmwYSddE6uVMO+G2Wx63hV9AvPD//eX6Hf8vKYeVKNxacd6byUwMRVP6LnrF9Qf+S3mLu3Ig7dcMTpe47YfLIM2tIWbRxWBBOONKEZ0ggRR32x5GRp3HrnRKekLBnPEYfPlEHPab8pXYxzjpfCvjtl8DyqGlJSXJCeXB0GgwoPaFLMpJlRt+f3COz3Bzovro7+tDl7Ujpv0aLD6kroRztz/303JGapoEupCn2iGwwp/nj6ojoOnS+Oq/crID5Ji1RdfbxJb4zph6qhTJ/cdBqd8UdPLzjULg2PQU0Ue15KQspTr5dBGmJmkR25R5xQQaLVzG1hyC8AaW8rkSDo49mKKDvs2Mhe/qPwLwGkUk2YSCvBJ1SfZZVxecKMTDCBqiReWl8Z0hhn+50z8BzZEg71SyNXfzV+7+4Bt2FN8Ewfw4eyItOSgrDlwcjrmws/qn/E73VywbGTMyJ2Tce7xOe8ip63lYG4aQjfMgJt5wag68YgdF9fEevOFKfKJZskV8THt1Wx73AFhMwpijrdf4Cqa350o6127klFJGZWRXo6CzujJo7ecKIDVBRbrrjj4BVnLNpbDS2n/o4GM/Mj+LgaM877Y+TmSqg/qgC8exVAu7kVEXK0JmZda4SZl2phyKZKaBVRCk1mlkOPtc4Yu8sDw9eVw/C1ZdB1XjHUD/8DfXa6IeRsQ4SfaIQZR/0xc39JXHrphqQUV+aPP2488MKQ6b9iworfcI1AjUurjMyEgjDEFEHc68o4dNAD/Sb8AZ8O36Pl5NIYs4tqfXcgeuxUocceP3Tc7IG+G0tgPStkTIon9EllYU2siOhIXzpbvug5qQDqDnJAt7Afsfm4I97FevLZnfE2tRaaTi6EEr3LoJgMxxugJihLwXFgI2y8chjJmfYhbvI+kgImlqVSprJNQIoo65Ts1ewg5Z4t9i3l/P8MICWBZvpjBJuR6jlLhtbz1vaBo4ySncqY9BQsOLEDFfvUhgON6d8Ha5BrkApF+2vRe/VExBjl9Scbbr29AufmVVGkeX7UXVADjZY1QK2IGqgT4kdHZQKis57zoeQlJwNtqwtoG14LrRb4YtAOd2xggXygujbrKuPJkwroPdIBdfr8gO4LCJR9dRG8T4U5h0ri7AtHXH/pgb3nXRG+oSTtp3wI2VkRAxbkQ50RuWmTFUHvnWqEXGqJabc6Y9LFThh9rB1GHmmLEYfbYMShllynHG2Fkce472g7jDrJOCc7YOyxlphwojlGHmiEAbvrYsTJ5gi+1hEh1zti6vVOmH6pMaaedse6m67Ye608Ltxzw4YjVdE15FssP1QWGWiIhKRS0EfnAhLyI/JBPowf8xXa9PoaQ+cVxMTtzhi3V4Ph+/3Qf68veu32RI/NlTH1QHG8indGUlwpGFOqICnWA7NXFkD1pt+gcttfETguD3wG/orm437FwYvFkUazJSnJA5suBKJ6nz9QeGAlFBijxm8DvPFNy0oo0dEXU3YswsfMFHsx88cimpCaTmFM2cedNhEhHYkgQVlIwdtFAJgDRpHsWH8Z/ilAKt6Wwo4iBCRtCxnyJGKWoU8WgzKkXhL0IS0Z47csQgE+pEPbKvhhgDvyjFSj4FA1Ko+ogfkXNiKZYJYBplsvbIJPL1d4j3VG07XSleaHZqtqoNkSLVrP12Dt1VlItiYo1zWw+MYvG4iW09QYtMUDW1jAr6OKIS29Ap69qohJS75CnyXFMPFUE0w825RAqYnx+52pbt0wcEVRaAb+DM3wvOi6pjzCz9fHtHONEUoWCyaoRh1vi557GqHzrkZotaUB6iwLQs35gQicroVqghd8xnnAY6wrXMe7w30CZbwTvMZXgSq4EvwmVUXgVFfUm++H5mvqo/22puiyrzl6H2mKAafqY+TF2gi+6IcBdFy6zciPTlP/QNdZubH8dHk6bj549Z7OWWxJevdF6fQUwoc3eXH7bkEcvlACq46WRvie8hi3j0y8T42+Wx0xbndZ7KXzlJxcFlmJJRCXqMKCzSXh0fE7qEeUQNuVPmi3VoW2q9zQYlYhOlc/01xwZFxXPIlsjvrD8qDUwOIoFOKJ3GO8kXuIB75uVxH5OntQO8zG2+QEpcwlCEsamfnyYpxCljm0JyJoE8neISr+SzDK3v8p/NOAtAtvJDWBDCl2o1npL5V3MESt2hBv0mPk2tko0MYb33V0wS/D1Mg1RoWC41QoNsIHXhPrYf29PUhR4GjD0fuHUGeUFn4TXNB6Qy00W6dFC0qbDSq0WO6KIRta41nKfV5feNiIU3f3slBro9P8sth6owpZohJSdO70eum0bP4N3ZYUxNjjNQnIOgRmDYSKnKyDMQdrYsSRuph4pR0mXmqPQfsbouuGmmi9QIOgMZXhPqAUynbLj/ztfqX8hmKd86Fqv7LwG+mFBhOC0Cy0FhpTGoTWRKOwWmg+JQhNJ6rQkECtN8Yd/sMdUal7CRRpkReFW+ZCsQ55UKZ3PlQeXhCeU8qg0Up3Mmh9TCDLzrjYAXMuN8f0466I2JsPaw7/itNX8+HlqxJIiCPI0ishgzZhCp2UZ++rY//1Mph3vBomHlRhzI4qWHyiJJ7GOCE9sRAdtrI4dK4i1F1oa44phi6bNGhPG7vtOjVarPJEgzm0eTfnRWJiVZiSnBD9sSl6BOdF1UGFUXKSF4pM0rBsvJF3mCe+7VQFvzarhgGLw/BBJ6/JiaMj7/TYYCC6ZKy0gjIFcXa2FEDagZgjX+D0/xD+HwPyExj5J3afNGwLDAWc8iPemIFHYo2pWHhiM0p1VOPrppXw+wBf5BurRaFgNUoF+6DieB94h9bAwosrkWyRdwGB1ylP0S6kAfxHVkF7epBt1qrRYZM/OmxWof16dwxa3xhnHu2jdydvzVhYw6+hT0RdtJ9RHBuuVsejOE9E62ri2is/TN5UEJ0X5UXIcT9MPRuAGedqYMYF2nLnWiD0QnuMOtUO3bY3RL3ZnnAcUBQl2+ZB2Zb5UL11CQT2daU5UB/9lrbFtL2DsP1WBK7GbMVL/Rm8159FjOE4Yg0nKWcRr7+ABMMZJOhPIUV/Hkm6i3iRehinXq3E2rOhmLqhHwbNbY1m46keu5dDyY6Fkb9NXhTtUBjuo6qj8cJA2pkNEXyqIcJO+yHsYGWEbsmDhbt/x+mb5fD6gwuSEqojk6o4JaEUUrJccfNjLUzd74Yxawpg96UiiE0maBMLIjG+CkZO/wlamiodlzuj335/dN5MhlzlhVYr3dBqeRnMPFgA8WRTY2JlpMa0Ra+R+eDUqxCqhWlRkRWrVLAGhUZ44Y+BbvixXRUUomYbt3MpXmUIbdgdU8GhMiBG3jHmhqhyedFMICADNHLe+1ZCDiJF/ofwTwNSbi+Jk4YaxeXn/eWekoxofSpCt89HGT7ML82rIV9vXxQa6ofCI31RgkCsGqaCa5gPPCf5InjvBCQaE1nJhFfTMWPDeDSfpKLn7IcurN3dtgWi+04Num/1JEM2wMGr66AzySBUCx4TkF3D6GXPLY1NdwJx4oUPVh4rgY6hP6LumJ/Ra0MFArAOZl6kE3K2ESYfaoi+q9SoMbownDr9AscWP8Ot2U+o17s4xi5rhQN3F+NxwjG8TbmA1xkXCL6LSDCfRybO8zmvUK4yjed571OKWHEGJvMZPvgFPvhFJukK168yZRL3IjKt55BuPI9EgjQy/SIeJ5/DlYSjWHBuBvqu6Aav/i4o1aYQSrUnS/XNj3oRldFvmwYTTwQh4rgvZuypgOnrf8eGA7/g1pMSiI6rAJPFH7svV0Wz4O8wcskvOH2jKO3BctCnFkXk+wroOOIH5l9F9N3uj+67fdF1mwrdNmrQdnkV9N5QDLvoxSckF4MuuTLev2uJ1v3ywr0fVfwUf1QJD0B55n3pcW4oMbwaCvZ3wi8dnFGgvQq9l4ThRVoSqcZexoIBZUXZ4IIijCgkJYBUDDYBRA4oRP6H8L8CpNw8p3Fbgp0hhanJkkLX5HM618o9I/VpGLN9Hop08MZPLaogfxdvVBpaF5VG1UT5URpUD1XDY5oPfCM84Rvujo6L2+B11ks+iLwgr0NUxnNMXN8Pzad7oMeWGszUIPTeT+eHgBy5qSFO3d9KlZGsxN19aT2ah7ij5yonzLkUgLHbSqDD7O/RaWkxDD2gRTBV4YSL7QjMGqg5ugyc2/4Ot6Y/oUGnnzF8WBGsCHXEvqmeOL6kLp7dDGOmnuQTXKZcIhucY4rOsaaf5XOeoro6gUzLcbLzEdiM+2jEHuDyBCy6k7AYuDTymOEYjLJkXJPtKPPjGK91gnKO+XWdab7N57yJVOt5RGUew6uY/bjxZjvWnJlOO7IZHHuWQcE2v6LcgAKoNbMKBvHZp56pjVlnvBGyLR+mbvoROy6Wx8AFBeE/7GdM3VkOJ6+WIoNWhCGlCF69Ko7uo79Hz7meGLq/PrrtCUDn3TXQdasWXVYUx5yjxfAy1Y0qOz8SEujBX9TAr/uvUI+uCv/ZQXCZoYXjdG9UnlAeVUcVQZWRlVCknwd+auWMP9r4YMDqCLxNt49It8iYBGHFbCCKSrcPx5DtbAT+qwGp1ILskLMuS6VvWgDKXWLYWowCWCDOqMfUYxtRuJMaPzZ3xG+tqTZ2RuB45EOqkGEo3rMKNNP94D/Lm06CD4Jm+6DutCBsuLIayaZ4BWTyEuvjuAuYvLMfOi4MQA/akr0JzH7ra2DO4UF4n3GPD52BJESj3YSGLJhSGL43EJPO1MS4wyrajLUQepmeL73d5otcaQ/mh2OrXxHU8Q/0G+mI+bOCcHBFbVxZqsHrhd5InO+NN/PViDzSB8jaTqDthZWAM1sP0Dk7ALPpIKyGQwTbQRjNB1kIexlnB3XXfqqH4zyHgDMdp6d5hIA+SjAeht6wHwbTHp67mxWVwrgW0zHKCdgYFwrwRcisBGmG9S6eJ53HsVc7Mfv8VDSd3wBlexVBqW654D+5PB0ST4w7XgfTTgRg0u7q6LW0Avqvc8Hso67YcaY03kdVQWZSEcRHl8PoaT9gIG3qUXvo7B1Qo88eb/SkpphGT/zqm6qIS62ITOkmTfbBoFl54Nz9Z9QId0WteSqoZznDZWJB1JyaB3MvU7NcaodKA0qjSE9H/NzeCfnaeGHKrmWI1SUrZa/4DsSCng6sgSpSwGjHXTYCBTJfyv8Q/imVnTNYQu4pDd/CkqK69z67ihLdA/FNk2r4tZETui+fiDup7xWaPxN3HW1Xd4Z7iAtqzPVCnUUq1F3iT0O7Jnov74THqbcISHk1XplVB5F0XnbfWIGpO4bTphqEtWfm4lnybd5HJgLQY+f1DajWvgjqTKxAh6UZQi82x4xbXRF+uTfaLa0Nj15FUb3h16jX4itMHlkWBxdpcXN1TbxYWxMfV/ojZqEHkmfSWZhWAS+nVcXTra1gTdvEqr4XZgLSaDwAo+kwwUiWo81oMx/hw5IZLbtgy1yHrJilsKRshS1jj8KYFtNeyiEyx1EFuAbzboKT+7huNR7msSOsuEe55LbpAAF8gMcJcstJ5s8VPtMNPtUtJNMseJ54EHvuzEaHaX4o3vQ75Gr0Db37qvSsW2L6+Q5kzaaYTkdtxglPLD5eDucflUVaCh0gyqkLBTBl+U8I21qY4C2OcVtyY86B33HxSXEkpZZFfExhpR32+lM1XFp/B29W6BbLNWi2zAV1p+RGz4Vk4avlEGWoj0cpLTB4VUWU6vI78stkB+2qo2QnDTbfOkLqEPeF2SHOrNKiIv5DDuq4/LT+fxf+14D8ki0lCCitNGyFKcWWPB15F9rgDnBoVBF52nvTAYnAvcT3CueJ07Pn2QHUCKuB6qMqocF8DWrM9KIwIxbVR7sFDRC6Ywgex9IOIxjtE55kId0Si2fRd/H4w21EpUUSrHbD+ebbK6g50B3VexZA/y11Mfd2P4Rd6Iz2y9Xw7F8Cjs0LoF6HUhg/zAnbprjj9gIfxK/0Q9pSd+gWOMEw3wm6WVWRFVEeGRHl8G56ZTxdWx/WD4uZ2N18tkM02sl6ZDObAFJYzXyAyVqPjMhZ+HB3NOKehMKatY0ZQXCZd1F4nvEgwUyW5PkmGwHHpcV8XBGziOWowrxm636q/n1kYDKp+RDNgSNcP6KoeTtzXqIQmLE7se3idAxb2x3VepVHkVa54De+CkbsaYh5V1vTO6+HKSfdsOx0Cap/Oj0pFRFL9X39YQkcuFgIuy8Uxpm7xfHkXUnExRVFBllUn+WE55Fa9ArJj2ptv0MzsmL7Vc5oOvt3TNySF1efVEIKnSRDcmmkpHng9BN/tJhOp29gOeTp54XvW1VDlb61sPPBaYVoZKCMySz2Gk03RWv+74CYE/4fq2wJYk8ajUZmuCQJuBHzBKrgVvimcQXk6+iJxhED8DAtxl6DKCtOroNrD3dU7FkO6mB3tFpQj7V8PKadDkWLGfXRdVkDdJ4XiMmbe+D8k82EYyTPyvHnPgcTwbr97GK0GqeCakgxDNrVGFMuD0DPjc3g1r8kStR3gF+rPBg7zBObI+rgwtJ6eLS0Fp5M90JkmDOSqP4yw0rBMLMiTASlZb4jTHOqInFmNbwjg2ZdG0UA7uSzHmLCRQ7TgtgNRK2G4Wk4Mm4OwbtjHfH4WBdkxixh8o6QDckWxt1kuj3MF9qNBJ6V+2yiwsmWdkDSxjSfVEBpshLsBKOwp9m8j3HImASlqHXFNuU6eJ7NIo7TdcoDxNouYd/NxRiwoCWcuxVHiVY/o+akqhhzvBWm3WiDKWe8sOZiRVx66Yh4gwo6qw8+RldE5KvSSIsuD2OSDAh2QqbeF5ce0eYOLwTXDg5oM7MMeiytiH7Lfsfio/nx4F1V6BnPmlQMWZG5kJHghBfR9dBvQWHkafsb8g30QL6hajg0KAnH/nVw+tVNe7kQkDaZ1sYsTYB2nEjJ5Yh4HJ8GZvyD8H8NyD8zo9JvTXY0yfRxDM8+vEaLiH5waFwC37evisq9auDgoytKE4GETWd3oFo7VxRtXoyZ6Idm0+sifM84vDU9xXvTa6w6Nx/dF9VD39W0E5cGYtzGVlhyNJgOy2qcurcHN54ex+WHh7DlyCKEruyFukNLo874Ehh3rAVGHm2DOtN9UbxVAWj7OdMj7Ynzx8Yj5kwoEo4OQ8zuzvi4vgU+LmqMN+F+eB/iiJgJZREdWhqx08ojbUYVGGY7Imt2dcTOdEHUtqZU22sB3VZY4pYh680MpN8ej/RTfZB6oAVid9XG290NEHt7NEEjduFxZBqPQUfgGqwHWTCHWTDCqBQjVbyJwOK6lYC0mghIxjcRcGYLgUhmVVhXQEix0UmykmFtNBPEPLCY6SAZqM4tdKrosQP3kGy5iL1X56PHvNYo36UcSvcohpar/THmVFOEn6uNOaedsOdWGdx8TvUcX4WM7gakVYct2QlvXjthzf4KaDE2D9x7/YK2c8thyIaqtAnLYN+1koiMp8ZIc0R6VDEkPf8Fyc9/hTnNB7cf14d3+2+Ru8VPKD7KC/lGq/HrQC841CuJRuG98PDDS6WczcSDAkgykKhvIaIcUbqSxdn4pwHJvy+9awWMX9ByusVAVbsM3zaogJ96OSNXN1c0D+uNxOyX1hPokam7+aNQkyJoMrsBGk2pgRFr+uFB9A0mVHq/zeS8OKw6PxMDVjTCsHV1MHRDTXSmo9Fhjgq95tXAgFm10T3UDzX6lIF31z/QeYEXpl3qhV47mqJEl3zI1+A3tA1riAsv6ZDgEQuBjsKHPcDbjcAr2nn35sJwYS5S9oxH0rpuiFlQG2+mOONVaHm8m1gKsQRn+oxKyJjrhKRVfjDeHArDw7FIu9oXsUdbInpXPSTtqoOMvXUQtyMIscfawfxxQbbdeJhqlqrYSsCBSwEUgQXuB+1GZakAjKpYAeYRBYwWy14Czx5P4tt0TK8A2HKawKXK57XNovap/s10nEw62qW0QU301gWY8biDhaenoUq3sviN9qXX+EoYdbw9pl5sgkm7SmDa1m+x5VgunCXQzlwpjc37i2PUnJ9Qa4ADgkbkR5+1Thiz3RHz9hTE9ccVkZRcneq8MgwZnrh8rghO7HZAxoeC3PbD5kMa5Fd/g7J9SqHCRDXyj/RFvuEa5O7lje8bVMSw9TOQRhwISpRpbv4OkHZ2tI8A+ycBKecLKJXVHLbkv9xQwp5Hl+A2opXSC/NTXxeUGSSDB5YTqGI52rDv7G64dXOD87BqaDqvNvqsbIdjD3fzSA5/smbxL972EduvLUHI1nYYvjkIYw/WxoiDQei30R1dF1RCR6rYQav8MeVIJ0w60Q0tFgSheMficGQlGLdhCJ4knYLReh9Z8Rdhjr8Aa9wZWBOoKpPoTCSQraLOAq9PwnZ3I9LPhCFxVw8krKqD9xHV8Tq4BGLCSkM3zxFY5wfznkbI2N8QSftqIXFfINIP+EN30B9ZB2oifg/BeWUQQb8FVj2dGWE5G1UzwWQjkECnBgrQckS8chGucymsarXSKbIyD+iJQ08QKmDleQYu9acJdGFROlVU62YBvO4wzDqCU78POjpOGbaDtMsvsCJfw4FHy9FqWh1U6FoCVfqXRp/tjegdN0fYQRcMWVOAGicXus3/HY0n5UHdCfnRbWlxjN3ljJA91bDkcAnceyYDl0vBGF8BxmRXnDrtjInTCuPQgfxMlwveRnqjV2ghFG/8E1zGVke1SV4oMbw6Cg1wRMFB3viuZWVU6lMHqy4fQrKVJpxgI5uvSF0sWWmPFCAKXEXsuPmr8AUgJRJFAVu2KNtc5NgD3JfDlPIr1t3VmOeoPaknVXU5hcJ/ocp0H9cQhx6fobdoYuJMmLgwGOrBXqg1W4OGlEWXJiEV75FpTcbTd4/w6O1DQtPA6xnowiTgGplt8el+GH+gDsae8EfIWX+Enw3CjEvNMftqL4w70Am1gp1RpnletJnUEEefbKNf/hAZuqtIiz0Nc+w5WGLPwxRzGsbYE9DHHoE+inbchzPAx/NkTjon0QTG2/WwXJuM1H09ELeyHj5Md8WH0ApIm+cC4wY/YG8tGA4EIfOgHwyHNdDtVyFpTwASj7aG7uVUPj1ZjWC0SNNPtpq2ETg2Pa9tkDbKbDVsIgAVO1HaLHNsRLKhiULVrcSnNw+rMKkAkpWHqhq0YU0Er4lAtdERsimeOe1OAtJIR8jISmCwshISlDF0gFafnwr3PpVQol1edFoRQPXdFrOutcakUzUx7og/JhwPQijzM+yoO2YeLIsdl8vi8btqyKATZEquiNRYH5w4VhWNWnyDkAhpaPdiOrxx7robqjT+Ci79i0ATVgHa8BLostoZLedWRuXBpZG/Z3V816QyqvVriC137E6ONIzLxKoypsHCpVXeDvgERjue/io45ByTyHb9zpMUeMvJ2RcgIMWTNotHnQ1UOfIqIxUNZgyGQ92S+IHMmJe2xR8DqkMd0hjX4x8yo2zIsOoQvGQcgsaq0GCBFq0X0T7c1hUXPu7F0ft70WhQLXQObo77MTeQZc1iPZKemnjcS9iPiGPtMWy3Fyad0yLsck1MvtwS3TbURYXOBVGpWUGEr+6H+PQLBMQ1ZCWeQlbsceijj8EccwyWGDIjl+Zo2mHRh2GNIXvxmDWKxwhO80cW7keC5SNBEbkZ1luzkLq9G97P9MPriZXxPrwsstZ5wnqoJvSHAqA/qIH+gBZxO2sg+XI/2imrWVi7FZBJ+6SNzGY1EOh6AkpHcAkYCR4QiBYuRazSHGTgfZXjwoYCZAJUsSPt64o9qTAswUmQQ2km4nkUezsmnSBeS0TAaSOQ5bqwnWbe3cCVDzvQLDQIeRv9CG964qOOtMH0K+1ZoRsh/GQQph51w+IzFXH6cWXExVdGVlIZmDKdEBnpjmWbCLamP6BNj+9w8WolGLO0SI13wYKNJVC47g8ICCmDhjPyInh3STxKa4o7MY3RYWYplOpVEfn7+MChfjnUCO2BZxlxZG9pTdbRecsirkw0TwSUOTr1H4dPgBTwfQLkJzDKPpKumVaeMdul515pbZImnIk7VyBfJw2+7eyC34d4owi93hLDXKGZUA+n31yS5CCTPLnj3DY0m1QHDWf5oOuaWmgzV4W+a5rRPqwHx/aF0Ia2YciK/ojJeM+ri92RgQO3VqDfEj8M2e6DKVcbY+KV5mizyhfF2vwCp/bFMH/HcKRmXaZ9cxqG+EMwRO0n+FjYMXQWollwMWQubpujDhKA3B9NdvrI/YxnijoAI0FqiCJzRhIs7+hBR+4AHi8hCw5A5Gx/vA2vgrdTyiBrgwo2mg7mg4HI3Ed23N8AWffHEihbmREEs3jhVK822ngWioDSRrtRUdEEmtiKRoqJzo7YgzYLmY9sJ4C0EXDiXdvIdn8rotZzbE+aAgozMh7Vv4iyrZgA2aAXEQ+dbGkgKJ9lHGOe1kL+Br9ANaYKRh9ui+mXCUoy5ewzbjj4zBcfdaxYcVVYkZ3w8q0nxsz8BS7Nv4Jv52+wdl9pJMR6wZwZgFu3nNBhqAPcOn6N7vMLYeGxUnicHIioZF+WbVusutCEppjMLOeOn7q6IX9HXwTvWIBElrtoPJnR3UaWlKYg4bIcZP2j8IXKFiD+vZ4Xe1E0tlxQGr+FG8Xyu/jxCXxHtcNXDSohT18NCo/wR+mxalQc5Qq/CTWw9tJ6pNpk6nhaipZMTFg+mDaMF6k+UOmbbrdG3oFxRofF3nRiGmDyuh6ISpdxjjpkWuIwYGYr1B9fnrZiM4Rf74ZmdDQKtGAt7eeIEw+XI5kFn5a2Dxmpe6FL3E2A7SQD0p6L3UvPeBcs8bu53EP1vYfg3EOgEnTRtNmieOwjjxGUppjD0H/YD/2bnbBG0hn6QJA9XgzjsRGIW1QXH6e548MUFhorgo3qO3NvDWQeaQbzkxBY09dSPfMcggPSNGOhOWCmjWqlEHQWgspslXbIwywYVhJIDw63dUwDmU7pBSJDCsN9YkSKNP1I+6dVAaUwp5gFAlKJJ3amvUdI1q3i8IBgt1GFk10NBLnZeJqlcw1J+vOYsbUfKrcrCJfBZTHsUEtE3GiGsOOO2HqHdmFGQyQk1sW9h4HoPuZnuLX7hmZQHgzeUAznH1dDenw1ArIGtu/zhUcdB/Sf+htOPnBGVKIr0qXbMd4HL6Nbo9fcqsjV7Hfk6+WCwkP98V2zqnAf1BRn30lPmuDIxIpoVEw9AaQyXM0Orb8MDp+OCSuKr67QqkgOG9qHp8uoDgGlOB8JNgO6zBuHXC1dkburDw1bf5QcFYgqIX5wC/WBarwPBq8ciI/6D4oClqtEJj3C1E3D0W5mIDqvrYmeW2ph4Pb6GLqxMabt6YXbMfuhs0YzfjL2XFqJpuO80G9tA8y6TiDP1+KPZj+j4XgNrr+lvWg8i6ysA6zh65GWsBG6BDoXcWS4aErMNljjt8KcsBXGhG001LfDHLed+7YpxxBD0MXsICB3wUSzwUQ2NdJmNb5jvHdbgHcbgKdLYT4+CrEL6iBmigtiaFfqVqthPdgYKdtq492muog63BnJ10fB8DQC1g8ref3NsCXugC2ZgEsnwLN4zwymJZ3LNC6TNzMt65EVvYZAZoUQlSs2ozChQcAobZfigdNW5D5hWDsgc+xPATHjGE8RxHTMxPNmHIONTo6NlYr2pJkVwWY6Sca2d0emG85h1cmJqNSxJCr1K4S++4MQftEfSy+74fBDLQ5e1KDtwF8R2Ptr9FrmTCfSAwsuO+HBRyem0QWRLxwxdkIedOn7K+69qI74ZGfoUiipKpy9XA0NeuVFwTrfUmWXQOmRahQlKeUjOf3WwhUtwwch0UR1LaWfTWoyEkhMv/8pOIj6tbNjtvASwpMKV/Iicr60NMpL5HJMRiyuvrQfJbsF4NuW1VBoiMwsWwPlJwSherg/vKepoJnsi4ZT62Lf4z3ItKXLlZQrJqXF4tSj/Zh9dCImbhuIWfvGYP+ttXibcpdATOCVk3Dn7XG0GetFr9ofoecGIJDXy13nZ3QKa4THsfQsyUK69P1IJwgNqVuhT9xID5pAIuBsHzfSRlxPcGwiIDfBmLgZBooxYTO9btqJcRthiyHgormM3kI7chsMtLlMUbup5ncr64Z3m2F5uxZ4thBZB3sjlZUhNawKEsIqQb8mALr1QYia44IPCzzwZpEX3iykzPXCqzkqvF5QC++WNUbk6kZ4u6IuPiytj5jFjfB+Tn08CAvAlYgaeHFyKCzpW2lzZncnitoWO5FgFEBZlbZLMqE0/yhNRgSmCOPae3pO8Bw7Q0pbpcKS1qME5imeL33kwqBcyjXAimu+jC1XpqP6gDLI0/UntNvkibk3GmP2KS1CNlZG+/B8GLbJHZOP0nHcVwGHHtGxS/Yk6Kph95a8CJv0O548rIrMpNLQp1VFUmIANu4uBVXb71GovgMq0dFxmeyDSpMDUXx8AAoMD8DXbaqiUDsfrDp3AKkkOTuWpHWGOJB2awVLfx0cxC3/BEhl3Q5IZbQGAan0T0sDuKLOpUNPT2rvgq+bVkSuPt5U1RqUGENVPUkL1wgtfGer4D9bjZoR/ui1vCte614o5ymXZjBYMxGZ9gov4h/hbeIzpBrisw8akWB+gU4EdsDAoph2thvarKgFB7+vUWeIGvff0vbTX4COwMuKXUNW3EBZT8CtgzVhHRBLoMWRpeI3UNYSpOsJyA08LnE2EJT0qLnfxnNtUau4XEdwboLp/UYY3hO4UTuQ9WE7MiO3kDE3AVG87q2JyFhXD1mzXBEbXA5pM11gW65G+uxqiJtWFjHTyyAuvBQSJxRDwphiiBlVFtFjKiNmHGV0ecQNr4SYAZXxonsZPOxHR2llG2S8XUYwykAL8Zap1glIaUg3SXciRRhSUc0KILPFQBFbMge0Spyc4zyHKtxsOanYkEb9YZoC4rlT5BzbOZLIdUw/NAy/tfwBJfvmwcB9jWlTtsPEI3QwD/gg9GRNhB3zwPz9hXDvtRN0em88uFkAuzZ9g7tXisOU5gxTSgVkpfti/e6y8Gz5NYo0+R4eEyoicIEGHjM1qBiuRTFqyHyjNcrULd+1qgaPQa1wM/EDEUM8iZ6W4WAiig0oaPj7QBsyB4g5kqOq+cxcEYY0EaxiPaabDJiyYwnyt3XHtx2qouBIPxQbp0Hp8d6oMtmLgPSGzzxfBC7Wou7iQDoxQRi+rh/OPjtGBrS3OQrcZVCENPJ8GcR+HBDREjWGVMDYQ+3RkWxUsOn3aBEcgHt0OCy6s/Sgt9IeXAVL7DKYk9YQcKsp3KbYYlaT9chsBBzi1xCka2EiWI2Ja+2gTFpL1lxFllxJNlxGJl3Om3L7A+X9OtqVBGYk1f/bjdC/I5jfEbhPZ8N8pCuylmuQNMsZcVOrIHMOC2eBM9JnVUTanArInFkBhvDy0E8sj4zgykgdWwVpIysjbWhFpAxzxJsBVfBqki90p4YzbUwfbUPxlsUzNhhox3Kp9NoobEmHhbaiiKKyhRmFJaWdkuCTNk5pXFcGePAcxe5UWFSALN44WZSMKc1QNl7XRrY16glgXEFc5hksPTUBzn0rolyfMhh2rDNmXm+H0LNBmHzWH2GHK2D3lUJ4H10SuuSSeP/kN3x49DPzsDTMGb54+VKDcRF/wKedA6p2zQP/GY4IWupL8SMJ+bD8vVF2sj+KTaLaHuOF77s6KlPhDNuyGDF6eSmP6FKASHzJUtnz9+FPgPwcSdaU7xLJOEeui1d9/s19VO4SgB9b05Ad5IWCdGJKhqhRIdQLzlM94DnHCyqZMXaZGvVX+KP5yppoNEuLvsvbYdmBObj/+gbS6H+ZlNlkhIWteBX3DJsOLkGv0Cbw70cw7uuM/rtbIn/Lb9As2B0PP25i4Z2kA8Jl1AqCbiFscQsILjofFFOKgHM5rLEEWPQK2ocUgs4Wv4pxCFiCUJ+4hrKS4FxO1b2Mzs4S2pALYf24APi4GHhPgL6jHfhuNSxvCODXq6F/RZC/WgRcHw79zgZIW6FCzMxqiJ9aEbo5jsiaXw1p8yohdWZFZE4he4RWRkZIZaSTHdNHVEXaMCe87lcFL8ICkXFtIjOQNiptPQsdFCMBYzTIAAyCh8BRVLd40NJ7Q5vQTLEyntKozjgg2ynNRLJOsYONomwLaAW8BLk4P7Q1xQkSU8BkJKMSkGYDnS7bNeb7baw6FYFynSrBiRVm/MnmmHa1ASad9cGC8xVxO7I8khMLUgPlRmZULliSCsOWVQ2Xr1VBt5GFUK2pA7yHlEATmZBgYxBq0q4OXOwJvzmecJtOUE7xQ+kwDQqO98DvQ9zwbUdXFO9cC2dfP8rWuqQjRXULLmX5GW854RMgBXafhw1xD4FoJiKzTUfE6NLRe/kk5Grjgl+6uyhdR0WDVSgTqkK1cC94zvCEZqEP/Flraq7wReM1GrRZH4ium2qj7UINusyqiZD1PTFz70jM2D0Gs7YFY8qmERg0pwUaDq+IOlR3I/d0QM8NzVCmfS7UHeGIq68IPBZWZjTB9XEpGW0RATmXLDebNXcmmS8C5uT5BORCquMlBCHjKLJYWbckLIOJIkA0JK1g/KV0LBYRlAvpfc+DNXoOATkXtvfzYX1LcL5dQlkBy2sC9zXBL4B8MAH6w62Qts4PyYvcyZIVkDSlPLLmEXQEZMrM8kjndkZYBWRMrojUkApIHV8Nb4dVxcupNZB+bYoCLDP2I8O0iyaLfXSPWRrEFVARiEpb4gECU0YAkTWtBK60SQogFVDKOkU8cgGhOEFU4zKcTRrL7fspZF+l4V08fMsRGIU5CUqb/gTMWbQ7bVeRYb6D+bvHoVTjXPAPqYixpxoj9IwK62864U0C1XVKcYKxAPOsClLi3LH7cBk0G/A9HDt8g4YzKqETgSjzXzbbGIAGa6kJl6oQNI+OLM00p+kqVJzijVKh7sg/yh2/DvDGDy2c0GvhOLxPjRYYKSQkyxxQ/jk4KEZmdiR5bVWhVYJQ3pOwGLnNk8TTvvT+MUp29cf3naoj9yBPFBzlhdKTVKgU5guXqV5Qz/ZCwEJv1FrugwarfdFqvQYdNmrRdTMZclsAhmwLQu+V3mgZUZU2aBkEjCiOWpTGE4uhx8pKmHa5Jcac6ooynf9A5Sa5cJgFaSJj6Agsc/QCgocAiiJ44uYRaDMJxHCYU8NZi2dQ5hKUAkwCi2JLZLxExk/kdiLBmkgmTSIYuTQmLiBrzoMpbg5V/ywCfAbwYSYQOYtgnAt6KcBrnkMw2l4QsI9CoDvRDplbayFzpQrJM6oiPrQs0iKorudXRfocqu5pBGU4bUwCM4nAfBNcCc+n+SLj6iRmKm1DG50OquFMgk2PAwSlqGVRwwSXjiDKosqm7Wc0MB5BJECS4Ws2gs5G9pNxmWZR82IXUn3bRA1LQzzBpnQ5igonuBVQZrOnSYaxcb/0icMg8Y/TBhdQ3kRq5iUEL2mPX2s6oOb0qph1qSFWXaqOK49KIym+IsyZ3oh854Ula0vDr903qNbhJ7Re5YQ+R+qh664a6LDZH202aNF8tRaNl2pRe6EWmnlquFJ1O0Z4ERNuKD7OHXlHqPBzZ2cUbuqEc6+uKgyZZaVbLK05/yDYAckIAkiFJ4URJb6AkiwpgIw1pCFk12L83NYZ3/Wozht5oHiwFyrQu3Ka6g3PmT7wm++Dmot9qapVaLpGjXZMcJctGvTcpkG/HSoM2+uL0Qc1GH+0DsYdaYix+2sh5ADtlxO1MPVyI0y+3BYa2mAV2+bB7M1dEU/v2Jy6BqZY2nHRs2CimOPnwBQ/i6CKIMAmK6BUAJnMOCIpjJccwe3plAhYk2dQZjEOzxMQEqCmpHlkytkE5Uxei3Fjp9HJoXyYTlDOhO3tHFjfzCFDzob1xTTg4VgYTnWAaXcDmMgIWfPckRRaCQmTSsO4oBqyCMjM6RWgjyCj0JZ8N6ksns7xRdqFkUDmDrIAgUGg6Ml0evGGcQJ68ZZ1J3mcqjTzLCxZ52HQX4LeeIWAvAqj+ToBeBUW7jPrLkBvOE9H4xyMOpEzihgMJxkne+S5YksKg+5TQGnhvcQutQNSwCrAPQ4LAW7K4jpV95uEQ2gyyQ/5m32Dvhv9MOdcANacKYUbr11w+40KIQvywqeVAwL6/YHuK10w+Egt9DoUhC67AtB5awDa85zWa7RoslKLOgSlH001z3necJnpBcdwT5QN8SFpqfFbLw/80KAigvcsQKSOLrHFQA3wPwBSemdsivdj1+licObMNpFDqRffPECVHrXwUxdn/DrEAwXGeKBsqC8q05Fxm+4N1Tx61otUqLOMCVyhRSuq645McPetGvTZocHA3QTkfi+MOeJDCcC4o3Ux6VhNhB7TYsrFBph8pQOaL/JBkYbfIGR1K0Qlb4CJYNRHCRinw0TAmGJnwpg0G1kEoz5pGsyJUwm0aQQegZoiYCRrpjIuWdOUGgpL2mTY0sJgTaEkTaU9GaEA2ZhkV/WGxOkwJJCF4wjqGErUFJgJShNBaXw3A+bI6TC/JMM9GgXDaQJyTz3YNgXAvESF9KnVkTSpHPSzKlEEjBWgo32ZMLUynkoT0TkZeLFTacxW+q3JWGaCQU8AZVkuEpxXCZy7ZK6HXD4lWF5Qhb8gi76C0fqGTuRbsshbgukNQfeadudbMt5LAvUpDOYH0JluKdcwGc8TtCfInKK29/JeuwlQGV9pNwksZEfxtBW7kzaljEoy6rjUSzvlbdxO2oegUa4o0ykPCaM+5l4KwLq7GozZWBSBA35Gi7AyGLMnAMHH6mD4IQ367vNFzz3+6Lo9EJ22BKDtBj80oylTb5UGgUt9oKbJ5jXLBy7hvqgUokHRkWoUGhqAnzt6UrvWxKEntxQ8Kd0rOXj7kzjI+xBEoxJRugjlVUYBpBKB+xJMWZh2eA2+q18Rv/Z2Q75xtB1DvFGeXpUr1ZIPE6ChDRG0VIOGK/3RclUA2q31Q+ctfuixQ4s+uzUYtE+NoQe9MeqYD0Yd8cOYwzUw8VRNhJ2nXG2F7tsboGynX9FpkjNeRC2BLmMd7cY59HqnwPIhlA5LGG2/KdARhLokAimZQORSEbKgOYW2ZCpBmxYOY3ooTOkTYUmX3hRKSjBsSdwmoxoTwwjEKdAnhNPJkXXGjZ9EezKUwOf2R+6PnEohMN8RkC/ojDwZCf259sjaVwuWXYEwr9UgY64rkqdUoqouR4+bLDm7MhIiKuFtRDXE7mzOa9KpwjECRkbpSHfiOYKFTgVBqLc8o3PxgSz5Eem6D8jSxZAd46AzUEwJBF4yTSeZwUNe8RXnT0RGzssrHfK+URSMeEvgviQDPiZgbxHsF8h+osJZAQz2wRw54yntKpwAZeWQketmASjZki4qr3oZh54vp5NTCh5jK2PcyUaYcaU2hu2qjmE73BF6sh5CTjbAyMMBGHZQhYH71eizj+W6W94C1aLTJi1aUxOKv1CHjk6gqO7ZfvCYpoFTqAZl6PQWGanF7/01cGjmhOHbFiBKL5N1UwlLz43InwHJY0oE5SfbfpQDOe2OVz4+g3ZcB/zU2gm5+9F2lO/2TfJGVYJRVLWKdkPAQhXqkhmbrmatWROIjutJ69vIkLu16M2HGHhQjeHHNBh9QkvPrgYmnKqPcafrYPK15hh2rBkq9S8Kl675ceN5GNKoWjOppnVkRcN7AunjBFjjQwigEGRxaUyeQpYj+IQlFdVM0JIFzWREY9pEGAhCI8WUFgxr6hjYUkYDyWO5HE8bk8eTJvFaIhOpxkNoBgQTkBPoxfNYVCh0H8KhIygNr6fC+jIUtodDkHWBTg0Z3UB2129VIW2xKxIjKiJhellkLXRE8tzKeDezEp4t9raPAjLthoG2od50kar1Dm23J8zJGEoqsvQpSMhMxbO4j7jz9jVeR0cjPikJqelpjK9nEXxWZ1IkLAr+CGlIv3Am2SX1C0lm/FgW7ksy4g3a/GftgzuU0Ua0KcWuVBwl6V48AKONgLQKWx5SnCgrzYdYy2kE7x2FvK3yIyjCGZMuNseUaw0x6VwQQk4HYdwJmUwhEEMP+2PY0SAMOOCPPnu06LVDjW5bVNSEarRcraEt6a9MexM0Owi+EVq4TVGj6kQVisksGCNV+K6bGyr2rYP992SQMZMlmjlbC/8NIMVuVObgkSdXHp7PYTZRtRihI3uuvnYIuVu5IU8PDxQc6oti43zIjr6oHqGCOz1rLe2G2kvUaLBSgxZkxnbr/FlzWIPIjr32qtH/gBpDDqn4UGqMPk51cMxfmUUi+HxjjLvYBg1okxVv/gPGL6+HlKQFBIYwFAETORHmqEmwxkyAMXoUdAmjqarHEYwEXBKZLYkg5NKaFExQjoMpZRz0aSLBMKQRYKnjCNRRBCJtOYotdRQBzPOTxxOUjJM4nkw2Fpa4sWRgLqN5LIrA/zAZ+ne0T19PBl6Nh/5mJ6SfrYvMkwEwHNXCuMMXWSvobc8oj5hppZG+2Ik+UXm8mOuEuGPdYUndSjY8DgPtQh1VrIxc0ttSkWZIQVx6Mu69fI3Lj57iQVQsPuiMSCNLyCwQ0nAs5rtSDEIKdqtJKRKFJKi1rDKUK3scjQxakLeYbMp6Cvd9oGp/TFBepQqnbSptlzLol+rbYiND2ux969LHbqF6t8g4TgLTgAu4m3Ea6mG+KNQ2N3rJ6yC32iLkQiAmng/A+FM1CMoaGHsiCEMOajHogB/6U+P12eWLHtt80XmzL9qu06Dp8kDUX1QTNRcEQTVHCw963I7yjccJKhQYT0D2qo6v6pfDhN2LkGCRNNsf9u8AKfVReWj5URjSqgBU9p97ew81JnbFj62ckK+/D4qP1KDcBCKf6HeiZ+09yxtBC31Rb6k3jVsvtF7vo8wu0XmbGr12atFvjwZD9mkwkqAcfcCXtqMGE8+w5p2rjbCbHdFtZ30UafUt6vQphPvPJyIriirz1SiYKNb3VLVRZMdoAiZuNNlsBEE5lOp6FAE5hip4PD3o0XRahhME3J82DLr04dCnjyVThnDfeDs7powgGIdTpY8gSEfCSJAak0fTBuW58aOAWAI2ivKR9/wwDub3ZM3ICfS4yapP+yHzUgNkndLAdEIF2yFfYJca5nW+iKf9+HFqGehXeiB2fjW8XqqFQZqJdGdhzbrFwn7Lws5CKp3Gx4mJ2HfrBo7du4eXyalINJqQRoBlsgAEXsJ90oVrh2SOKKViD1wVgMqPzWrkYapxK1WfTc+yMhFsOdPWpFKVvyOh3KUqP0MWFIYkW1qovqXfnEv7qCGuKw7PYTpRJ5Fmu4I1p6ehbLsScB/vjJFn2mDy1fqYcFbGogZhwnE/jD/kg7GH1VTdfhhAtd2HZdt9p5plrUJbsmQTklHdlUEIWhYIjfTeRPgqaruCzIBBEvt9sAe+b1OV2rYdTj+325J8gE9AzAkO0hsjbjh38yFlg1nDB5fnX3JhH35u5ohfu3vijyG+KDNOi4ohRP4Ub3hQXWvpzNQiIBss9UKLNZ5ov8mbHhhrDh2Zfrv8MWivH0ZQZY+m/TH+sBYhJwKorrUI58OOOt0UnmPLwLPr79hzuBmiHveH8c1QermU10MIiOHA+5EwfxxBT3g4rAnDyGpDCKZh9KSHkRkJtBQuUwfRXhwAY+ZA6DMHQ58xkuqaYKVAVDZBaE0ZSnYczHMHw5AymOtDCejhsMUPoyalRPFevI/tPUEZSRBHcv3VAOjvtILuck0Yz6thPeUNHPYBWBBWFkDaImfEzqiM9CUeMG2ugZS97WCJ3MRCf8L8jKY6NSA6Q49jd59g9427uB4bhzc6HZIVEFILUSTXpV1O5iiSX2b+n0RoQUCYA0gR7pMP1CtXsQ/rkmnw5PvYAmwT0qmeI6nCbyugtMkYTWlCIjgFoDZjdvuldENSDDxmsZ5FmvEyJm4dhuIdiqHZUjWm3yZLnq/N8gpACM2t0KP0vI+qMYosOXi/P/ru1aDHLhUdHDXab1Gj2QYN6hOUNZZroV7gQ7JSwy3cH1UmalGSLFlwlA89bld836AcZh9Yz7TLk8lD/W0gQzJTCEilfhKQVoM8MPBOl4Tua8Ph0Lg8fh3kjXy8YGleuEqYr+JZ+87xUfox6y3RoMkqb7Ra74GOm7zQg3bFgO3+GLqrBj3rAIzkA4yhqhN7ZMKpQNK/H6Zdb4r2qzxQof33CJ7vgthHHZF+syEMD1rD+rwr8KY3wTiAIBlMhhxCQA6BOY5gShhEdTuEIqCiEIzm1P4EYF8YMvqSHUUG0o4cRpuSQKSatgOSwE2RuP2o2nsR0L2p8vvBksDrx/IYAWn7SPnAivCeHvJbxmFaDDfqIetaILIukyHP+MB2ggx5QAMLDfqs5Z5InFENKQs8YN3dFIl7uyD++jKqQnrEzM2HScnYdv4yDly+jjdkxTTmqbgn9teBs6GWY9QrBSN7/kq+KDQFkCKy3w5p2SExciAs5SgOkc0aRUfnASxZZGyCUHqEpM9cPG3pbhTv22KRCQ0IUOlDxyW8z7yAoCEuqNI7H4afaI5Jl5oj+HgQJh3TIowsGXrcnw6plg6qHx0csiQd1h7bNfS4NWi1QUXnRk2WVCNosS/Uc1XwitCg+hQ/VAjV0tRTIdcAd+WjqB0WjsLr1BglvUoTkDCkPATFQZn7WxhR9lFs0l/IcPzZLbiMaYOvOzrh12E+yD/WC2Um+qDaVLLjDC+o5nqj5kJ61stlujlftNnoiS5bfNBnK2vQjiCM3FsLow7UoFetpf2hpQfnh7EE5aSLjagGGkMzvAj8uhTA5SvtkXGnHiw3/Giv1YLpUTMCsiPwoQdVdi9Yogie6L609wi8RDJh0gCq7QEEFBk1pR+MqX3oxPSCMaM3l3YxEJjG9EEEKpkwlYAjeK3J/emN9yCQuxKUlOTuMCf0o0PDYzEEYsxg3q8vrO+6wPKiJYx3asN4wx+6a/7IuKylp62G5SSFFcy4XQvdCm8kTa+G+Nnu0O9uhw/7BiLjrXTR6fAoIQnzT57GxguXEJUqkx7YwaJwILNXPjavBFnkiPKTXSp/J9mR/i6usvFpd44ox0SlG9/DrLtGL/w4TKKeaTPKDBz20erSdy5NQ/Y+dJNN2ifvY+bmPijR7Ac0W6bF7Ht9MOlUXYSfYrmRVCZQxh6h1jvkhyH7tehPbdF7pwZdt5IlqTVarPVF49W+qLtMhYD50gKjgut0LSpP1qD4eDVyD/XAtx0rwXlYfey6TZOCd5QPzivfKJKEM6McZEiQvOwv3YTS/CgiYdHxHfipiSN+7uNFL8kXBZWGcF84T5e2Jm/48YZ1FtPll3ZHZXYyX4W+e+30w6A9gbQbaQgfpJfGhwg+ocb403yY0zUw/W53dFzjD+c232ByhBPZsRvZsQbZSAXdLX8Y7teG+XkTWN60oh3ZnoDsTIbsRvD0JCDJXIkEXBJByqUxmdspPWkzinBdgJnenYDsRpuS+whWU2pfOjd9CMReFF6HgDSndCOgu/MaPcm8vWmj9qIt2Q3Wj21oB9aD/kkAjHd9YbzpA8M1gvGSPwHpByMrlfEgnRtWOj0BmRzhiMjpHkg8MAhZ76QvOhnPYhKx9NR5OoM38DIbjEYygEFsc65L9n7CI/NeGWiQgyRhChF7rE9i7yvLLhgJn+Jmr/Pn858ExqVat1nj6cA8hNFwFkaypElpDrI3novDI43p0k4q4y3NtDEN1nN4m3AUdUa4o2yPwhh/pj2mX2lEUPph8slAqm4/lqc/RonHLSxJ/6Dfbi2600TrSLXdlizZfDUd3OVq1FioIktq4DZDgyrhWmpXDQqM8sLv/dyUjzdN2r1U0RTKxw8EdNmP6yBqQwBpn0Oa+7iMS09Bv6WT4VCvHHINVCHfaLrvIT6oFO4L1xm+ZEdfBC1So/4ymUjUD23WadGZtN2NjkxP1hqh8xEHAjDukD+Cj2gQQmYZT8cg7GojjDzVBk79i6F+j1y4faoRUm40Rer1QGTeVkN3TwPdfRb2o0AYnteB6W0TApJqPK49AdkRxsTO9KwJKpHEbmRLAotMZ0zJltRu9LI7UdpDn9qB250JyC4EoICQogBSwCjX4DbFEteJHnZrmD80huFtLWS9UCHriQeM991guuUJ0zU6MRcJ0DME4olAAjIIJpokAsi46Y54MzcImdcXMzc/IolwWHriMlacu4HnWfJGCVU081PAKKBU5uFm5ttBI5j6MyCVnfzJLp1sEUvz7wGZI/b49jh2X8AeV6Z8SmV5viIYrygTYEl7pLzjo/SLSx+58hLaXjsgLYegt0qD+UPMOxSMsh2KosHM6phKQIaeCyAo6XUfD6AKD6AJFoARh/0wmOZL/71aeuZadNmmISmRnIiFRis0qLVYTdLSwnOWFo5TtSg3UYMidG4KUNt+3aQc2i0Yide6FKWdQB5BbGSZW1IBpNgx8sEcAaWEs8/uIHBsJ3zTqhpy05kpOE6NUqE+StujxyxfaOarUHOJGg1X+qHlGj+lm7DrNj8auX7otU+LQVRro5jg8QTjBBrCk05qqLI1mHG7NZrTCSjcyAEhU51pM3ZD5oUaSLvmh8w7Gugf+NjlkQr6p1ThL8mckXVhimoMc3xzgrAVLIl0HpI6UAV3gCW5I21DMiiBZ+bSRDGktIchtZ0iRoLSJJLCuCLJBB/FlMh9iW15LQIxphkM7+tD9zoIWc9ZIZ76wvDYG5YHXrDe9oaNDGm9EAALC8RytAYsB2rCvKMmslZp8G5qdTxe0hRIuKA4E8fevsOkfSdxKSqBGW23FWWUlB0q1D7MX2XkvT2b7UEB1Zfy5x1/AuSfDyvxBYgCQBE7mwof22i1WhENo/mefcSPgFBGAwlTygghRXXb1ba8720wU7XjGu4nHkX9sVqU7/ozRtGGnHK1LkmFDukxEozYkWTKkTTFhhCQA1jefYQlaUt23OJHltTSp6AtSd8iYKEWPrO1cJ6mpR1JtR3si0LUtt+1rgyvsW1w+OUN3k/MGDuzS1e1AkgJFnrXOY3hy4/vRvGOWuWlnbzD1ShG/V8uu+3Re46voq7r0hNrslqL1qwRHTZq0J2A7E3Puu8+fww+REAeISse9VU8tEl8mNALdWg7NoLXkILwbJcL+3c0gPVqSxhOqZF1nYAkQ+rvesL4gOz02AuGZ77QveCxVwTJO7JTdG2Y4hoQmI0IzKYEVjOCsQWdFjJoWmuCsg1B14bApHBdkTTu43FTSisyIyVJhPZhQjPo4+hExdSF4WMN6N8GEPxkZgLS+ERNO1YF2wN61rd9FUDaCEjwGXAkCLb9tQjI2khdHYDnEV54tJHq3vYW0VYdQg8exvI7D/DeIPWeGUz2yxlLKrmcgyEJn5o6cnZ+KX8TpLCyVfZfxc0GpN1CFUDa4a80PCt+dzKMlmf0uC+QDcXL3kc1Lq/u0rGRwRnG41w/CoPhCHQywMN2AXqy5JgV3VGAxNFsWVVMvdUUYefr2AF5wh9j6eRI+Q49qMYg2pL99miVlhX5EkQ7YqH5GhW1J50b+hiqufaB25XDNCg1wQdFRnnj565OKNRdi1knNimVVlJsh6Ti1DDh2Zmj56Esysh1c/B1/QrU9z4oOEaLUsFqXpBuPAEp6rqGNPUsp72wVqOM+ui4WU07Qs2a4ocBVNdDDmmYYBXGHVNjAh2aSbQdp91oha7rPFC+6TfoP94Rry53R8axmrDQtjRcoZNwS0W7zZuqkoB8SHnK9Re+0L8mMN9Sjb4nMKP8CCKq87gaMCUQGEl1CMz6BCGBmpwtqZS0hp/EksJlUgOqewIwoQEM8fWgiyXDRfsj6wPt1kjaiW+9YXrjC/MrFcxPVDA99FHEeNeLKtsXlosaWE+rgaMa2A74w7QzELFUS88X1EHSpcXQ03Y8/vYtRu/cg7Px8Uqnnwzct1q+mBFMRFR0dl7/var+Qv4U7GfzwJ/jKSI/AvcchpTizb6vvO2HFKUf3GK8RPAJCKmeyZAy+EJGoCtTCJIdzQaCkXamwSJq+y6O3lkAt+6FUGVwHgRfbIbwS/UQejoAIbQnxx/XYjQ134jDKgw5KGpbnBs1uona3qxBy3UqNFzhi5qLVdCK2p5JtT1Fg3Ihvig2xge5B3jg66YV0HPlJKXlQRq9RENLnti7DvlQ8tAy4+n9tPdoMXeY/RWFQT4oPE4upIJTuBpeM9S8gQq1ltCbWqVCy/VatN1EqpZP8e70Rd+9Kgzer2FCpUdGi/En/JR2rInnaiP0amtoJxSDd8vvsWW1H1Kv9UDm8VqwnacqvEJmusmCv0sw3CM47tN2IyBNLwlSAkX/zofA8SaAvKGLpkqPoVqNpcSrKQR0Ip0hReh0JKtpT/K8FA29cW4nkV0TA6GLD0BWrD8yY7TIjPZFVpQn9B/doH/vQkC6wPzag961FyxU18YHntA9dEPWPR6/7gXjJR+Yz3jBdoIq/CCP7/BF5CIfPF/ZBoi+hFfp6QjZcRwrrtyhXaRXMtmgNFoLIKTCCxCZz8zwHBOJB4ij7OWf5U/hM38w/MVxewyZ310MBfHnWR0UopFtAeQrAvIKwSiN4fu4LSL924cJSmkCknGU9MDNR6EnW5psZ5BiOo1xa9uiRJff0GmzP8Iu1kfYOX+SizipGoyVNkmSzjCSz0CZeH+3WmkC6rxVQ7VN7bnKF7XJkoranuMHF6rtSpPVKEm1nX+UCg5NS6PG5C54nvGR1cjK9DDNJisczDIxEB9HbA6pZzvunoXzyGb4vmN15BulRRGyY4WJ9K6n+sJ3lhr+C3ijpT5U1z5ovcFeI6S1vtcuNQYcEBpXYaQyYagfgqnmJp4OxGQ+zOAj9VGpRx70H1MWL0+0QdrJ5tCfrAXjKS3Ml6gm6WWbqSJN91j4ZCczbTk7QxKEbz1h+EBgRHlBH+0BXYwH9LHuZEoPRfTx3E/RJRBIiQRRgjP0ia5cMm4CwZxAAMb5IjPWh6D0IiB5LMYVxmhnmD440XmqDtMLrj8hMB/TbHjoicwH7ki/w+tdIVNeVMNyVgXrCarw/TQntnnj9XwfPN3Ym6rwDU5ExqHrkp049zFRGQYh79rJy3DyJ7M2fPlZPQnK+pcA/LP8H4Mdol9GFZDbB8rIfVimZGebVd5mSaY59hJm/RXIHJcyOt1klX5tijIx1gFYZaQQgSpzVxpN0mB+hOddw8G7c+E8oAz8JlfATGo4AWQoAak4qcdVCksOP6QmCanpbavQk2pbPhrabqMvmq72Rb3lGgQu1sCX3rYrtWuVcBXKTFShwFjakT2qo2zvQCw9vInIsxsd2YCUmiQ77O3m0w+tQ4EeKvzU2x35xtJ+DKG6nqSC+3RfqOeIXeCL+st90WyNr9IY2pHedddtoq41GHyYgDzsiREyzEwxgAMVmhdPrdUqd5Rr/z3mzGIhn+mEzH21oafBbDhDhjtHdryhoVcrapvAfMjlY4LxGcH4imB7J4CkfCQICSZDrIgL7UAX2oNuVMVuZEABoAjBGOdE5qxOkW0yYQLBGk9wxjOu7Isl+OIo0dVhjHSC+Y0rzC9cswFJkD8iG9Pjz7pNtU51bT4XCBudGtthLbBXDd1mFZ4v9MPzvWOQbnyPZXefod/OM7ifkqHkoZ7Mp2OeCjzs7CjZbQeKgqK/kv8p/CmOsK6dQOygFBGyVYKy5H3IOLBIF2McWZA2pO4SgXeGLHqSavkQGfww03kQeplM1biLzLmXlesw1flRWGRGDRzHy9T9aDOnISr0yIspl1ohnA6oMKTIBDqpo4UhD/rS2/al2iYp7VChy2YftF3vrbRNi1lXY5E0/4i554uqYT70tulpj/XGrwM9lF6bblOGKjmjWMEGs11lE5KK/ZjBjOu7Jgxft6qM3wZ5ocB4DYrREK0y2QeevKDfHKrrxb50633QYi1vzJrQiTWi504/pT2q/14vOjTuGHdKwxoUiHFH/TD5bBAirjWBakIR+PTIje1LA6HfR4dkb03a07QHcwB5zQ5Is6jt+1TFj8iQVNuGl2QkMqTxPQH5noD66Kwwm4g+hoAiKA3xdnAK2EwEpUmWirjDSCCKKEAkCA0CRhGC0fTeWQGj9bUnrLyP6amAkfe4z/V7tFdvBkB3ngx+JgCmo/S09wfBursGktf549782nh5bBbi0qMw5vAFeqN38CJTTHRigOjQM4dZ4Zmz/yQg5Vj2qbJuZ0YBo3wSRWD56ZDSdKJ8EUEBI4WOFpDAfU9hM1ymnGSh03mhZ21Q+rHlrUeCz7qPImM3qbb1VN/SHCTsiVuYeWwCSrT5Df121KTabojQs4EEpJosSbVNW3IkQTmEoOy314dOrQ/tSF+lTbrVehUar1Sj9hIVnWA1PKldnab6oCKxVISYyj3UCw51SqDJePoSTLi98ipetmScvAlow53YlwgI6QiHZmWQa6g38o/1QWki2jHcB94zfRHAC9clIJus8uENfdB+sy8TICM/tBi4R1rvVRhx1AdjaWNMOOlPA5je9cXa9K7roXrP3Gg/vDIurGmEjLW1aBsEwHyENt5p2npnqRYvEYDXubxNh+IeGZJq2yDe9nMKAaN/5057zw3GjwRaFNXtRwIwiqCKIUsKW3JpoBo3UiUbqZo/C7fjyKxKHAKYQDZHucEU6U5HxoOODM0DmgamZ7zfU7LxI4Kf3r6FJoTlMtNxnpXiDO3SEzVgOFAP6dsb4N2Kerg8uxmeHFuBqJQEDNl1FhHXI/FBOpQlEAsKOARAsvIJUSL/yyCXzDlVrqfQh2J1/R0glR8lPvfLm35mMSAISHrZVgO9bHkFgmC0mk6RLem8GOQdbnFsDsIiM2roZdS5NAXRxjTs4aVu49C9VXDtXRoBk6si/GpnhNLbnkhATqSpNf6kH8YQlMOoGQew7Pvu8SU5qdBpi4osqUaz1cSLYkdq4DNbDedp3qhMQJagT5J3uDe+aVoemmEtceXDExIin4wZptiQ9kcENlzcjwp9auDbDlWQd4Q3Co33RkU6M9WJbOkGko+k119qtw9ab/CluqYzQ5ruS3YcRECOOhyg2I6jjvgy0RrajjURcrk++mz1hmenHzE22AUP1jRBxlJ/YLMWFhrEZtojpjNS8ATkFYLnBp0ZgtJ4nwB5yG2CxEj20hM8AkphSdMHuwg4zdEEVgyBGM190QRTFAH0kdeKotABMsQQzNn2oiGK4JVzqP7Nb+nA0IO3vGSFoL2qf0xniWaCjk6N4T6Z+pof9Bf8kXYhCDEn6+D94Wb4eLQnEk+PQeLZqfh4YQVSP9zD47gE9NhwGOtepSNRAGNiTso8SH8HxBz5XwYFYNmioO5vASm7paNDet/IK0ocGWhtU3bQsbIkQGd8Bp3uCvSZVNeG83QgbnF5g2x4ncC9TDV9gfbbWarq47DpjjL9xxj/IM2OS3gYdxBtp9VCuZ6F6G13Z5k2UlS2MOR4ks64E/4YSU0oE+v3pznTm6bbp67ENSpFbQfRjlRRbbtG+KAqya0kGTL/CC/82L4KqvSphbWXDkDmKpeBPg7ymqs8VCZ/w3YsQuHO3vihmxPyj/RCKdqOlemuO0+jQzPbFzUWqNFgmYr2owptNrImKCN7CEi6/QP2aWjg+tP7YiLp1Ew8pULopZoIvtYcDWeVR1CHH7AgxAUvl9eDXgC5yZ8Ogj/MRzWwUMWb6TSYLhOM171hvmVnSaX55Qn3veCStqTxDQH3jqwWSXlPVfzBnWxHj5xi/OgB00euE2zGDzwWRSFYBaiK3Smsyvii+i302C2vfaiq1VTVNA94DwGkjoBMf+CNtDsE4pV6SLzUGh+v90Xs0wikxO1FZtptGHQvYDJ+gMGcpDgvlxOS0H7NduyKy0QS81FxWOhc2Ku4oogo/2SQS3y6jB2QdlCKFclD/BH8K0ul4Z1qnetmet2ZpgSkmd8jzRaJNHwEqw3iLXF4mfAMr6If4kPCI8RlPkOa8TE97DtkRunVuUi1Lo39N5FiuYbJ2/qjaJs/MORIB4Rdaqa8xx0iDHnCTxksI4BUem1knCQBKVrT3vyjQaOVGtRa6gcNtavHTG+Smy9KT/BEYeLr9+4uKNDRG+O3LpDhIAoOFZUt6lp29FsYgl9aVMUvvV1QcJS34hFVpCHqQodGRfvRPphCjeZr1Wi7yT4WTii67z4VBhzU0MDVYuxhJpYsOeGED0Iu1caEW53hMbIQWnfNjf3TVHg33w+Zcz0AXgN7AmAlq1qO0X48RbV5kSC8RhV6k+t3KGQqo9iSVKfmFwQmQWkmKM10ckRMBKaF3rf5PcEaaQeiAko6PyYC0Ugg2kXYlAB9z2u884HlDa/3kstXvsp19WRF/WM1wahBwi0t4m42RuzdAVTzq2iGXSDwnuBu7D1sv3oOs3bsQPi69ZjNZcSOnRixYQNazluCI/EpCiDlG4DKN6VtOqUd8F8fpNgE6Nlg578iVHc2sRsVZiZcuSqf6EizZtDjN+FFWhQ2XTqORQf38Tmu4FrkOzxPikdkehISTOnIsKaQoaLJtq9gkP5v80OYLfd5pYfYfHk2AVkA7Tc0ICCbY8qFmtSA/gogxx73xwiaXvZuRGFIdXavjZpmnRqNV9GOXKqFH8lM3rdxnuaD8hO9UHy0N/4Y4InvWzuiRcQwpPJO8kQKIJVObkrLSf3xVb1SyDfYWxkuVDbEF1WmSP+1Cpp5GtqPfmiyQoMWRH5beppdCMjeu9QEpBqDDpMhZTQIa0sIEyqf9Z10uTGGnOuEij3zYNiIsri3ohbez3BDQlhFGBe7w7qVTHmAjsJh2pLHCDyypPES5Rptthu+MNymUHUbH1HIYkbak2aC0iKgfE3QvXUn29kZ00R1buTSKM1DwpICwCiq+I8CRqptHtO/5XWops2vCMznPP6cx5+5IYvsmPEgEMm3aiPhZgukvwyFIeM8Es3vsOf6MUzeuhLT9mzD8jOnse7seWw9exF7r9zAnhs3sPvWTRx4+BjPsvTKEDMxI5UJOhWrSFjysyf8V/J/Gz7Hl99sy1FWBX+KCCDtrCx/4uWLSyNjyfdfuYAZW9ZjxfEj2H/rFm6+eYf3GelItZroUJiVz0nLOfLujhVxZNZoqv8oet8yDc47nHu2HZX6lYPPlCoIPtsI0y7WwaQzgYrKVgApDEkyEi0pKlt6bcTZbbVBg8arNai9TAP/hWp4ywtg07xQhSRXapwP/hhCx6ZtNdQI7Yl45pUdkEy41OOPpgzUGtsZDg3sgCxKh6ZSKO3HaWq40370W6BFParapiv9eCMtOvCGUhP6MgH9adAOlNcUjqkxlmwXzOXk0zLBaGs0XV8bpTr8htnT3BC5vhaiplVBfGgZsmR1GNaQJXcHEZTST6yFkXaJ8RzBeIl2HUGpJ1Ma7pIpH3CZDUrLc2+qWWE4cUg8YBVQEozmt7Qhqc4N72hvvvWGjoype++OrEg36Lg/izaojufpKcYX9KIJRPMzsudTN4LRF0m3ayKO5kXao7GsoecRrYvHvCNnMHLrbkw5zIK8fx/P0lKp9uzlL5DI5igl6MlG9m4wOyBtMoiWS4khcf6R/N+Ev4+fvfUJjLLJHxtVOVlZ/G8hGJnm6+qrF1hz7BD2XL6E10nJSholugJbsrgyxzvPs4oBynOtPEt5wYzMarPIvEsJuBd7FrVn1EKJ/nkw8lhdTCUgJ5+Vd6PEZ6CnzbIbpgy28KP5pqXW1KLzVi3abtTQ36Bjs1yLgEVaeM/1hQvtyCrhVNvBYkf6wKF9VXiObYfHGbEKDpUJS2XlcvwLeI1qha9bVETeIWTIMd6oSkC6EpBeAshFGtThhaX/WpAvNUBqQt899LDkjTS6/8OPqjDuKD0wquzws3Ux8UI7eEV4oETrX7B6jicS12qRPKsSEqaURfKMKshc4gkDE419NYGD/goozaf8YLlID/yqP/TXVNCLPXmf7PnA7uRYnvjC+lQFK9W4jerWSrazviJjviJjviZTkkENL32RSc88/Y0zMt45E4wuyOJxA+1GPVnW9Ixs+5ggfkKVT5Bn3fMlGAMQc6MbLPHboTe8xKajBxGx7QDOvotBLPNHugNzBteKhSjvwUh7o1mx1+hesEDFulO4i9s2+cae0tzz7wCkBG7Jjk+AlA2pCPa5IYxMWyodmxvPnuJVQsKnCqRnPINFGuyNdHhkdltCl2BWepG4VJ5C0i2N7NKOSYC+0T1B7/X9UbD9bxi4p7b9PfozNWmWURsSlOOO+dFcUyssOZCg7LPLH922aNBhvQqtqLIbLtMicJE/fOYHoPosfzrKKtqRvig8Wk1AVkGFgQ1w/v1jpYfLQR5GMnn/y2uoNqwxvm5XmQ4NXXP5OOZEX7hNVdl7aIjwWlTXDWn7tdqgRieq7B47fNGHrn5/AnIQVfSI4yqMJztOOiHzWzfA+LPtUXW8Iyp1yIcd832QuYYAXFAFSRHlER1WBslzqkO30gu27VTd+wJhOxJEe9KfXncATJcCYLhKprxBRrtDkX7ue1TZD1WwPCKIRZ5qFHCaCTAzVbCJKthEBjU9V5MNvZH62lUBpe4VQfmcSx7XP6U6f0y1fp/Xus+4d1XIuqVG3JUgxD8eC0PmTVy/eQabdu/Au0T5liIVGcs6kyIVVwZLSFOO9L2aWWjyBSt7T4ys081QCtce588Q+rcEuUWOfF5h2mzIMhhgoNevDHvLFiPTpQy8EPZWJomQpf00SbFicsgKnV2bWRhTR9WegjmnlqJA0zzouj4I4ZebIexcbZpm/gg9FYhgEslwaSA/JGqbduQONXptpXNDQHZYRZZc5ocaiwPgvSAI1efWQMVpWvtAi9EqfNWhKsr0rYn9T68q2sdBEiMu9/rbx1FhSH1806kq8tGhKUlAyltjHgSkeraaCNei9kotGq0jIOnSdyYge273UdqepMtwCG3IUQSj2I4TZGL1Cw0x8kQrlB9UGgEDKuDEkgB611STcyshc3ZFArIEoqeWhW4pmWotWW4HQXm4FsxH/KGj2tfTkzNdCYDxOr1get6mm1TXdHQsd8iOdwnE+1pYHpJRH9HmlP7nJwTaEwLyCRnwMfc9UxOEZEruN1EtGx4R/A+caY8y3j0y4x2C+DbBSNMg6ZIfYq80QXrkYiQlPcWRkycQFS/vQEu5CNtkt/dJoYnRLRzEgswRYUe7EJDZoPxyIMX/W0GZ9VhJr+CN7K2A0d6srlQYOSbokyhfAlKSrTysKH+dot4PPD+OIk0LoNE8LwSfb46wy/UVxyaYKls6QGQ42kAypIxn6Emi6k7/ovtGLdqRIZuSyMSx8ZjjQ0BqUHWGDNjxJkP64vsu1VGsuz9WnN+HZCaCKlt6aWyYdXwzSvYLwo/dnZGfEcuE0H4MV8OTKls9R4MgOjR1aD82JkO2pprtQi+qF2/cf7cKQ/czQQdoTxzWYiJVbsgZJvRMLQw51AjlexVD48GOODbXHylzyFQzKkBHlkyeXR4fwoshcVZFZBGohjVkrF0amGmLGGgs62VA7HktmZI25WU6IlepqglO63Uy5E01LLfpmd9VK/al/iG9ZALN8IiOCsX0gKB8wPPuByo9LlYyq40gtD4iM3LdcNMHOl4v45IWaVfqIOZ8I0Rd7QNDzB7oMqMRlZBClWxXcQJGYUUBpn0yrmwVLQ6EqDaFbWTfZ2FxKyKx/zsC06NgTzxZ+3A4pbIoPTqfASmVTtwi5Tl5zEaVbbXRlqRuOPbyOMq0KQF1SGWMPdcak640xLiT1Ii0+4NP1cTww/7ot5/m2+EA9KZz03GLt33A7moVGq3wQp1lXvCZ6wL3uZ5wopNcJoR+yhgVfunphkKdVJi8fRmSmBCl61C+fTBy4xwU6OqLn3u5ogABWXaiBs5TNPCcbmfIoCW0IVdp0ZgedhsCsispufdO2o509Yft98eYg0GYcDQAoWTI0DN+mHCmLsFaD2U7F0RbXu/46ub4sNwfUfOcEb2wOuIXOyF6TkWCsgwSZlRF1jICarMPLPvIfLyOgTVPf4pOzhm7oyNDwGxXaGdSjZuvEag3qc7vkD1p/+moenUEoeEB2fAh2U8ASVVsvBNINg2A5YYnbLe9yKp+yLzhj9QrjZFyvRMdmQFIfjQeyY9nIO31ZljS7sFszlCabpS3+FiKAkqloGQomQxYEKgJIMmIwo5fAjInyNrnrf98+DI9slTsWwJPsCeqXCqYMLjSkq50Mdrjy3Mqzyv7qdIt1iw+czL36HHx7Tm49agK7zEVsgFZl6TjiwknqRVpoo0+KpMJ+GEgSanHPh903OGNjtvFAZaB3B6ot8KTatsLvnO96Cjb+7SLjVPjtz7uyNfBC0NXRkifkh2QMh9Ct3nj8VtbVwLShQwpL3SpFIb0EkAKQxKQ9aiym9AuaLNJTUCqFEAO2KuhMetPyg5CCG2JsMNemH4miCq7KTqt8UPJNnkx7+AYJCdsROajEEQeboenG2rgLZk2aa0GMbOdEDmxHFJn0+teRc95izAlHZkDZEWC0nTSD/qT9MCpwi0XyHiX/ZX3XAw3tdCRJXVU4Xp5/4V2pplq2EIGtNwXtUwn6B7Pv0MmveZO1e9NNgxE6q1OSH80BaZYGeFyi6B6QYli/jPjWQDyPRXlxSMWkEgO0+UUsmIfijqTnYpa+1z4OUGJb1/9j4Uv0/B36clJO3eLOhbg2WMQlAJMEa6LKrc3t0sM4Uo9QZnErRTcibqKoMHeqNw9H9mwIULO1cD44x4scx+MlxFeVNXDpPmP670PeKPrHm+03eqFFhu90WitMKQHAqnu1TNktjxflCcgixKQv/fzwB/tPdB30WTE886fANl6+hD82MoRv/ZxUwBZdpKaDElXPUKttEHWpGHaYLU/mq/XKI3iOYDsL99j3i+d7P6YKK9LHvLEFHpd0y+2QvtlahRq8is2XJ/HO1zgM++FRbcR5ph5BMggmA62gGV7PSTPdcOHSaWRSHWeuaQaTOvdYKM5IINhLUeDYDoeBKMIDWjTebInbb6sq1pkUoWL6GToWrY6l54eIxnReMuboCVLXpeBG2TQy4GIvdAShndzYTNcZSF8ZKGkMgsMZEULTHoWEf+tNumSk6YQMoSiqqWAWJiSUQwCxk+AzJE/hX+w+78mfE6fHYg5YrSaqBn4/FYjwSvNVlkwGePIqAm4H30NjYbXglPHkhi5ox2mHm+DyQfqInw/bcmddTFmU02M2FoLg3cEos8O2pF7aD9u8VEA2Yw+R93lPgic4w3/WTKrhbzS4KO8ifh7f0/kae+O7nODEU9tkw1IC1pMHYjvW1fDb/3dUXAsKTVUTSRr4DtTC+18AaSGgNSi+QYN2m2mDbmd3tQuXwxizZAuw9Gk6uAjvgg77qO8Nhl+tiWaz/FE0ca/49CTjcyAu2QkmfxIRpLsgfnVVGTtbQbr7gawbq8F/RIXxFJ9J0aUQ9biqrCslYZzquq9AcrHiyxHasIs4DwVAN1ZP6RfVCP9sop2oAo62plmGdVNMZ0nY0q/OPebL1Iu0Hm5rEbaxcZIvB8Gs+460xJF4MkL9XplejiZ0F8hCv7ZpyexvwmTU1CKBy021Z+BmCN/Cv9g9388fGbGv03N5/R9BqM8ubgwRjKjNAnByjwwpcGoi0OWMQbRule4+PIszr86h2dpD/E68xpeZ5yjnMWTlMO48HYjNl2OwKTt3dFnVW303FgTXTb7o+U6X6psH9RZ6ougeSQ34sltmkZp4y4WTEAO8kbuDu7oEDECsawMCiAzsgH5QxtHItZDAWTZSSo4T1XDd7YGfvNU9JI0aEhAtqBNIIDsukODPrvtgzPlDbQxRzQYf8wHk075YsqFegg92wb1p7rQM/sNh55v4mPeJwsdg3xUCMZd0D2cgGSyo2VXTWBPILDDD6kLnBE7pSylFNLnV4ZpNe1BsrF1RxCwvw5sh2oTmIG0L/2RSfsy4ww9aYr+NO1KblulDZOen+lcAMzn/GGm0W05TQY9rUXsmXbQv9/Fwonh0+rotGQpbKB851lhBfGWBYSiqgSUinlvF7ETxSvIKUlhScUZ4IbIn0JOtP90+Cvw/VX4nL7s56PYASl/fFapjGRJqzGdkszKKA3qycwV8bgld8TWlI+mSs+OvOqbiCxbNJJ0b8mk57D8dDj6r2yGTstl4rFANFvlj7rET9ACLdSz/OEqo8c/AdILv7dzRYvQAYgmK38CZJOwfgpDyuy4hcZ606nxUUaJy5QYOYBsRKem5frPgJRh64P3yTB2NUaK+08HZPxZGVTRABPOtUfQZCcUb5UHh15s5EPcUV4kko9UWlLXIOVCL6RsD4Jlt5aa3Ac2euqWbTXobfshPqIiYsJL0CuvBD2NYdMaMuB6P2A7gSv937RZDUfo0BzXQE9WttBEkEZ1m4xZPE6VfkLASIdG1DxZNfFAEN4e7Q5T8hU+rUx0JBkvEzeJSJeVfI9PejnEwGcBCdh45MsC48HPJSnyJVv+KfyD3f81QTSB/H1OqX0722Wz75NKaCH05AOqNtGhYtiJ5sgxY8Rfl4or8FRaaCnyXd8MxGW+xsmn2zFgRSu0XRiIFssCUX+pFjUWBdCpCYDzdA0qTlYRkCrkGeqLX9u6oEFwL0SzEnwCZMPJffFdm2rIM9gThcfQhpzorYzy8ZZemvkyGakGTVb7EZAatN+izWZIFYaQIYcd0WIEVekYetdjyFYhlxpi3PlOUE9yRPHWeXH0xSYmVEaSHGCadyPjzTTEHW5OlV0Dxn10TA6okElAZtArt+xpBsuWmmRIeuGTSyFmanmkzHaGfhG9ZFK/lQayjbaJZbc3bUyyIu1XHBIG9Yd1nx/MBKuA0HCsNtIP1UfMngaIPkRH5sFiaqHXzEBmu8Ik4kkyI5XuMulus+/nwp63Ui488g8B+aX8KfyD3f8lQaBnZ8SckJPenCqobCiPzR8LKyrVt0V5R4iAVNQ5M0mxcUQYWUSpoJKv9gzUIQlnX+zFiPVd0WJ+IOotVCvdhz7z/eFCtV0h1Jc2pC/+GKbCL22cUXds98+AFPw3ntyPgHS0A1KcmhA7IH3nyAvfZEg6KE2l21AAuVWLLjuzAUlAicoerbxETsfmuB8m014bfb4DvCdWRfGWeXHqxRY+410+H9V1+jpkXR+KpF0NCMjaSN4dgOh9gYg70QSZV3ojentjJJCJMxe7I2VWVcRMKYfo0HJICK+MjFmOMMx3hHGpE5nUBfoNbrBsJrtu0QBb/GDbpqGTROak+o/ZWgeRB7oh7d48ZL1nRdA/45PK7GDM3BxVq2SsANI+3ZOifSU/pWSUIKUiO0X+vx5ynkNBWrbYw5dHlCf9FI0rAkqliUuaulhpLfaOAPuxnHif48uII+m5kkw00Ds/9nInOi2qj3pzfOC/UAUP4qk6HeWKk+jUjCMgyZA/ta6OWqO64oNV/1eA9PprQC4lIFfaAdn2z4Aku42lYzP5WCCmnKCcF0C2h8+kKijVMh/OvNjKO9zgcx6G6d0cJB3ogNgt9ZBE9so40wEpN/si89VEWGPn4t3+dngyszqipa97oQsy51dHckQVxIVVRPzkckgKpzc+rRQSZ5dH6sIqdIbcoSd49cu8aHP6wLTKG8lcj9zQCkl3V7CyyogVeUIDDHxgnYxs+ZSZdpYU1hQM2nsoKLJUwt9s/H885Dzcl2IPciRHlPBXUaUrUQBHUSYlYyQlG3lMIUhlD4Eo4GVcma9HKnqcNRLB2/uhwSx540AFzzka5f3+SpN9UYI25B9DVfiZgKw5qgveW3V2QNLfRKPwfvhWUdleKDKGNqQAkjakDD3XzpM3DdXKBOct16nRlozUeYeMfbMDcjjV5OgjAQghGENpu4Wdb4jxF9oiILwayjTPh1PPNyuA1GVsw7srI/F6f3skX+iHzIdjgei5CmvCtJMsthWZD0LwZrkfPkRUQurcqsiYV00BZcZcF6QRpMkCyKmlETe9NG3N8oifVhlxU6ogNqIaYmZUw8ep1fBqqjtiD42hufiEmZSmqBEz7cJMswEyzadCgsxERUULS0rNZ87KplIYIkr4m43/Zfh/et6/K0h6ctD1t8+Vs/V5D0POjpxTskXZxZ9PgKRIXkqu5kw0qADSoHRQIsOWjD0P16HtonrQRPjAZx6dGqrsKsorsRoCUq3YkHXH9cDHHJWdzos1njpAAWTugZ4oSkCWIyDl1QXv2aq/BGSnnWr0UpwaUdkBGHE8EKNO+mM8vdzQi/Ux8XwL1CU4yjTJjZPPNvEu95AStx5v705E/PMpvKl8b3o7E78Xyscm5TMZ1oNA8lpEbWuM9wRk8qyKSJ1dAamzqK7n0o6c7wIjVbZ+fjUeq6A4P3FTKyNxhiuSFnoiap47XtCzf7OgAdLvEOQyGpAgtJjFYZEeihxXxm4mSmbaq7eoIFHfSs7a5Z8KcmG5iCz/OwK5jX8Ckf9lmiR6zuNkA1K0Sc5u+7ZcWTSNffSQqHeJK92temqn14b76L28PbwmelDj+sN9ZgCqTtYogMw72Be/0ctuTC87iudlOzVWNJs+BN+0dkTu/p7K7ALlBZBTZKYzmctHAKlSACmjgNtu1aDjLg1679EogBx2yA/D6OWKpz3hTAAmX6qLSecao9HMqijW5FccebaBd7iDjPSdMGdt4R33EYB7YDHsIQ4OsjbJ1B4HSf+0MU27EUuV/jbcPod3xuyKSJ9RAWkRlZE5qxr0c6oik9532pzKyFroioz5XkhZ4IOM9YHQ7WmE+M2NkH58FBB3ATZTuuIwW5U2RIJSUc32ho2cTFUCM06cHDtjyrZ99/8+5BSRyP/5Qsr9/kPBDkj73z8OOWnPkS9C9i5ZfHqy7ChyTclXAaU0qsvH2uWYvB4jrRhpiMXwNf3o5PpCNcsfbtP9UGWSGiVkir6B3vi9gxtaTR+OKJZBtg1pQ8sZw/FtayelK6foKAJygs+fAPmZIdsQkB0UhhRAytAjP4w8rFEG506SNw3P1UTohQZovcwVBVv8hM2Pl7HuUGXL91NMewhGOwDNMpOC+QiBKV/H3w+jMKV5H/QXBuLjDCfEUz1nRpRD+pQySJ9WEVlU2RkRFZTvDCYSkLGzHRE12w1vF/ogZkddJB1ricg9LZFwcSIZ+CZzTroCmTdSYy1Sc2WgHbnxT0woCztcuSbHsoEiv/838jnkXDRH/vZoThAg5sh/Kvx1erPDpwOf057Dpp/i/zmOrH/xiBLbzpTZh7giZpIANckWjyl7J6P29Nrwma6B6xQ1Kk+kly2TmA70Qq6OHug4Z1w2IHm2vKzUdtZIOjXV8VtfdxQZSZUtgAxXKYNzNVTZtZao0XiFBi3XEpBb1OiYrbIHkSVH0oYce8QfwcfIkMflFdgAhF1ujK6btMjX+hfMvTwVibYrTNoJmAg4o57saLTPLSNfLpXPWchn1eSzFTDsBm6Px8dZ7oiaUApZUysgM6wc0igZXE+ZXgmxZN4XZMtni3yQcqgLbM+mKF/4ir0+CHe3t8K7s8EwJ1zmU9GDJhbFEDdTdUu3oOJGK4aPkotK7smqvSlc1qR2U+yH/q/kc5AL5giPfBlJdmUHBYyyU6kt2Tu/DDnnfF78C4Nc8ct0MmTfz14/JGXiouTAKzvIQSWC5E12HsphyTLlvJxNqdhiHkmeWpFmyaD3HIUJ2ycgcLI/NDPVcJ+uQoWJ3gogfx/ghbydvNB9wUTE5ABSz8v0XjYRv3Z0x299PFBklAplJqhQlYD0mKW2T78nDeMrNcqMFa03qdBhmxo96GkP2qull63FGDLk+OMy8kOFCafp3Fxqiu7bayJfuzwYsWsIoozneaszBMZ+1p79TLlM4XFYYUmZLcFqJVPKBO1GAvJBGN7Rdo0cXwnpodWQPpFgDC2LFIIyMrQ8nsxwwdOtTWB4Ph3WTHmfmEAmw6ZFLsaDY4Px4OhYpL07zRyikc1ckrwzUH3IAFXF1FYyl7mniPzk1O/szFbkXxCksCiCbytLSJrtlCZlsVflfibyslnZ+Sk5SnqyXVfZ/qK8Gbj/74RHJcL/jTC64ryx6skLaOIF54BO0qa8gcp4EsNME8dCsZ/EtCpplrhyzhdaRqJkJ1KuLc8mvV8y8USyWYeHSS/x1PgW/VYNgDrEC/4zfeAx3VsBZNFxvgogC3T2wZDl07JH+/AiWbxq+IGVKNxLi596uKDQaJUyKZDMxeI2Q6V8qStosQoNluUAUo1O2zTKuxMDdxOQB+xT/Y47pqLa9lamb550qQn67G3AmxVEtzU98DpDZtUiKGUOGfNusuM+lrt8y+8oQUqmlK9OWeSdYIL18Qy8meuPV6OpmsfRuRlXFkmhFfA6pDye84H0F0bAFEOnyHgcRsMlZGZc4jVv8NpXkPR2F6KfbIMh8QGvr1ewJXmnfGo5O+/sRSCBO/9m75fyTwa59JeX4y0UpiZlC1PrM1OhS0+jppAD9ugiOYCUSiOpEhgo+z8F2co5kpNu7pPdfyUKwngtmcNJMoFBgGYkWKQzQLSC0jGVHeyj3qXa2tsdc0bDy33srCnrsl9aJng9+Rd8CjCVTXu603mPF2kxuJn0BAffn0abhR2gCfOBeqYnnKe4ozwBWWSsCr/0cUPhLiSxjQuQyjNpQ8orPUasurEf5QbUwjcdqtpfYSAgq07RkiE19Ix8EbjIl4BUK+9ky4xnnbfLzKkaDKDaHrJXTVCqMZ42ZMgpNSac0tCGrE9HpxmK9ymJxnNb4GEC2Q/iaOyHhXakVabwEM9avipFkQ9PKh+H1NOxuT8Dr1gRXgwtieSxFRE/rgIejyqNp/TQDHcigKS9gO4cr3WXKvkdbZUYZloC8yyB14oi637kPZJ5feaSwkBSwFza8++T2H//VKD/0mC/vjCHAELGJMoekzELt65dRloK00vg2Qf+ZgcFQJJWO3dJ4X5KmxJNfv4CkH8R5JntCtQOHplmRUSyQiqGnja19FFJy4PATe4px8TOUcBIMXOH3ZyxmzVyNRmiZ1MQmN1tyHXlOzpMjqRILPX36ek4/+oh7me9xaTD01Eroj78ZmrgM8sbjlM8lGbFonRqfujpguLd/bDg8GY619nT8YnK3vHwDKoOrg+H1hWRZ5gXik0gIMM1BKQWPnNVCFisRv3lwpDZgNymRc8davTb9bm3Zhy9bJmxQiYJCL9YB8HnWqP80PJwGuKOS2/Eu77MWnqQid9P4MhHfciQZEdhRvn6qcVANSvTezyajTe0NZ4PLo6Y0WXxbFRZPJ6tQfrVyTR4Gcd4m/Ge8NwPfIR0ZiWzSjJfgKdkLf9EzSgNZBTF66NkF7QU35eihL/Z+FcEO1dIEUoBKrPMSYkxZKQkYsrkCXj7VhrtBVI5N+ZSEPFnQErISZ8SVX7kiLLxD4Kcb2+cVkbvML5el4X09EyljuooMjBbpjTVM/+kB8tqZrzsPJMeF0mvwF7i6JguAZrcVdSy1SbdiRlcl45ngzJ2VD7gIXE+pGXh8otnuJf2GgciT6Hd0s7wmx4AzVwt3Gd6E1fS8eKLIuO0+KarE8r0qYmdN04qrZgO0lEuNzz55jbchzeFQ8sKyDPCh4BUo8pkDdxnaOE9T6N8XFPmaZFp+NrIOzWKylaj7y4Z8eOH4UcC7Z//oA058aSM+AnC5Ett4BrihD9aF8HR+1SxuEnSIlPKV/VloiOC0GohIM2HWMmkyecUS4v24KO5eDlNi8cDS+HhoJJ4Qjs2814YkMn4+rtU82+Z3/KKZhozgqqH4JOMkryU0c72Giwb2TvNolMEkFKr7QX5+S+7WHNW5LzsOP9cEDiKUhRbjcCUikAxG424fPY0+vfqhhfPHysxBbb2NPCXz2IX+z4BpVxLkezFp/DFds6q/ZnkT5q3pEtUlDLTIPlkyUJkTBTuvn6LBDKavCprf5OSMa163lYAydTIcHnJKi7sDC55as9XC+OIyWGlfW62ZVHkk012sMqbmQ+j43Hm2RM8SH+HPW8OoOfGHmiwqA6CFvrDe443qkd4olKYN8qS8AqNUcGhQxVUHdQAF97cV8DvYGQC5J2aJ1lR8BvdBg6NyyD3MB+ilzbkJDVcp6rhOUcF7QIVastEpSvlmzQyjYqaDCnz+sicLrQlsycqDZG3Do97I5xMGXaxGeou1CJ3yz+w+fo8PvZtAlImN8pp9qHdaJXJ2OWLADL/NY/pCMgHs/FsagAu9SmFlwvrIv3hVB4nq+IWz3vHTEtl0sVhkbGMRmYGbTJmmKgXq4BORApXSpOizOggjytqRlE1si0H7YUu8vlHskXi2KHwzwQWoQIJpcIIUzMkx8QidPQojB06CNFRkco+cRPst+evAkZJ62co2tMi++S4ssMeZD17274qf5/VtAJIsqMdkDLxVBpSspJw++1LHLh+BSdu30a0QfRjzlPzLN7DzEosM1/IRGpyZ7mi8pYlNY2wo+SzTP+t5DmPCxAfR8fhzOOHuPTuJW7EP8Wm+5vRa31H1JunVoaeBSxRwXOuF5xn2X2TMjQJ88l72W0rwnN0KzxNkQHTAkgmQLrTUnjpRsHd4VCvBH4Z6IGCo71ReaIKLjzZnY6Emp62fSo+X2XQpXxCrrsy85kK8qmxQQf9MVwZpEtAHiUgaUvKm4c9djdF4Y75EL53KJLMVNnWc6ySZEgBpKhsq3xlSmbdkq+YCnsehokq+3yYBtdn1oD+6WzmlDDoKWbIA9ZQ2ooKsKg2yHwWZorUcAO3RUEpik6AyYdTGJNLBahK1lHEQM9WiTnZLUVpF+WsL/b9c8F+NRYwwajUCYZ3z1+ihqcXJo4cjuREeePbDn/lbkoyGPFTpclJRU7a/j5Nyimf/iTOp7vyV1SrvJTAHLImQmd8RVX9HimmWFx+fAOrDu3BskMHsf3KDVyLTcYbnplIkfej7W9k28Em6znvpQur5kxC8J477n1MwMUXL3H25QOce38d52PPYuPtxei1silazFej5Qp/NCAgA0lonrQfXWdK640apcapkFem5GtbCUGh3RFnkQojgOSPMKQsu04dhq/rl8XPBKTQaYVg+5uH8ikQNS8uH9lsvFKjMGSHTSplolKZpFIYcvDBQIyk2g4+QjvymC/CaEdOPlsbwRe7oFzvgug0uxGeJNE+xHXYDFTP0iBOp0aaepRvp5j2Ekdcp/f97tpEnFvVHDG3wxlPphsmaI0XiaXnxBKzgmCyd/JTGRJswgGKt/hFkQj8lBe1ZMk9xmw7iiVkL2sRhYWk8AXKwmfyZ7/GvyIIWJRbcUW5FcPz23dRvURJjOrXB0mJ8oXYPwOSEYUhs1Oh7P+7oERU5M9/yn6CWmmDpZ0nYqO7YLK+Q7ruJtL012jrPSG7ReFp9AtsuXAGs48dR9jR0wg9fBZhh45j4cmz2HnnAY69foOT7yNxMSYaV2PjcPHDB5x98wZnXr7E6VdvcfZ9LM5//IDjNPf2PSOwn6zCnHND0WdNILqs8EbnNRq0pN/RaIk/gubR9COOXKerUDlUhVJj1cgzyBMOrSqhflhfAt5eAR3sBWaXCWtm4I+2bvihjysKEpDlgzWoOlmlTMeroh1Za0n2h5LWyVTOBORWmTWVdqTMfiZ25CH5OLsfJlBth57wVXptpl6juz+hPNTDnHHi2Q7e5T7VrvTIHCFDHqINSVVNMMr3UmDlfv0efLgfgbgnc2BJ38nSFIfnJIwmAtn2nudTsbCscthP4T5hAUVNE04EqxSlHBe1owBC4lC9C2sozGg/kcL4VPnCSIrjobCsxLIX7b8iCP5F7Bu0oo8eg3vJEujToTXiY+R57JVHiSNpUpjbfsLntS+DPaK9q1Me5HPc7ENcyhWFz1L5iPHM57cwmG5DbzwDI/PSoDtHB+c6470nGSXiedZ77Lp9HnP3bkXYxtWYvGEN5u7bhcWnjmLZlbPY/vQO9r64h+0PLmL343OUk9hy7yDV8l7serUXm5+uRfjJ4ei7qQG6r1Wj+0YfdCVhtV3rg6bLVai/2A/+c8XD1thfX/j/dfcecFVd67eoyTkpJ8ZUNZbYOyIWpOy+6b0oCIqiiIqKiijSpQsq9t67sXes2LuxpMckpppE09VYaTLe+OZiG5NT7v++m/zefWfpx1p77bX3XmvOMcc3vllzDWiSqkedoY54vn93DFucT/zx5vk4tWSSAA2Q1VheugFthrjjiWg71E82oFWmSU3n3GWiQfX6cZ/NSJv0K6s19V5NHalmr2CkvcOKkXTZCbvMSNltQaas+srAJu+IFUUnQzFgCb9rQAPMPz6LcPqATLdfacgKasfqh9SMsuq+mLjs+9zfJnBlFlfp0Fu2FxXlR3G/8iIeVH7FBJW5ZzTmE2bXhnPSZD5EqVBToGRmKbDxImof1WQoWkoBT8tAqYYpL6Mrk9kZCGaZk1vcv3ClsK121Z+w2UAiW3klDq5fB8emjdDLxw3Xrn6mTttgJThSGLO9pilC5z0/mhVD7u0xBpVN1QfKS/ms+rw8703at5TTH6H8/jk8eFDKQr2Lac80Fo9ztxSVt4+g4t4plD18hx+Te6E+xzf4tfxjfPbT23jr2/dQ+sVbWHluFxadWIndn29D6bfrUPrdMmy8MhXTTo5C0rZQDH3DA8M3eRAHnmqtIqmjlukaw1boEci8FyIzk9BkFuauhUa0yzGicbIe/xjggFYjfYiLrYoExFXUEj0gmSsPf+zDc3AcFawi7fpJRHGKnmiWBRQNcCW61Qy6dNuh/BHRkX3X6tWEU3FbzRi+zYRE1Q1NlpOzqBYbmUdw8skAZOwOxOt9X8SYLWNYHi8x86kHH+wkhkoY5BCUAj6ypQJk2U5G0tuZkBLoyLoqAt6jvPYibj/4CN/++AVu3JeaU03LCLBUJogCV6AUBiUbquBG6v4YBVZolcBymbjx2/fL8MPPv+D2HXH/NWAknQpWxXULLCU9/o839YUsNHKPPK6ueIDDW9ahe4vGMHdqi6+ufPDoMnUpb1Ak7qPX/CMQLK8oJ5YZfFRJTinEoYzByPfffYfbt27z3nlVpXyYpubq+Zmvv6BOpzcqO8O0PKLJoyqthQxSoyH1vfeY5vdkSZDDKKs8zt85hgruKypOkgAuEB/XcfLLk+g5vgd80/SYenQ08vdFInOXL5IJvpQSL+a3F+WaG+JlaZCtJgzcbEQ0pVxvMmQPsqX/IrM2Yel0I9lRB4cJerTM1KHhWAIyyh5dEkOx8/IZZh/Th3nIoEYBkwlQjR8e/IKoaYl4IrwtXhrpjEZEcetsIzpJm/YUAlJNyWei25aFFg2IYikYuMHMUiGTTskqoZqOTN1nVc2I+UcsKCIop5wOR/sR9RE4NRBv36Cbrj6JsgeyAoCsTsqIW1hREkmmE1bBzm6UM7iplBVLy/YxmC5l4p5W2uebW1dwiQL6+o0bLNkqb7QMlHq+cjJeOUM0CXYISDX3DjNUnk+E+c2ycly7eQ+fXr2Ob69fw4OymwQu5Trd9kNmqgIOP6EFQP/nm4ruVYsGCwmBL8754rH9sH/9VTjQ3jy0h2VGgFSDJYJXq//jvdAq+RzC3hUVIvjl83JNGT7/7DMcOrgfe3btxBfUc0w0vv0rf+sXftE17j9hul0gM7IgP5CGB6leY1oLO8rIT1kwSXT8A80LVZSX4m7lIdwp34tyCTKrDzCtS5kSH2Ldqflo3/s1BE3piNyTPZFzzAuZh0g8B6xI3u9J88aY3R6MI6xqau9BG40YsN6IqNUm9FxmJiCtcJ9rUSt6dS5ioFygR9MMV7w22hV/D20DS3IULt/6lnnFZ75fhVqS9GIyzFO2/K3zUSdaJgzohoapJjQfb4B9gRHOxWbqADO855oRtFirIO+9Wn7cpNq041Wk7UaWlHleZKpfbbb+fLruKWdC4TutK1oOaYKVpybxV95FRfUhajwCTliRIJTIGw9k4nUmHBPlwUNZxGc/KgjIqgdS/yg68jzuVX+BT7//CCVHD+Gjaz/gu/tUQQSkjellb3smiQx/phv//kEZvvj1Di59fhUXPvkYN+7+wuf9lSxzjd//PTOZnxISUwAXCP8ZgORNCZvRvVaR3SqlGZPb119chmvHVmj/Wh3kJQ3HjR+/VecVU1fe531J0ZEnkfErZSyUWpxb/fAObt74DntKNiG6dyiyM8bh66sfEbAE60MGR9SJoHt+WPEWC+UZpplM0cyCzPSTIFKWJ64SzS7ummkJpqnS7WrdmgMMcmR1Bsoj6Ykl/Q1wkGl3Cikr49Ci3/NIPeyPrFMeyDysR9YRo+pmmFrqTjBSqjF+GCGLuhOQsQRkv3WMrleRuJZaoE1WalEtfrKScNs8VzQlphqMMeAJ32bokRmn8kxSS5K9lsBQFoTUzoB6YSdaJ3jjqZhODGxMqpt5h1wjnCaaYeCXus8iSy7kjy3XJqSUqXtlwNdQMuSIHSYk0JL3anONyzQbaljscR8yqB8ayIOtGYBfq8/i7sOjLI37GbBIqSUzKkCy1EoCPiylXtyv1t6rrNjPRJRqn92ovH+ICU4wkwXev/YJ5u3eiTmHT6Dk6o949+49fFFejm/ptq+XV+Br6sP3b5cxKvwB2y9SC73/Aa78fB0/l19HWfWXuHvvHdy/9x4z9Ftm/D2CQauakfq2PxWQol9Fo4ov5us7t39BcV46HJrWhWPLBrhw6kDNdTcJmu8J3O/50Z946geel/nAHlDr/oijBzZiYFQgundqirXLp+HWzW+YTmTDh5/x698ms57n5+luyXaVUoDL+b0VpQRdKQF5gO/JGjU0nntYJgu7y3sEXiUBSQKokPpgWTdbemFJnwJcwLHP1sKU4oKuKc0w6e1I5J6wIF9IhmSTtV8mp5W6ZzNjB3HXlG+b9NSPekS8oUMIJZ2sne2+wAj9bBO6TKH8kxaaHB0apelQe4gDGvZzQsHa2Sq1hQuEEGoJFqUiVNJPTp7+4TKshQOpI9vgZQY2jTIMaEe37TjBDF2xCdaZBvgysAkhHfdaaaaO1FZvGszSES8LbzKwSd5DSufNSmcLWUJCZlvNPhWBLuMawS25I459vJwO6CLuEXAVZbIygIBSXLa4E+k9vo9suEeVXElETU/SvVDzPLzLRC97H3eqf1Crjs07cQx9p01Hv8kTMWnbJqw+fgxL9h/A7O27sLT0OPZ/+Aku3/wF3z24iRtV35J3rrAgnKe7ZoEoO8vv/4QZcIOJQR2m0uBPctmSukoQiruu4rNQOvA3JKGvffMFfPVd0eaVpzCqXyA+//A4z3/HyPdDVUgq7zPwe/CJOnfn9peYWTwOOoeGaNvob9i4spDXkQ1l/cKyi0ybc0yPwyy4BKJIHLWOoeZppLpMOqCg4iBvg56mUvqf0oWr13Tb0nxLXVlRJTKJ10tXQKZxFd9/yPyZsTcNjfu/huAFerWS74RTbihioJpPMI7fY0Tabj2SdhnIkNIV0YDYTQx0qR/DGfAGM6DxWaSHdZ4ersRM58k6tCtwRctsPV5L0eGJXs1hyeqNt777WIkRmU9JakVqSauaSiciU+r0vqf7ilmdo5YG+UeiE+pL73FSbNd8mVbFVLNWjQmBS40Ik6md11DEkqJja9x2IgGZtFtAKcvLycxYND7EhPMRCJ7dGfWD/oaidSOZLZdx7yGDGwGhTT+KS5GVpegy1Hp8PC8lW9hRAVJc+v39eHDvKO5VvY3b+BLf3vsGb331CQ6/fxY7z+1HyblSnLx8Ae9/+wmu/vwNbj24zkDmGz7sRyhj5t0vO4Qy/mYVWbiMGfng/nkC5jrxc4+/ycBBqoEISNHU/282+Zz6rOxVkKUFSKJ379HEI5WX3cfudSvg1bkl7Oo/hZl5sbj50yl+5EOCjAL/ziledRm/3ryEopyBcGhTGw4tnsSGJclMj0t8720ClgXqHgu0aESCUWltakMBmjJJVwkURTcScKpxQTwNz1VLv1MJbqrossmQ0q9AMaMEOQyAUM30u/oGgjOc0WxQXYwtDUPhaV/kHTUih3kq7ChzQ0pTsSzAOYoBTRzzX2bE67eWnpO4CF1mgN8CA9znyIKtUlOjU13OmmfqUTfJFbVCmiBs2kjcogeQNJH0UaswSEFWVQ0U1DKTg/jzrF2L8FTvjng6vhsBaUCLdD0c8mQmNBOM0wzwmCNztZjQY7lJLS/XV6ZWUfWRZiTulMnvjXTbRjVDfzrpXURw3qkgjNnjhzYxz6PHeBM++LGEUvw42YmJx5KpdCQTSkrsw0pZw3k7Sy1LO0u9AqSwJPWmJGr5A1n8h5qy8iwT8zLv+Fs+zFe4ef8yfrn3MW5Xfs5SJ1UYX/A7P6BmOkXBTFZQa7TsIOgIeLWs2gGUl58iw3xI3AgoZUDYXe7vM1EElFJS//c2xbJiPJYoWaJHYQCxH++U48vvGEyV38b9X7/FkJ7u6Fi3FqydXsCG5UkMQk7zQ2f4JW8RoIcwiQzSqcUzcGxfCwdLCsl8F/jeaT6PyBiyHdNC2FAClWoyoQDzobhoPhfIeAqIElkzLWVZYg2cvF66/lVt434rPys6ku/RS1UT3JV058AHWLAzCY2CnqK3bIWiC30w4agHCg4ZCUQSDb2ftmiSUVuimBoyjrItZp0Z0WvNiFxBQDLw9Z1vUB7VZYqBgbEercZTPzJarxPfVUXYyeunKl8kBVZBkKZ6+6huUUxFqX8TOb3+0mF0GhuCp/t3xqsMzxvzS9qRITsVyHo1RkbbRvjMNSB0qZXi1YrINWatf6Q0I253wZhdrhi3T9Y7JBj30V2XepIp3TCFOsSn2A4Nwupgxq4k/tIF/i4TkRG3rNusokEmpDCkaBvZS+kV16LcCxNOGFQq1quYAQ8Jyuo7R1F975QCVln1OT7geUbo58hCpyjsT9CO8PuZWTJrhmov53fK4pP8nkoJmiqOouz+GYKcerJKGs8IzGqJVmUVBXG3Uv8ndZRidOda6aUxGYUFxbNIhC8olP98S2SQAFAKt6jAKzfu4tS7lA5ffY2fb1/jp6kPydrTsgfD2v4ldGv4BLy61kPp1om8+gdc/2Y/JqWFoEvjp9C99ZPYvSGF589qprQfCzHTSkAn/QBU06sUWmmKlShamFHAqNJNgCgAJAuqwi6glOt4zHSQAlr9gKAUD6Wqh07h6zvHEFXki4a9nsDwLXpMejMYhcy/QhJLzkFZecGoLStHdz1S3DWJaKCsvPCGGX3IjuHUjkEyr/gcumuZV3yKUa3g1SzdBY3H6vBMlB06jA3GurcYE/CpVKJJSaasebSAu5jMGyiA/PjO9+g3Nw1PBFNHJujJkkY0JyDtimQmfUZN04zwmiUdLdzQc4UbwleZGVkx5Keojd/qhNE7nJC0R4cUme9ntyey93uriUwnnPPFiN1BaDTgFUTkW3Gz4hjvgfqHgFSgrJAqCiY2E1NGI4IJptyKNCsKQFXn3hKapo+qyZS4x4y5L73O9+IBE7qMGSOAVQyi3JiwR40JwzIDRZNK1PmQmVpVLsut0f2RRSvJQNVkVJBtpWJZTeVaLU1w4sq1jhxSuS7A1CYwJTT5R4yHjzY5ltj40rfXsen8Bex/X8D4PX64+R0Z8yqBQI1YdgmHtxcj2KUpDE1fQKeXn0Rqfx/88uVFHNs5Ex1e/Ru6NHgS0zJD+XzCWix4dMWytnUVC5f0tleLsKtCRhNQKgDaQGjb0wSMD1kApWlWgMuoW9KlgulRJWnNz4qOr6QXAd7DyuNT0C62Bcx5ZMc3AzHptCcDGSty91uQfdBMz2dA6m5t+r3h2ynXthKMJCSRbxEMdnuSHf0XmGGku3aku3ZgMNyKgGxMQDZMdCWuWiNw0ki8e+c6Cy7TTuq8VNMaGbKCIlISUKLLsqoKsoy0DQPZGxeglncLvDzCgHqpZjSkGO3ASNtxshGGYh08ifygRVYFyF6rLYhi6RjECGvEJhckbnWh25ZVYa1I3+OJzP0eyFHz/phQ9NYA+E51gn1MI6w9XkROvkSmoquQYQhKAxFgytUIIGtMSjEjQqmzrJD6SZoEP9oyaPI56c5WU62h3LqW8EozKZPMEzbRAKlMtJQS+VK1JKA8QjtBUJ5lZhGUjL5RfYMmled3CMz7NeBkgEIwSsGVdJIGul+Ynl/cuoOLX32DQ++8j90X3sLet97DznfexK63j+Py9StkgtsExNcok9Wzyk/yt0/jk7dWobdHOzg3rg331vUQ2q0Z5qb3R35CKJo9XwtRfm1x/XMplCdUQX1ITa0VND6rKsQEnYBSGJHPpIFSXtv2fF4xpqdU51SovgI8XyZpIFVuTBMWYmmMkPS8X3EIt6rPI6a4Bxr3rYv47YGYcimIQakBWWRGGSuVSUCmMlgdJ5Pcbzdg6DYjBm6R2UxEvhnRizIulHJOPKhpNoPhqQbYU+rJIlwN0lxRN8EFTwa1wcilk1UPcekYwxLKZxRAytJyfCHNUhXcS+VkuXJJwKqTe9Govwl1BjnjlXFGvJrqjFZ51JJFOugZwnvMMMB/vkTbFoSRIftI9c96MiRBmbjZgKQdViTvdkMyXXYqS1f6ESMyj1lZ4sIwelsA2g2oi7BsX/zw8C3e1DEyHNmMJV8ApEq3AFFcjXJHktjMAKkne7iP9yluSQCpJbqWIXxNRpRI/REj2oCowGgDJNlAjL/xUAAsnTzIzNJeroGSUbyARnRl+ee89mvey3dMNHHjtwlKGS1ShV8ryvDFLz/hrW+u4uDlD7H5/JtYffIEVp06gQ1n3kTJ2xfx7s/v4w51bAU+xr0Hl/jdjIjvMQCRnvE4jU8/WIM+Pu3RrdEz8OvYGL4d6sGv82vQt6sNN8c62Lkhi9e9wwJxXA2GExBCFVgpuDVpJYwnacFnUyZpodKE51Sh4zNSm1c9lILMNLSxp1zLNFJGdhQtL0OVt16ahc6DmsGS05l5NRC5xz2QflBHMnFD+mE3pBwwIUkW3NxlxMhtBgzZamT8YELUOul0w0BXVl2gdvSarYdZliWeZJulwqBmZn52SBc0jDFi7sFtSj9K10EmrPrPzGVQw73WA1iO+KwEprz39o9XET4zCU/2tMOLo3WoSx3ZPFeGNWgzolkJSI85OvgytNfmHdcmwo9bZ0AC9UTSVg8k7XJTE1EllVJzHKYQPmwmU3qi+GwUgiY7o2V0Cyw+NZ03dYnsLIBg4smYGpW4NcBUgJRSTnZgogmbqnoylfCii4Tt5HoB5H4mMN8THfVHU9drn9FAKRJAQCmswcyVSLXiIEF4mHr0CHXlCQYZZ8ncF3hP7/D9y7RP+ZmvGGx9i5t3v8Qn37yNS1dO4vj7h3Di8mG8e+0ivq36iiX/Z2rH6+TE93H/IfVt5VFUSk93RvjCcFUCgocncOX9tYj0bofujZ9FoH0TBBOUlpZ1oGtTB8XZffh755kT1I1MmyoBjVSPybPTtA7NYvJ8tmOaAqIcSxqxEMqz0VTHlYcEqKSn6jvA56bkqXpAPc6CXkVS+OLGIYSmW9Au5hUkbAtB0bne1P5WZBOMadyPY4QtlriHkTW1oywJI40iAzYYEcXoupcKZhhdz9XBY6YeBko7aXaWEaxN0o0kNr2qvQmYOhKXvvtKaWwZEKZEjuifSmmpISPKCDPRknK+SmaTJTjFFU3evxp/82+L54fR9493R9NsI9rkynhtVzU2wjLLFV4L6boZ4oevNKAfQTmYNxa/3kKW9KTGcFM3P+aAHkm0zCPUIbSp53piTEkvNIltCtdR3XH5l/28uZPMOHFJkmBMTEaLWiJrQrySCaoicgJH6UwBEsFYZQOkKuk02f8RjGKPAVJcmgBSMkd0qQRKWsbJ90vl8T5UkFVlKV+Z07LiQelv7Hn/JMokiCJYqyovkjEvMdmkKkbsAjXsSdwm8O5VEthVDNjkGeSe7vH7pfOxgIMAQ/UZXH5rNXp7doDu9doItHsdQW0bwvW1pzAoqBs+fUd6RlHOSP/Raj6zqqoRQArjsyAp7SjPJR2ea55RmRRIMe28BD8qAFJglYJLE1cvOpLXSBVYGQ7gJwaJOWvj0TjkFQQVO2ISwZh9xIv55Ymco55IYWQtE0HIam0Ju7W1LaXtOpbs2Hc9CYnuOnyZCcELGfCSqCzT9XCaRI86wYjW4414PcWE54c7oZZfE4zftVActergK1q8RjMqq1VGoV5BQFZVSptrtQbIKkEtsPu9s7Ab6oun+nVB3WQLGmea0CJbhw75zmohRTNp2WuBHgFL9NSSBtV+GbOW0TYBOXKzBxJ3WpG4V48x+3UYu1+PjMPuyDls0SYTON2PN++F+hEvYczifvj54UmS92HlQqsluJHlcyUjRTsSMDJmu0olrACViSxAZNQoewU0yYz/MSAfB6XUw2nfI8BWrKmsJoji71cw88vpHsv53QLSKjLxQ1k5lYVG9lrlswQcvEfRrKrwSIHh7wkT3RMASCGj/rvP12Rh0D3u21aEIJcmMDWtg9D2r6NHh9ehq/80Yny64NO3NvMaeg75DWE8BUbtGZT0UM+iPZtIkt+eVYBoMw2QUOkm9yLeQQDN9BOjt6nAITL5Maw+ng37/k3RbkhTSqogTH0zBBOOuSP/sCeySt2QcYDuei/zc7csjmRC/Daz6ukljSJRzHMZrx/K6DpggeaujVP16FKog10eA5rxFjQYY8TT0Z3xWqwJy8/wfriV2YhQuFAASWDWki720johLRXqDYJS62ENXL39E5LXTsOzvRzw3FAnvEaUN88xoX0BxeoUE/QMbCyzXOAzX8eboahVLTcy/7gRwzZbMIqlaHSJK8bscUGKiGFZA/GQmaWOgDxDljzQCw5jXkfbqNew/Z05ZOUzZO6jBJ9MKCCJJsynudYKZoD0MLcltA1UypTGfDxThA20zPtnswHysc8/MskwASqPFVNrxyoqF5bm+6pDsbhCyVj1O/w95U61+xQwqjpOqWKR+1fBmjAl3S7ZVjo7CDtKc19WYjBMrZ+HV8uXEdKukQKlR/OXEdStCdYtlKqet5S2rRRX/fh9S1AnOloCEoL894B8zPi86l5tgOa9Sw1EOQuQanCgxykjIA9/tBhuIzvh1ZCn0XuZFya9GYWJxy2YcEjP6Fr6tzLf9rurmGD0LmkiNiJui62qh9G10o7aUsRe87S5oJwY+MpSxK1zZMoUK16J1+HvlH9952dSW3+t8GXzyrKpmh7uqSHVW9obglJhSQJSQCmnSj++hPbD/VF7QHe8kshIKVOP1oyYHCbyR6e4wDjTVY3ZDlhoRthyMyJVb3IdBm80aIsq7XDhQzhj7G4dUkn5MmY7k6Acf9SLoAzHkA1eaN63DjxHd8FHN+gqcR4PHh6gu5OoWgtqhGkqCVBxpVpiC7AEQFqVkBb8SMKLe/pPYNRMGOb3GczXimltwPwNkArsNdcpJlXv13xGuUAeq2sEoMKQwrLSrY5GIEmtgbjG8gd8NrJpZcVRpuolfHh+LcIsraBr/AwC29VHSPtGBOXr8G3bAJZWL6JgXE9ed5H5cUQDnDAuf/shC6iSKKIJ+XvqPcWANiD+/vm12gTN5J4q6OIrKw+xYB3i9x/D5S9XISzNiPpBtWHMtUPqkTBMPBuIgsM6TDjoitwDBoLRhDQyY9IuSrEdZsQzkIndbEZ/smNfesXey2RxJCN8FxpgpX50neaqVhBun29A8ywjXks1o3asI16NdMaK08wj/lNYJN5sQBSTNq1aCow2QEp9Gve2C2T7+u4NjFkzFbV7dUHtYc6MthncZBvotl3RbaKrmkRAVvnyXeCGYBVx69H7DVfErNchbrMLqd0FCTuc6b5dVVNTBt11xiGCUmbapUuYcDocA5a54/WezyNnXQKul58lKI+ybGzjvUhrzU6yBBO0xuUpMAoAFFgkc7bWmABGWEEy5A+Aq8mc/2w1n3kEQNv5mnOPmzrH68Udy17pOv6uaF+5TzKhuPGHBEgVA4mH1fuoj/ehTNy7rEH902HE9ugMffNn4N32FQS2fw1B7RoihC47wK4xXF5/FokDTPyN08yII9zLczEN+FtaYXr8vuU893IPMvuHdGqWZxEA17C96HKpd5X+AQ94j1UPRTKcxPUv1yOjIAgtqBvtRrdC4r4emHghFPlHzSg4KD3+qfsPGZB2wIiUEgaqsgSM9H3dIi1zZkStp0dcSc8oFeEEo/t8PfRqUlIDOhGQLbNkEVcDXkx0xZMRdhi6rACf0+uqzQa7GryJphSh+G8BKX/kWPq+lLx/lnTeFc/FOOGlcUR9tpmANFKwusJlmrZSrOd8K/yXWtQ6NhFrXNF/nSzu7oqh21zJktSQJQakUAynMMiRJegy5YGPGDHpbBDGHwmHS2oztI9ujANfrEU5TqOCzFdZtYPuT0q2MAAzWfTXgxrmksyQ3ubVTPCHEphIJjDjxP5XgBQWecQoNqthFslcfsbGKto5foe4XwGDAqKc5/UCAnGfBJzSj3J/1L/SmQGMYIUpK7CbJtVVAsbTuPvrEcyd0Bf6Vk/B0voFRtcNEEBABpMhg+i2vdu8BtcmzyFtiAd/5wQ/ozGkDYz/CpBicl7VGEiaKMYXhpYGBU0Ti7xQvX0UM57GN19vwtSZUfDo2xKvh7+IqDX+KLjQB4VnPJBHdpQhKOOZR6kHtVV+k0oYnG43YuQWI4YykOm/wUzioTGyDl9sVlWAZnpK51n0nsV6dCgyqtXgpCOFzE7xbJg9NlzQWmYkTlEI5AtCTh3+BkhBn0KgALDmoGYTDy7b57/8iD5FY1CnnzPqjHJFo2SG8pk62BfIWtpGuM40wkyW9OaNBa7QI3yVThtzQ7c9aKsOw7czsNllxLidAkoDUukCMugKshh551BPFp4Nwcjt3mja/zkYR7fHqc+W8AYl6qaLkyoO6TRqA4QAQbGkuEVqSzJApQQ3CniPZ5Yca4DUAqDfQKbpqhqQP5IBNYC02eNgVa/l/RrjOQU29fsS6RMMoh15LxXC2sKKZPbyqu2UH7Lnd+BNRufHsXLmMFjb14GVYPTv1BiBDk3g16EhgsiOYr5kSkPT2siM9+ZnTqv6WRUoKZPftt3HY8+o3DnvQapz5F54H5I+NuZU6SUdchVDn8b1zzYhp6gHLAPboHmvF+BT1AU5J6MwgYFM1nEjo2s9sg/pkEZQJjGfJDAdLc2ElGCyNpGMNhXtGCnakZG1rPbqOdcIA8EoS1nbUc61VpPa6/FqojP+0a8TgiYPw/s/filwYl7UoPAPgBT7PSC1ndoUO/KD0ixWUVWFXe+eRIO+Bvytjz3qJ7ioDhdtGXE7TDKh+wwLXGeZ4bbABF9G3D2W65XQlV5A/TcZMHirnm6bpWwHwbhLT5akG9grC3VSS8rEAifcUHQ+DP3XmPBqaC34jLbD299u5F1IK06pyhCVyJIBwk7CGMJIBKnqckVXJa0RWv3a44yoZdj/K0A+Bj7Za5+RqFUzqaSXyuZycYfUuA+reS9kdNVxg5q2rGIbygjKiupSPsdbuPPTQczKj4JPpxdhaPIsfNrXh3/H1+FD86X5tW+MAOWym8C18bMYxcJ/9xaj+YfH+OxSIOWZf7ufx5/vN1DKns8n0Tjvr/Iez0lQJTKiim764Ql89vYSFBeEw7NvKzQIfx4OaS2QeTQSE8+FUUJ5IOOIgXJKR1mlQwoJI3GvAQkkEVnlVabwlta4/m8Ymb8GNbYqiMGsTEQmY2Zcpsj66gYGvQa1Elz9VBc8P8gBtUPaY8156XRdwcL6GAJ5qBiTJnuxfwFI7YQAUg0Yr9Bo8qvbPyMobzjq9O6KetSSjZIIyvHSx80Ae7Kk4wwTTCwl3gv0CFmsRwRvVhbw7rvBhAEyw4VM/0ymHEf3PW4XH1bGcB/0QJboSYrnCae8UHQ2DD1ndkbd4Cfgl6bHm5+s4S9L5fBhlchS/6aG0CogSZ2hBAxSLSJ1k3L+N2bQIuDHASnBkWSaDZBalYgNYL8HJD8nbCyuWq4VwNGqyDY2k2EWFfwdVU1V8z3aaEoJXkpQdp+frT7Ge38fb59eimG9XOFOZjST/YIJwEC7pmTGJvAiEP06NYO/HY1BTRDPuzR8Bn28WuHKe0uZD8f4nXxGqTLiPWr3K/fEZ7E9F4GvJluQ+5QCy+hZ+gU8lLpPieofHgfuHsbbR4oxMTsIIbGd0Sb8FbQd+QqG7wtC0aVIZB/3Uto+/aCZRsIgUaTsM2DMbqPqgCtt1oOZjwMoxfquMSJyuQE9CEZfsqN5ngm66dKJW2ScCW1yjWrS25dGOaJ2lD3cUiLw4Y/S+4q3Im63BpA2eaghTNs0QNZsWryjYVWOtQHu2gV3Kiuw/mIpGkWQgoUlKVSbMuJukUumLNKj8zQT9CwlXrONCKSW6Mmb7bWKGmMdhe9GGWshK8dSS5Ilk/mQqXulP5276qI2vlSH3MMGTDzlgwkne8FzihOe9X8a4RlmHDs3EzduERyMCEVPSZ8/BUg1LoSgLCMYa+osRbxLVYtWz8ZMU8AUbSVgtJmA0saWNZkrYLYB0cY6ksECbr6W1iCpgK94qJkcq7FAyiUywyXTeQ/V98mGMj9Rtdafsez2Mexcm4lon/awf/VvcG9VD8EdmlErNuW+BYLsW8KvY1P42DdBYKfmCOwg55vC9Hod+DnWw54tGcw0WZLvMMFOwBOQ0txpA6TqvVPzTNKWr/o0SjWQShemidwLpUL5nSM4umU88sd4oM/grrCLbISWsS9h6HYPFL0bibRjVjKj1H7IYuw8ZvCZto9an/kkUmsEI+u4rRbEkFy0ah7qRqkEX2SC5wIzAxkznKeY4Egw2ueZ0TyDUftYV9QZ1BUvUjuuOL0VtytkjKjWK18ibIGahjQNlNqfPwJS6FSBUTP5K+3c0j1NPnit4haip4zBs+F2eG5oFzSg225Oam41gVE3WdJlqgkeBKY/QRm82IieFLy9VlnQZ60FAxmVycpfokPGiJbca1GWJp09D1pUP7u8w1ZMoutIPdwHhpxOaBj4HEITdVi+OQXn35yDWz+RAWXNxGomtLR2EJQPVXOhdMkiIyhQMkN4rIHycUAy8FEmFe3MSIJOy1zNFBAJtEfVPoohBdSS2bxeKsnFJVMXSl9NuUbek55K2nAAqc65QLuCWz+UorRkGorTwxFAF929/pPUii0Jutbwbd1YgTKE7Bhk14jvM5Ch+/brwKCG7jqwXRP4tHoN5ta1kT3Gt+Y7TxKMdMEsbNJCI7+rMaQ8hzybBC5kcLrnhwymqssZuFTLIlFv45tPN2HD8tEYm+CFyMF6OEW1QMvoFxHN6Fi6A+aeckc6NaN0pM7a74asPe4YX2JGBqVV0k4dXbV0oDAjdrMbJRjJZbUZESuYv0vpDRfJwv4yO54F3YvM6JxnQrscC5qkm/DCsG54LtIOXplR+OzuNd4Lk4yUqKZFpAmeaohSg6AGPa0tW23qBP+o+kcNt3JKAFku/f14LDNEnL76LuwTA1CrXzu8PM4FTcYbVRu3sGT3yUa4FZvgwyAnYKEewcuoM1ZYKX6t6L/RikGk/LgteozaxgCnhBH3XunsKbPueiBTzcBrQc5hL1UVlFYaAZe0DmjaqyH8hrkgd0IESjam4MNz0/DD58tRdY+sJqxZfZSAIjilSVGM4NQASZZ4BEiyGXWditrFmIliwnKqgluBUjLY5tolo+V8jStXbCkglXrPbTV7XicV4tS4qr6QrvmHr3fjwK5iFKX0hH/3+nCsXwteLZ4n0KgRyYh+HVvBt21j9CAbhtg1REDbV+iq68HPri7ff43RdiMFyGC6b6O4dteGeOvYHH73m8wbGTq8S5kEVCIhhLklslYglX4A94XppavaRdy8XoLzJ2ZhRkEEBg90QthwKzr17YSmfeohikCacr4PJhxzo2fSI/842VGCzN1uyJFlpncy6Nyuo8TSqaEJgzZbMGCDG121GX1IMj2X6uGz2ADLAgNMs4zQTTajm3RPzDJRxllQf5wRz/SzQ+vBZmx4az/uqOG7vDWadKWQvQ2MGtJq/ggg5U05qZ0QQMqBZnJeM62yXM7c49fl7V6IV2Kd8NRABwpXMxqPJ0sSlDIFtJFBjvtUlp7ZegQsluXoLIy6CUopXetltXkTRpH+E7ebVAdPAWYGEyJTpmE5QCuVxnwvFF+KQuL+SHRNaY+W4fURPtqIrPyemJYbiM3zB+D8nix8/e5iVPxKwS6sqYwspertDhFoBCVdu2IWYTKCUqJxmVJagVEyUjEgGUXtBbwCTAElI3ip0xMXKN3bBJgSKT8kG1M2CGMBwkCXCPpT+ODCMpRumYSChCAY2zyLzgSipdVL8JXqnI6NEdSxOYOYZvC1a05wNifwGpIlG9AIwg71EGj/Gq0h/HkuyK4xQuybwatNXZia/wPx4d3w1WWZylC0tNbDvpL3Kw0FagCcFMaHws5yT+dQffcIPjo3H2umDUR83y4YONAFUQlW2Ee1RP3eryBkjhGTz/bHxKMBKDpoRSFddY70cTzAfNhLl11Cl73TjBRqxlHbpNO1rNpmpat2Q5+VFkQsMSOEgPZcwKiaMYPLNJmQzAS7HGkiNKFxmgVPD6Sr7tsN47fMwU/V0iuCt0hi03rQC1PacKUhTW1ywBMKkIo2a06oN2jyWuogxVSvaRmwJB1U+e/Tsu/hlt4PT1IfvJBgQb0UKRkMbvIpbEndpsl03TPM8JtvUUMdgldY0JNuO3KdSY3jjt9owagtJgXKJD58qszAu4egJCBzDpMtDxJ8R91R9FZfxO8JhWNKK7Tt2xC9xpowubgv5uZFYNZYb6zICsXFbdm4RmB+/9Ua3PxpM8qEOcWFqkwS0EhGiZYSIFHngaCqpuarZkZCXJu4f+7JQArMck5dr2lWDehSQX0cVfcP4ddf9uHbL7fgk3dX450TS1g4xqGPe1t0fLkWnBiMeLarBx9GyxKkBND86IZ96Z59qQ3F/Ns3UZXfQR1o4rIFlHZiDQhIRt60IPtGCOn0OrzbvALP9i8gb5QfPnprOX69KQVCBoTJc5E1WSBQ/SYq7h7FDTLiVx+sxdF1qUjp0wkjQjtg7BB6ptE+6BDRAg2iaiNgflfknu6NicfDULjXB5NLqdnFO+2jdCIRpHCftJtEsYN5s9WE+C0WDNrkhv7rrdSNVkQstSJ0gQX+c82wzmZULWNlZBEkBrZNs2RAoBn1xpjxRK+OcBzbC5fv/wDhRpn5TYIZtRoGsWTbBGqPthrc/TMga0x20pQjTYhq+l6Z2ldmT6Djvsd355auR7MhXngiqiteHWNSrrstoyuHPJaaiSZYZljhTrHru8QKX+qNYNGTjLqj37AgboMF8TIdtEwuwIeXJqnkPaIpCcwDdOEHTchmyU0/ZEXBm72QdigSxox2aNXjJfQaZUTx5Fgszu+PlVkRWJLshyVp3lg9qSd2Lh+Cs3uyceXsLFz7aCV+urYFP3+3Fbd+3oa7v+7Gg9t7KPDJmHcPoOouI9d7tPsH6f4PMVNL+f4B3PtlD27/sAO/fLsJ313dgK+/2Iirl9fi/ZNzcWBDFhYVDUBKLHWxRytY29WBY4OnYCUbegkQ2wnTMXpuT0AShIEdWxBoZERGzv4EqR9B6N9BmJDuWsBIty2sKMdyzo+f9ydAg+1fR3jXFohwbInQLo3h2/FFDA+1w5LiKFw+O5cFYhuufbkT177YiSsXluPQukwsy49CRnR3DA9qidFkxsTh7hiY4A7HyOZo3vtFhC10Qf6FSBSdC0H+AcqivZ4o4j57nxsDTDOSqOXH7jVidIkBo7YbmD8GDN5oIhjppumqw1aQGZcQjPPM8JxlgolgdJykQ6eJBrQpMKERCalustaBouFAMybufQM/V1fhfnUlmVzIjP8rZRKER6rxX261pPejcs6PA5KbvBSwikmFuUw3Qh9H2pVFaqtwrfoOoudl4Kke9nh+qBNeTtGpRTvbjdejC2/QcaIehplmuM+vqTBfTu2xQiYXMGEA3fcQPqwGSrpwMuRoiej2GJBK15FZaqYbsSL/CAF5xA1TToche38EvHK7omVEY3gOckFOdm8syY/GuuxwbEgLwNqMYCzLCMICAnRBsi8WpPtj3vgALCwIxeqZ0di+fARK143DiS2ZOL8jHxd3TsDFkgKc312AMyV5OLI1E7tXJ2HTvGFYOSka08b5IyXaCYMDWqGfe1NEGF5HiGN9BDjURUBnutbOjRFg35iBCs93JgjJcAFktuDODEra11OdbYPJhMFkxGACVJoGA9trLOhnJ3WQBF9HDZiBZNHgjs0QStcu+jKscwtEOrZClEtrROvboL+uOSK6vYZwp/oY4NYS8UEOSOjRFQk9O/O4HeK9WyHRrz2SQjshPZaByAg9/OKc0CK8AdoNeAlDGBVPOheJCWeCUHDcG/my2tpBD6aprHNuUIO1Ru/RE4zU9wxi4rfqEbdRj5h1BtWTJ3yVEUHLjfBjPnoyiJEZTIzFBnQrdEWHPB1a0l03YCDzj2Hd8fcwO/SekoTr1bI+jUyTSACqqh6SW2UlZChwDcT+5fb7pkObcZOzAkbpGym9yiXYIdTJlmW4+/A+ZCLlY99+CGtGNJ4IbonnR7toIxQzjbAvsKJbsQWOUwzQy3TQcw3wXWRA8BI9S5pRTQkds576hKAcukWbPW2UuAomTMo+o6p2yGTAk8/Iu+iQGQWlbph8Khy5J2LgP92E5r1ehUt4M4we64XlRf2wPr8PAdkTa9N7YE1aCFalBGJFSgAWEZyzec3UUW6YNMKCicOMKBpiQEGMK3LIJulkknG97ZEYYYeEXnYY1aM9hvu3xhCvlhjq1RqD3FthoKUF+huao49rU0S5tkA/XRtEOrVCeJcW6NW1NYHSWgEorHNzBBOc4n5DO7/OY+pEAjCU0bOYBDFBHRuQNQlm6sUgB0bVDrzOoSl6OLTg98l38bsd26C3U2v0cW6Fvq6tMcDQFkPNdrT2GGxuh4HGNhji1g5DPTtgmHdbJAbZIZU6M62PC9IYRAwbooN339ZoFfkaOo5phRHbAjD1XDiKZO2gg9SL9EDZ4oUOWNRArXG0pP1GjNzpghE7dIjfLq0xegxar0f0WgMiVhsRSiLxYyDjSfllpbt2nqyD4wRXdJtAr5ilR6NkHeqO1qNWjzZwGB2CA59dUP1plT+VITIMiqvLK5XbVl7XBrJ/sf1WMf4YGGWzAVJMzb4l7Y8EpQx6LyP6ZfommTlt7v71aDrAhCf72uOVsUY0SKWezDKjQ4FZrYvsOo30PtPAkqWH/0IZqciHXGVQ3dSkL13sJq2OS2a9GLNDrxaCT5bmRSZU1j4TS7I7cgnI8cKYp4OQTWD2I9u2iHoB9ozAR4wPxqwpQ7CyKAZrx/fERjLlFp5bT7YUcC5NCsT8Ed6YF+9F88DUQTpMiHFCbowjXVxXpPZxQHKEAzPVASlk+6SA9hjt345mj+Hedhjm0R7xXgSEpx0GmdsihowVo+de1xb9nNugb/fWiHJszT2BRICGMyAJJ8tFEKThDk0QRmCGOTRETwdG1wRqT7JpT4I3jIAO78rryISRdM19HFsgyrkl+rq0RLSuFfrL7xjb8zc7YqibA4ZaO2Goe0eM8uuMhOCuGBXaGYk9eO+9umFMXyfEs6DFjLTA2LcdWlLaWDL4HCWhKDzbi1G0JyYcZoGU4cgEXwZNPNHYvToklLjQ9AqMw7ZKhxgdYjcY0J+k0We1mV7NjIAlUt9oUG3VOkbV0pOnC3VjhywjWqSb0XCsGc9Hd0Pd3k7IeGO2Wu5ahiaUyTxL4q5VPY9gSIbKaMHyv9t+D8ia7XEwCkNK06HqL6lct7htUZIye3U1bt2/i9Q1M/BMz454YYgrGqS4oxFvslW2WU2a7zzZDH2xjjQv07IZEbjYoFy3TMPS5w0ZPmtW1QrDKaATyJaJ26SOklGedHmipVPbSAQ4XoY/HCdbnvakMA9G7EYvdB3THK0ZgfsN6oa8gggsK+6H1YzE19JVr0nzw/r0UGxKD8MbY4OwkoHBigQ/LIx3x6x4K6bEU+fEEfCxBuRF61BAhsmPdEIO2WZ8z65I69EdY4O6IcGP7tGvE4HggOEEZZyV7GRpiziCcxBBM5AsNtC1HfoTkH0JyP7d22FAdztEdW2LSOrA3t2bEnC0bs1odMW8pjeZsHe3tuhDMPd1JrD5Hf3IvtG6FgRha8Tyuwdb5Lc6Yph7Z4zw6oZRPo40B4wJEVfdFSPCuyAhygWjSQZD4gzoMawbuvZ5HS0iX0VgsSvTLZxuOhwTTskAfwu9jRH5+wxkSGmFMWEcZZE0C8bvdMXwbTqagWCUycMMiGbw2We1BeErGcQsdYPvAi2I0c9k0DrdDIeJZMYcesNUBjPJVtQdqked0C4YNC8bn93+mdggEzIIlqWMlbuWSbz4Xw6l4Y///+32u6ZD2WwvRXqKqTCdYJRz2pBZ+ToCk3uZ4FO2r279gph541HLuzXqxJG+k8xkSXe0z7XAIVcPHYWvhUwpy9P6zDcgaIksLyITEhkRtcaIgUwALdBxw/BNJoxm5J1YYsRYJuA4BjjJB2TSASamrPBwmAl73B2Tz4ezlAfBq6g9mjGCtIusj6gUKyZO64tlU/piZW4PrE4NxEbaZurBNxIYlY/yxqIRwpQ+mDncB9MYlE0a6I7C/mYU9jNhQhTBGalDdjgzNFyH1J6u1GXdMTqAmR/QCQn+jF59OhCYrRHn1gpDLHTvFrpQutI4cwfE6tujv3M7xLjacW+HaCe+dmmPaGeaUzvu25FVCV4XHrvyPR2P+ZkBZMKB4pKtHRQLDnO3R7yHA0bSRnmSCQO6kbE7YyxZO5XaMSnckYGLHvFxvogc6gtDv05o0fN5dB5WD4NX+yDnKCPpMz2Rf1S8i3gZN+SJq2YBz+RrSdeEPUYkqN7fQgaS/swHkoMszh+52oqw5VY1zDlgvjs8Z5N5CUTnKSY4FEk7tQuaZzGQSTLiFZLQ3/zbo8+UFFz5+XuFGRknIzPQKQTWyD2p8rFhS+zfbb9rqZHt8Q/ZTL5MTSbAvdq40xa0lPE3GiiPffkBdGMiUSu4A16JN6LhODNaZtJ1Z+vRnVpDX0whLHpyjhE+C03Uk0b0WG5A5EoDBtA1xDACj1lnwbBtnmpqN2nMT6CmTGCJHrtfgh2jCnZyD8kQCILyKBnunC9Sj/sheqMb7Ma1wGsRr8IQ2x5js/2weMYArJnYG2szA7EhhWyZ5IdVib5YmuCPBSMDMW9EIGYNDcC0Qd6YPNADkwa4oSiasiCKEX6kAem99Mjoxd8NIyhD6BaDGblKMOFvh5F+7TDSh3rTqx1dulh7Aqk9tZ0dAWqPQSbNYg0OGKjvrJnBnns7xBrp+k0dqQe5JwsOJJAHWcmG7g4YRvAN93QgI7IA+PA3vR0x1q8rxgYTjHTRST27IamXM5IHWjBquBeCB5rQOqQdWvVrgeCpLhi5zQcT3+zDdAlWw46zS12RSxDm7rNS/lhUhxYFRnqgkbstTGMrAxg3RQaD10ldo1WBsccKN3oyK/zmucFrthss0y1wYf6JBGtXYETT8Tq8lmpEvQQj/hbUHk4jwnHg47cUDsrFNdPUfJUCSOJDZJ6EMgo+NRD6d5uaucJ23T9dazvBvZqZQTvU9vJjAtKaqEnC+8VHdqBuD0flvusy0mvMm26ZaUDHPOoO0ryzLFNH6vdg5C0TWcqwB2kT7bvSgv5rrOi3hgmz2YNaxk2N2Ri1S6uGSGTAk6SaGd2RfchTGxtc6oysE2TMsz4ovNQbiQfD4TapCxr2fh4tw15GzwQn5E3oQTcejfUT+lJThmHlWH8sH+OHRWP9MC/RD7NG+GLmMG/MiPPG9EGemBzjhoJ+RmRH6ZEVqScwjcgiMDPDXZDe0wnJwd0wNpDgCKAFdiFrkcV8yGbeHRHnQTB62jMYcsBgDwKSTDfIvRNi3ejKrJ3Jfp0wxGqvuWECcJgbgxJ3alOCeLhnJ+rULspGegsYCUJ/J6QFuCA5oCuSBYh9XJEY44GhcT6IGGKFrrcdmgfXQ5fhdO8rAzH5RD9MeTMCOSd9kHmMTHjQRbXCZMukX5J2+9yYhiayIgMYgnGETKG31YqhG6wYTCDGrHWjm3ZD2Ep3BC93h88CK7zmutOreSgwdqX0siuiFMu3onGGWa1zXZu6sX7P7phVsh73pAaGOHhIvaicqOBFHWiA5AntnJz6D9u/B6S8UF9cc1yzPbpO4K5+QNhTu+D72zeRv2EBmjBDn4tywKuJOjRM1aMZS5SMw+kyyQynaUboZuipSfSqH12PJQTmIj2iVlnQl4AcsF4qY82M9GyrhMmKsxa6cBlS64FkgjLtkDvGHXBlwhvJBHRFFOsTz/VkZkQiYqUbuo3vgLYxDdE9shGihzmhUKqECvti7YQoLB8fgnkp3pg1zhOzR3thzkgvzB7mhZmDPTBtoBWTBlH8x1pQ0JfReG89XTgtQk9tqcP4UGekBXdHShDBSRsb5IjEQOpM/y4YwWBjOG0o9aZYnOwJ2CHUfUMI0uFenQlcB4KOACabjvTogNEE8mgfBim+BCGZcJTs+X1jezhTKzqTFVkQooxIiabWizEgvJ8ezuH2aNe7LezjO8B3kivG7eyJ6Wf7YeqxQOQfdkfqET2Sj7gii/usg2R5smLaHivG0UbvITOWmDCckmj4VhOGbbJgCL1SrJDBKit6rbASjG7wWWxh/pA8ZlD/T7cSjGTGQiOa5xnQKFMWXdfjmejOeD6sM8Ytn4Zvf9F6gdtm0dMwox1oM8nxhLxWxpf/Yav1OOZ+d63tDdubNZvtOqUIagAp7FlGipbzNyoeIHfTPNRhxPrCIEe8mmxA/QwdmmYb0DbfCHtqEKdpZhhnmeA+xwS/BWRLRnChjJzDV5kQ9YY2zleNyaHIHsFAZ+Q2Bjy7PMiWnkjcQ0CWeqn6s8x9jJgJyLxDBgY+dOOnglB4sR/SjvVB9Ap3mFJaonO/V+AcUQ894jphXLY/Jhb2wpyi3liY2wuLk4OxmMHOYrq/BUPcMZdgnEX2mUGbEkNJ0M9AXaljsOOK/AhX5JEpc8JcGPTokNHDBanBzkghcMYFO2GMAJNac1RQZ2UJdPFiI8imI6j/RtISaIm8JomWEsDInro0jdemkHWTQigJaCPCumEEgRfP3x8UY8HAwQws+naBvkcz2Pd8Hd3i2iBoioxXCkbh6X6YdrY3geiN/CMymSg9CZkx+aiehZZyg+5ZFkWV4QdjdkrVDj8ns00wTWWxgiHrTRi4xox+K82IWC4V32b4LjarVdsMlFcySVTXSdLhlsFLvg71Ml1Ufr441AXPhbHQzc/DVzdlIREGKyRBAaSKfcX4T+AoLXsKKwIOm/2HTU1YasPco2sf//Dv3vj9KSVUlckNVeFuhdaIfu3eTcQtzMLToR3wbJwjXpR6qlQdmmcb0SHfjG6T3OAyzaotyERQ+ix2g5+0e6vWHCP6vWFE7DoDhmzUq8hPIvCROzwJSB+M3u2F5D2eyNojHQEIQurLfJmmhWyQLk2OZInCk0EMeiKQcaQH+jJw0ue2QcvYV9Gi16twG0j3muiOgpQQLMqMwBra6uRQLKULl4Bn7jA3TB9sxvQhbiiONaOIzFTAKHxCXxrdpoAzL0ICHx2yqC/HM/DJJEjTGPyMo9YUYI0LpZsNddS0p9KfXZGoTN53RAplTRrPp1IbpoU6UK/yM314XX9njBiiR7/BLgiK7Q5TXwe0D22KVmEN4DraDoGTdUjY3gPF5/ui+M0QFB31QGEp04HPnHnMk+zohjH7tUruRGl92WNR8zcm79JjzA4p3HoM3aTH4A16DGL6xqw1kBmNiFgmfRuNjKb18CAYLdT5OmmJmWxAh0KSSa4TGmS7qMkinh3aXY0eHDg3E1d/1ZhR5r4UEIqKk4BaiFIwJVCkqFPXPALN/2JTgPzdtbYXf7Sa7fFT8mOqFYe/rtiYf8oZ6st3Xrn3I9wzoxnktMbfB8osagY0ybSgbbYV7WXZugI9ujLydp1thmUe9coCiwJlKKNv6RofLfOXM9Gku/wQupZh2zzoarwwvMRDTR2dvtcdGQRk2i4yFkEp3afSGYlLs2MuXfh4Bj8ZzLB8RuP5F/tTBvhAl9oCHcmYHYNfgCWsCaKHOiEp2Rs5maEozA5DcVY4ijN6onhcEKYm+GFqvBeKhzLgGcyAZyAj8f5GakyyprhzRuT5vYU9NQbNjXBBdi8nZIXTwpwIUrp36s4UaqxkMYI3uRcDJFoio/jE3gwuqFfj++sxbAgj3KGuiIjrhsDB9tBHNYNdz1fRsXd9OA5rAv8JnVng+mLyxcEoONsLuUelXtGAyWTEiWqYKuUMPUci0yfrQBhy9ochebevGrKasFOHxF06jNquwzAW8MHrCcQ39Cp9+6zSo9dyrUO1/0JZYFVHjW+Abibl1WS9mg9chiI0JjPWHeeEl0Y4MT/bwCU5Eh/8ok1FrVUJavkvOBAwipN+nOgeAeZ/sKnuZ4+utb143P7N9q8uVTfFuyvjLUl799nvP4ZHdgyeZomqM9AR9Ucb0DzFjPbZbmg/wQJ7ac2ZYYUrtYp1rgWe87TpoqXyvNcKMsUqKcVGNe9gzCYrBjL6HrKL4NxtxggJdmgpMjEqgSntsekH3ZB1yA3ZBGWmDFI6TI151Io8urPi0yGYejoSYzd5o8fUrnBJaoXWAxuhVXRTOMY5wDNBh55JbohJ8cWYtABkJfljQmIAJo0O1GyUP4oI0MKhniiKc8eEWCsKBpgwob+JDCpAJVsTrPkEax7BmkUdnUlL72tERn/eW3/quGgzWZDBBLVq7CA3RFIa+A7WQR/bFV1jO6DDgKZoHf0qOsfVh+/49ohbwO/eF4ZpZ8JReMIXeWTB/OMsZCxsEyhRJkqVDp87q8QLmbt6YMqhETjw+RLs+Ww2sneFUYPLVNsuGLS1OwZtcUUswdifrBi1Wq9qN2Sp6aAlOgYwOrgRjGYyo4yP6iLT502QwXx01RkE5DgDXhjcFX8PaQPnMeE4cu1DNQ2KTDAhE/NrtS/KMWvVhNwLINWmvaXZ7w//5aaCGrX94YO27Z9O/+Ea20uRk7aqIQXKqgqZqh1v3/4GoZNG4rkQasoBjmg42oRm6Va0zGLElitT/VrQfYoJztQrJupKz/km1aIjpbYXgdlnpdRVynQdZkRvNmMgA5zBLPmDt7sgfoce4wjOcSV0T2IU7QLQzAMmBjomjBcXflCnqonyjsj82O7MVALtzShknIpG7PYQeM0xwCG5NVrE1kerfnXRpX8jWAa2oMvsQMB0RUw8JQNdfMI4bySOo2QY442EUWTpeE+MHemNMSNow32QyMBIbDQBOyrOA/EE29ChboijBBgUZ8aAIdTHg1wQEu0Ajz5t4RrZEo79WsIuuolaw6dDfGOY8zuiH7Vv2j4yNe9v+uk+mHQ0CHmHLbx/E5/FFTmHGKyUUi7IdNkHLBi/y4rJ+6NQ8vEcXL5zBJ/+dAolby9A+toIDKEuH7zRiP6bdei7Qadmt5W+BLKCRuiymjVkCEbrHB01IwOmaTo1l2PbQgOa5ZrIjBbUG2PAS7FODGAcYE3ph9JPL0FWCpJZy2TOTOUnGUVLFaCatIz5XxPG1ACjxmowY8PLv9v+uemw5mrZCcptpk4/uoa/IPb4L3GTIwGmRt9Sca5NW/dZ2U/oWTQKTwXboXZMN9Sl+7ZVCdkxcutSZNJASSFtoqb0lKWQ5xvRY6ER4QSlJGAkQdlnnQBTJtk3Ywi15bDNrmQBF+oqVzX2YywBmSpVHLtNav7CjP18vY9ufb+09LjRLMgmW2bT5WUfo6s+6Y+80z1QcKoXGbUHhq9zR/h0B7ilt0AnslS7gQ3Rut9raBVZH236NIJ9dEt0owZ1JlvoqfOMQwzKDIOpUweR6Wi6WFe4xjrDdZATnKgD7aPt0SqiBVr2bop2MlVJTCO0H1QPjgmN4ZHbFlELXViIgjHhZCQKTvREwXHpAMH7OuLNe5UqLpkCj6wv089I38VDMnOtE8YxoEvZRze9xR0rz2XjTvXn+OSH05ixKgMTV4xG7qrBGLMyHEPf8GOaMYImGMOYhiFkxsClevjJLBMMJgWM+uk6BjB6tWxH2zxq/TwzXhtvwctJZjzPZ6rNQKtnYSI+ufezApvks+hDYUiZzFVxIvdaEKMxpdpsEKmBiZzX3n10xT9t/7Et+/8EkOotudeaw/fvXkNg4XA86dcCz8Z0xmtj9GiarEcrRuDtc3ToxFLZhSzpMkNmVmOgQ7YMJDCDmXDiwnuQKcPXmtVwiP5vkCUJzKGMxEduoRajYJex3wk79ao/XxoDntQSd6Tu9ET6Lh+kbfdB+k5m8D4f5JR6aN3bqMHyjlEPnqDbPcng4KSfWiw071gIso6FI+14NIbv6YWwFR6wTKJLTW+DDokt0GZ4c7QY3AxNY5qhSf8Wj5m85vkBzdGUDNt0cCu0GNoGbUa2Q4ek9nDMcYD3TD0GbAhEyuEoZJ/tiyzpMHIylL8bgKKTvig6QW14jGx4VLrf0dWT2ccfcacxgj7A+y5hMMdnKjgQjIx9ARjLZ4tfxyDswBh8XfYOvr7zHs5cKcGXN8/ju3vvYt+V1Ri5LkJNr9xjtQWBK03wXWqCF9PUfZ6eelHP4EWH7tI2XSjro2tjqRUzplrxfJwOT/q3hzk1Bm/fuKZwoDKZB8KG0klCQKitwyOxg9ZQohBhw8BjMJFT/2tA/ofN9tHfffxfnXzs9aND+fPYzQhTnv/5c/jnD0Yt32aoPaAz6o1yQVOZL4jRW1sBZREDnUmu0E12hcd0Rn0MeHzJmIGLZLy3FQF0QT1kLso1FmpLum1G48M3mAhKsxrAPmqbAWN2mdSC8knbPDHvzVE4/P1C7HhnMubvGYGCjaHI3emrDZlgQJAlFceHXdU+hwyaJ8ECtdqE0wHIOxuKrJPByD4RgpzjPGbEnnmwJ1L2hmL0jmDEbw5igfCvMR/ErfdE3AYvxPF4+JZAjNjRE4l7Ihj1RiDpUAQyT0QSfOEoIOCLToag8Fwwck/781wgv5uF5aCV0sIEWZIv65AOGQd0DNxolB9ppWZk7PZE7sYQHLwyA1/eLcXKszkYtcoHI96wIn1Lbxz4bD1+rP4U7/96Aic+3Ypfqq7g5sPPMHHfOARTm4dSCgQud4f3Igvc5hnIiq6USTLliSvByGg6V+YAl0UxzWg0zoIXBjnjCb+28EiPxclrn6ihB8JBaoGpiirVc8cW1GqUxdc8lrOPNhsYxP6H238E5P98k1/UkPe737edlgfhsXRJ+vDHa0hYOQkv9OqEf0TZ4bUEAxrRhbccb0LrLGfYF7ig+0TqmYnUNcUyaboZHgx4vBa5wUc6iC43o+cqC6JWmdCfQc8guqE41RYuMypIFZEewzcxstzihTlnRuPMT2vx+e1D+ObmEex7fzombItA+nY/sqg7xtHVp25n8LHbiuwDzPBDZKADZjX9dO5hK5nUrPpjTjruieIT3igmixafCsIkAnXCsSAUngpG4ZlgFND1F50OxMSz2nEeXW4B3ys4FaL2hTxfeMZPTRw/sdSKSYfIdiIjCMLsUh+CUWPufAnKJDjbaWbQEoTJLACp26lftxKYJX44dHUWbqpBX9fxzvVDKNgai8FLXTBqnS/yd4/GwhNTkLxkKOIn98XJT3ZTw1/DjMO58KU+9JitoxQyq2lvdNNc4VTsQjAKK+rQOtsFLTL0aEIZ1WCUHs/37YyXezmq/gkXvvtSTU8t2lDyU3p9SbOx1q/hUU7/adv/MSDllgSGUjY0OP62qff4R8Ao1QO22Xm/u3cLE3csRJtYE54N74CX411Rd4wrdaWzYsoO+VpCdZ1khBO1pdSJyXrdUrK9FhkRtExbSSyCUaLMLSMTDES/UbMYKBlzGME5YjOj2l2ByNjcC7N2JuKzW4dwveIcZpSMxchFvphaGottl3NR8lEB5h2LQ8Z2f7pEH2TtJjBKyVj7ZallK3K4zzvASJ1adEKpEYUEUQEtTxhNjICVVa2yGAHnELg5x9yRI/NgSiAiPd5F+1H3ZdP9FtD9FpR6IW+/N4MRH6Rs8UTKBuraXfzMXmrF7WYUH+iN3Z9MxZVbe/E1C9Lxq0t4TxEEpQ/Wf5yNFUcy8f43xxk03iBLTkb/Rc4YusENsSt80X9OCGKnRmH69sn49NZ7OP/DEYxYEw334u5wn6WHhXLIwLSUmckcCl2oF13QPFeHhpmuah556dP4dIQdmvY3IGfjfHx160fFJ8KOarSg5DJpUoD4V4BRtj+FIQWKQtWyt21yJA8jEFSyt+YhtHZN4HbFPczZswpNomTNklaoHdcdDcfq0CzNgCbprmiR7Qq7QjM6EZSy6LfUjRlmMiKcq4fPAj38F+sQvESH8OWMHOnGI+nCe0vT42o3DFvjgaFrCdRljoiY1gVjF4Xho9uHcQMfYdLmJEzYPBIXr2/H9aoz+JH2xc0DWHMxC2kb6Kp3ByF5I90gAVBEVzuhNIQA8kIOo/eCfSYUMbLNZ+CULeOAthrJYFIp70md56WGXIgUkB5JuYzwC8iwAuC8UsoDgjnnkDsy9nhizGZ3TDk6CCsupTEgScCknSFIWW/EuPUWbHm7CN/cvYSzH5Tg0vt7yE5XsPubhRjBexux0RvRc4zYcnEZ0/YBSj5cjQFLzIh5g1JmfncMWBSCk98ewxdVX+LA57uRsCoOvpPN8Jyupy7XQz9VB8eJruhIL9SOhb5FrhENyYz1Uk14bpgTaoW2RqMBRkzctRw/3NcWVBddqLobUhtK2PLXwPC37S8FpABRW4aIe0X1PCu1+tI1idvP5Xew4sRO+BTE4W+hdng22gH1RhvQIMmApul04TkWtGYU3qGIbDlNZtVyhWGGK9xmucJzrit857sicIn0aLYgZJWVgY87IhZ6oM9UMwbNckPOpr5Yfa4Q56/txw/4GHs/XYbMNbE4/MkW3MbXOPDeamw/NwM3Ki/h3e9LkLk6koAMx5bP8nHmmw248P027PiygCznh5QdzmQxgq3Egqytnph1cADWX8rAnCNxanXU8XS5mQctyCDwMg/oMX4/AxJG+TkHyJ5k2Iy9BlVfmrvbHwe+mIYPbu/AR+V7cb38KN76ei09Rh8kbfTD2e824Oov76BoeSpyl4/Cx7eP48uHZzB+60D0XmZQa8Dk7EzAlZ/exie33mSgNgTh0qVvkcwWEoBl7y3GzFOzCNQBsDJatkw0wm26RS2e3nmCgFGHVrmueD1Tj9fHm1GPcukfMd3wt+AOcE7qhfmHt+L7srsq/6Q+Wf2rriBDygLWQiZ/LST/dA1p2+TocUBWCCBttabl0ntYypvGoOe+/RQjVxSjbrQetcLa4dWhOjQZa0FTWfxT6ivzDWjLxOw00QXO1D6GqS4wTXOhviQw50vToxXeS6zwWchgZ3Uvur3x2PXmUrx7dR8z7QyOfLIPy07NxtgVkZiyNwFfMAK9cutD5KyIR8aSSHx04wCu/vwmJm2KR9rmEDLSHFz66ghuV3+NN++8QbbzR+JWJ2pNC5KoV2cSBO9+tx0/VLyF819vQio13DhG+jLbQzqBKL3eJdJPIxum7vFAMjVq2j4rUsiquSUBOPr1HJR+PB9rT07Eh1+UMq2+xqYLU5C0KRwnv9uEz2+8hUnr0jFiYSQ2vTeXAHkHC4/kou9aL4SuNSB8rgc2v7OUHPkDNny4BN6TZRZjd3gttKo1hJwnOMF1AvX3VC/oJ5nRnUGLLAvcOscVrfKMaJ5DII7T48URzni6TyfU66vD4IUFOHD5otL5knfldM3ioqXPK2NnHlVQN5Zxr3m4v2r7EwFpM22TIwGczdQmz2IznrSN05XtFj8xuWQNOo4IxJOBbfEchXU9CXjSzGiSYUQL6pz2TNAuBGZ3AeZkF7hO0cE0wwTrHDPcZGjmTBMGvNEHGz5biV8hTVsPcP3eJ1hybCEGTuuDfsVeWHImD9eqLqP0nZ0YObk3ZmxNpHu6hM++O4XC9UMxarUPxq3rhWmbcqjhPsDeq4uQUuKPhI3UpauprXb0xpvfbeb3f4pf+N1Xb53F2NV8n1H+mBIDknbrqV3NSGYwkrLTG2O3ezLqd0cSg6iEbUaM3WpF8g5G5Sst6FNoxK4zy5jV32PTpfnUgz7Y9sFS/Fr1LVYdmYuoIj9M3pGCa/ffxvrzs9BvrT+C1hoRPN+M1JJ47Ph0A4qPToTnNDcWTDfV19Q01ZmFVQ+XSQZ0n2xB50KTqlZrkeWKJuN1aJzJwGWcAc8NcECtwNboEOeLwi3LcK1SQhcta0ReqT6NNG2hKJKHrNNTVaZe/1X6UbY/B5A2LNIeO1T2aJMXBKE8iwQ50u4p9mhqNu6kamjzpWMILIxHnchuZMsOeJ7a8rVEPZolG9BGFgLN0sE+T8eE1qMro3FZx9sg43amyzqMZMlZ3oy8B2DRyTm4eOUE9dgVfInPsPzNBRgwPRjzjmbj+4eXsf3kCvRL9cea0qn81Z9w8cudSJzfA8NXe2EYXd+SA8W4du8y1jMyH7U5EHGr3DB8uQ92froAl2+eRsmFdfjsh0u4/PNRxC3xUR1dExkEJew0UO8x0l9txPBVFoxY546RG6lrCWiZym4UA5d4mfBzrR5DVwbgg19O4NubHyFnQyK8C7pj/rEi3Kv+Hue/OIzkZcOw7PhUfF/5Pmbvy0L4Ik8E8juDlnsgaL4XAub5w2duICNoX1hnWdTKGKYprtDLICyyooyTb5NrQrPxRjRmoZZOtXWGO+HJiHaqlsN3/ECsOLZLsaJsQg6qirkmjxTu+EfqGWW0qbTByIL4/9cHNY+jz3b46HZtL9QTqjM8tJVAvhAwMoR7WC6OQaQ68FnlTYxbMx2tBnmhdmRn1CZbNhxBUI4zo3kq3TddTtt8EzpMMKLzJBMcaU4TmRnFFrhNdYf7RDd4ZbkhakIYpu0uRMlXW7Hmw0UYMCcAmZsH4ZN7F3Dui+OYt3kqLlw5jFsVn2L1m5MxeIEXYhkUxS0PwKazC/Bj2SdYerqAQZI/Bi/1xtyTmbhe/R5OXt6LJVvmMDD7Dh8TnElvhCNuvRkjt0kzpi+mHIvF7OOjMfPYaCw4nYpJRwZj2Hp+7yYzhm2xYtBaCwYxKl55YSq+ZDS8qXQ5EhfHYMDCACSt6Y/Sy9SRZe/hwp3DeOfBMZz+eieGzA2Dj8xWvEBaWEzwnuMG6zQrjFOscCmW4QU66Gea0W2iDp3yXRQY2+Wa1Qy2DehlXk004KnoTngqzA6tBntgzPKJeO/W1wqMSkUxD6Rfq6prrAGlbNoquXIFJZdiSjE5V3PBn7z9SS5b2+QWbaY22wsBnph6iEfvatuj98U9yMAxGUBWDVnGfMe7J9CrMAHNBphRu5cD6lB8NxjN0s6S/jpdTzOZ6Ir6UqYE7JhHN073ZJjkBhPNa4oHvCda4Jmrh2eeCSHTPNGD+ipkkh6LT8/F+798hK9uX8WnN94nMKYjZrEPopabEbbUFYPIkHvfX4sbDz/HjP1JGEh9OnSJP3XbPFy//wE++PEsPrr2Nu/0Lr6v+Bgr385BHCPdgStckVESht1XZ+PCzR04/ct2XPhlPzZ9MpMRsi8G0OUPWGPB0FXBWHR0Kn6s+AZf/HgZO4+/gb2X12D68XEI5/2NWBSOFRen4sD1Tfzu2fztSATS/XrPpiyZZ4In914MVCwEon6S9Manvp7kjA6TqBEZPbfMoU6kN2mSwgh6jA7PDO6Gp/t2watRLvDOisWGi4e0MdNMZ2mTVksKVlEzMn/+kDvcHs9Asb92+1MZ8p8epua8ZvLn8Qd77Gr1PrWJTNfC92TRy3JC8zbtu6r7WPv2QVhTo/FKhCNq9+6Mp/vZ4+UEV9RL06F+uguaUCO1k86/FOydyZyOhdpSykayhqHICaYiPdwmG+BLBvGdakVAQQCGzRuF8euyEL9oEMJneKHHAj2jdT2ClxowaHUPlH65EV+Xv4PsrYMRNtcZMWTI9C2DMONgNt1nAfa9s4Vw/BGfk22nkQn7rzCi/3IjYld40FUHYdSqCAxfEoEhC3shdkkA+q8yI2qlDmHLGIEfGImPqQu/L7uGT299gE9uXMCHt05g8rEk+E92Qsh0MwImGxE0iRKEz+LFSNlbZgKZbYFhhhFGPouZcsW1yEhNbYAdI+c2E1zQLM8ZjZkWDQnGhmONeGmII/4R5UAv0wWG9H6Yc2wLLt/7gXpdhjBrTX8SspRLrx2C0pZV/7TZ3vi3F/x525+uIf/phh+dkz9aBdEf7RFIq+i/pb6L4rmcmkUSTKL02zz3+d2fUbRjKZpE6vFS3+54qh9d+QgnvJos9WiuaJTByDzDRQU/rVXlugscJzsrV+Y6VYbjGqk1PSn4veFW7AnPYg/4TXOHLzPfd7YB/guN8FtiprkhbJE/MraNwKyTuYhdG4rAxa5q+byIlVZELvJAKJkpf2ciPq84j91frEDkPHf0WmpG5Eo39OI1EXLMyL83NV/EfA+E87sjV+oRttIFgYtcMLKkP1Z/ugSF1IUD5oSh90x/RMz1Y7DiBe95bvCYz2hZem1Pc4Jxuh6mmVY4FzN6niKa2QCXIh2c6REccg2qaqyp0oiuaMyg5aWx3VA7vgueG+iIl6Kc0YjplblhNj658wPuPaxSkuiOAqR4Ig2MWgeJ3/Lht3ypycw/5ulfuP01gPzDA9hOyWOKEhHTai3/CEjCj4kjwrmsUlZflTow6kruBZi/lD/A4a/exdj109A81h3/6N0Jz/TriDpDu6qWngbUlw3T9QQn2SK7O1rnd0OHQid0LGR0XuyOrsW+6DbZC85kSdfpOuiY4dbZOrjP1cMyh/sFDAwILq/ZDBpmeiN0jicCCCyvJQZ4LnaB7xJXBCzSwX+2C9nQDzm7hyN+XW+ELHCD/2Iz/JeSfZdaELJCRu5Z0XOZG80dIfx80FJntcq+7yIjfAm64Hl+CJjuAQ8GIJ7TdLASeMapZL9ZVujmWOA8Sw+nGS7oOpV6sGYYgT1ZsWO+Mzrn0kVnSccURsxpVtRPNjPw06HucEfU6W+HZxm0NGP6xMzPwf5PLuGXMpnSQdtkmME9pu9dprUaPy2mAhXbRHmaXtTy5LeMtOXhX7395YC0vZTHk0dVzVDqWKBYA0RR0sq0hFBCWvpWci8BkNSJPZD+dnxXIvFv793Eia8+QN6OhWg3yA1/D2yNv/fpiOeGdscrSUbUpZB/JY3ReaYjmue6kEVcyJgmtM9zQ/sCN9hJvVyxTk3Q7iSMUyxTvphgnk39OcuDZlXVSRZqTpmu2DzfDDeylqw04T1f2FSPQAYXAbPJqvMsqv7Pg8D1WEjtupDMu5jMu4Cudr5MW0cNu5CgW+BCl6uDz3xPeM31YTRMDTiVNs3ECJm/McMCHc/pprjBaRILj8z8QXdtX2ShO7agFfct6J6bZjujGaVKkyQDGqW44eWxFjw32Jlu2R7P+LRApwFWZK4txvHP38XVX39RaS3pXynpqbX/MaCkfiQINfgRkCQBVb8oeSARjaoG4ZvcHs87SX95/Vduf2pQo+7WZo9ttlPyQI+XQU1CCxC5F0FNUzOtPRaRV0obOE3TOxrD2rbvym7hyJVLmHtqC0JnjkGd3t1V85fMW/nciG5qscf6yS5olOxEgS8dCMyqY3BrCv9Wed3Rhm6vY4EJXZjZXSaa0LXIoPpldidIu9I96gjQ7tON6C4jJae703V6qsndzTOcYZlFbTpD1ulxhetsPfRzZeAaAT2TJiBjRGyZY+Z3UOvNdCHIdTBOo/ud6gYD5YJOjOBzLTbBqVjP6NhAPch7yLfQ3MiCnrAb74EW6VY0GU8WzDQovfwan6O+1M+OtOLFQTrUCrfHCwxWPLNjULhlIU5+dBE/3blRk0KCLxZ8Ak2bbL4mXWXHtFaFneBU6WqrX5T3JYkfA6Qt3/5/A0gBFh9Z/Xt0y7bDx0w972OmzvOP7GxpoFZ9qJCqBX6nAFFadHixWl1MNCavlind1EQF2hdQE1XjvR+/xhtvHkKviaPxag+tKaxWeEc8IytIJRoYberV5AWNU03KpTfJ6q7YpiV1WLsCCzrkmWl62DEw6FSoU26y02QzOjFw6MbgwnGyFS4Ek4xR7s6o1kXahYtdKQFc4DLdRPfPQIrvGaYRcGQ+l0lkYDJv95kWtZBQ90ndaU5wpP7rXmiBY4E7uomxMNhNYFDCwiGBmejfFplk9fEWNE9zR8MkCxqkWFGXbvnVBBfUGcigrmdH/M27PZ7xtYfvxJFYc/Eozl+9ghs1M9WqjUlTWUGvItGzeBrxOjwtezF5wWRk+mpFXHv3UZbUHGib7eVjp/6y7U8BpDzMb7qw5rYffwqbyZMLpsTkmOdsp6UEShcndYkkopgMrVWuW0D4WEJKIpazXNv28n0120fffY21R/cgY/NCmPOG4fm+etTya4FaYW1RO8YRL8c5of5oFzROYSCURktnMEAt1ixTm49IltJtne1KgMiwXVkgyoJOE6ywn2CGA12oWCcyWeeJFhoZjdalQFYgIGgnELwTqP2KeJ7n7HldJ4JZ5sJxKHBCp4LusMt3gn0+wZ7tBvtsT7TL4e/yt5pm6/E6deHr4+W+nNAgyVUN96g33IDaA7rhqXA71PJuglcjusE3Nw5j18zCzP2bce7aFyo5bZvWNYxWKQVYqnKYtkxXMZU7LNgKnCpdeT3TVht6UvN5mhzaTG3/dOKv2/4kQIrVPLB26l9v2oW/GS+W6+VQElUSzfZ5cR8qkeQacTc1mzovwGQiah/ke9LEIKDVLlHbz3x1jKwx9+B2Zt4M9Jw2Bl1GBaFOSEf8Pag1nuzZCk/364DaQ7rihRGueGWsCXVTGBykm9AwgyzKffMsK41MNd5EwBrQbLxB9ahulUtNl0vw5prQjszaVkZR8pwdX7cnoO2yGIRkm9T5Nry+NcHWOtOZYHdlREwJke6MppQPTTPd0CDdiNf4ew0yLHhxtBPqDOuC52M7oRbv74mglqjToxM6DfVHeOFIJK+cjAX7t+D01Y/xI1NMpRntPtOEZVMBTOk/bpJmKq3kWE6rvfaebI+nqVbQtdfadb+Z2v7pxF+3/bka8n93+5MeUAPvbyYu/nFwSsZdvnUdG8+UIm/dAvSflQ6PCYPQLsEfL/Zzxt97d0YtBgW1oh3w98Hd8Y94ApQ6rf4YgmUcjQFEvSQ9jxnFpxppBFAK9yna2KAmaSa8zn3TNAPdrFG1JjXje02TdGierFevG41xRoMx1H9jGQ2P5feP0eH5kc54akgXPCntyhHt8UR4e7wU3R0dRvvDa+JgRM1ORtaaOdh0Yj8+/P4rFaDIJskmtQ5lfE7p9iDPx8P/iu3/W0D+SZsNiIodhDFrTNyXdAwWKSAZaKvY+Bb3cP7G51j55j6kb5yLgYuzYc2JQdvhPmgcY8azPezxREBr1ApoiVohjODD2uGZ3h3xbN9O+Ef/znhuYFc8T+C+wKi+ThyN+xeGOdG64/mh3ci6XWid8cKgLqjTvxOej7ZH7b5k5rDWeCKUzEerFdQCz4R1QIMYPTqM8IdzUjiiZqYge9N8rDhTgks3v8A1NdOiBkDZS8uKVNVIy4pUh4mmVgGLXPNfgsj/CkDKpjJEgZIvxAPRjVcpUa+ZjJC7T9F/n9kqzWXSPCkglYriG/z71g+fYO3xnZiycRFGzhyPHtnD4J0xAIZxEXAcFQKH+AB0iPdF66FeaDKErjbWhFdjXPFC/+6oLTbACc/HOKP2QGe6XGe8MJiuOZ4uf7g7Wsd7ouvYYDiNDYU5tTf80gcidPwQDJmahuItS7H21G6c/up9/MT7EODVPAKPpcqrUq28X8YzWvcGTQ9KkPcoWPkvAaNs/zWA/N0m2GSOqg7BkleP6ypmrIwnrpBOp8xirfVc/mluXjJcmFQ6Y8mgzysPfsDRq+9h67sn8MaFA1hycicml6xC+rpZSFw1GcOXFmDQglwMXJCN2EV5iFtWgJFvTEbSppko2LsMs05swvILe7Dto9M4fPVtfPzgO/KeVhCkQAhjC/PJb9qAKJJOu2/NFBsSdFqbc6U2O4gAUV3037X91wFSsKeMx4JH5cV5oMhT3LjKbTmntQip3itS96nq4cQNSp8jDZxiKvqnCYCk/Vd6x4jJzBx3CeO7vOI29+JcpfpJ2t9vE2pyXt6X92Q+dumD/YB7+T7eCu+Lf+W/djuPjrX71faPnoNWwcj5QWWFAqR0gpBNaWUbQ8op7fTvtn9z+v/a7b8KkCrx+UeAWK5MXBxfM1dtmSLvyxDOqgqpLqpBQI2pSTblQjH1Qc2kqffxqiUBjsyXrb2Qi/+wPXZKvkZjwpqT8jE5aRO0tj2/X1pOiTf1/TI1t0x/XC6/pb39yOSbxGVX8GJbAXt033/Y/s3p/0s34P8Bew6NXFMitH4AAAAASUVORK5CYII=;" parent="1" vertex="1">
                    <mxGeometry x="29.849999999999994" y="-1090" width="50.31" height="50" as="geometry"/>
                </mxCell>
                <mxCell id="nhbN_m_MJA_WDUEvRPEo-3" value="" style="shape=image;verticalLabelPosition=bottom;labelBackgroundColor=default;verticalAlign=top;aspect=fixed;imageAspect=0;image=data:image/png,iVBORw0KGgoAAAANSUhEUgAAAUgAAABkCAYAAADkDanKAAAAAXNSR0IArs4c6QAAAARnQU1BAACxjwv8YQUAAAAJcEhZcwAAFxEAABcRAcom8z8AAFgFSURBVHhe7X0HmFTV+T4ao0nUWGCnLAhRiSYmlgR7gNkpC1gwTX4pakxMYgd26i6gjlK2zBaKFU00amIh+RsrsmyZ3QUWEBCkbW/0JogIUnf/7/ude2fuLLuwFJMo93ue77kzt5x2z/ee9zvtdjPFFFNMMcWUr460tZ3ULRw++YiUzxyzMIyjiPtwKuEesxy/tB2f9HQsR/PuOlL1Pr+4dJpiypdWdCMbNuxrXdbjYlAMA9pR+F3WaUp1Q+e5bjiqtHWkXRXce6xp0zSenuMvR/PuOlITIE0x5bjL0RrVf8IYET6Aw+E4JaYCVAIEh5IvKm1fRLhfRDpNMcWU4yhHY6T/LcNGvATJQwIlz39R6ftv5dsUU0w5Ogmf3HfI8G+fe6235zkDfOed6wj1Otfl7dmZ8p4eA0bbz706/G1xzZQcDajQfT3129d6z1Xh3nde+7i6ot2vfyA5yXG/ze7w9TjLMfJs/D7Dmuo/vde13m8iX6d163f31xUgGoXgeBg26Qifci7KpceANHtXyqUjPcczoneSI2Bjmrp1i5XVcZW+fSefZneEezB9ks4O0nEo1Z9JvuqB7t2GhU/VgjXFlBNWEkChx+A0u8Xp+43V4cuzOvyTrCn+XPzPtjgDUH+OOvJ/WrYlxRexpHinWBy+bJsz8Lveqf7ztWAoXQHJk7q1qXscAKCzBo/8jsXp/S3DtSFcG8M/KO72yvO64t4Ub5bV6R1vS/E/guMomzPNa3P477U5/XdYUtJ+avf4+nd3jryYYCcpSBTVf6enW/XDifTuf985SR7fYKvT/6glxT/F6vTlqbRR26dNP6+lz+XPYp7wzJPWFO9YlOlNAG2LFjSE8Uhcsfi6JHp/oy4Af6srdLUtJeCzOX2T+f4Qb2ZiGvWyMv7HEeUG5buejDTm8n2izPpoIVPwrg7RgJhiyldU4pX+2lu/aXV5nTZP+qs2z6jNNnf6NrsrtMnmCq23OUMb4hrcYHMF1+P8Rtyz3ebJ2GB1BQvtAKB2LLIdUztIYODqnr59h59m8YSutbqDz9rcoY12d8Z2O474vR66QTQhDR2ppGsd7l1jdYea8bvB7gquRBoX2TyhCpx/G+n8G8AjGwB8T3LKCLeA5dUJYKmlG8BjAB/7T0b0trn8j0CbUDbIczrKR9Km0tc+HaLaf1doHcvK7hn1md2T0Wx3BZ60O/39tKAhjMcAzF2V2CCUkmR3RnebwxdA3B8hrk/4/hD/Wnl/hy2/4DqU2Sbk7ROU+yY0MP+wpoy8RguakgjGppjy1ZcYcxGhewojGWEfNOajnjc81pY8+JE2e+po6CjtqCv+ezLkyHuShzzaBjDaAtB5JIEZifEeinXEGVAfx53fAONJQZjTkgeNbut5w6NtPNpTVTyJ8RuV1zpQD9LmGdUKPYD/+2D4e6C77J7QDqsz8DEAoBYMqQiAmWt3BH9G5oxkqLSS1XIQh6PhmljcaReAAU60uQN7et7IsnkoFk/nadL+S1kxT3hu0CP7be7gHNvAkb/QgoYQ6BjXETI0lq8BIFF+P7Sm+F6yu9P3SvkNfjj2nuJp60RxX/KgMVq5j8H79Bf1SPE6tKAhiWBsiilffSE4Gdyms10jLgPQPQuD2ZI8JAyjGd0G5tEKJoJjXGGA0JBcEyDivfzv8r9icQeu68a+PpEjA8geTv9AsJ1pYqwEZxwRh4St4uxYE9OlqSedAKk0BhBjYPwEtodwnqCQvg/nwejSi+E2P6IYk0oP5Gv9pL9SCYD/fKszLc/qCuyU/CI8idMVT5ueDqPKNdyD362Mm6AF93UNANJ37pCwzlxPOmqA1ECdfaw254gbAZDlBLjkQQKOeHcqfQnp0dR4Du9dvUut3NEYvN9jYNoAhq3EBEhTTjQxAiQqf4+UtJusTv8suMx7BZycgX0wuD0wln1GhYsK9e/F7738zXvFGF3BeRaX708cHJEwBWy6BpAcQElKCfzECtcOYR6Q+FN8BxC/xAHGt1/F2179SJNS/k5QPqOeO6DUzzQSDBRIADgVkIxus8L1hRs+BfFfQ7BmmoYZAAHP9mHfptXl36yVTSvu3YPw9+ppa19OVC0de3Ev8uEXEIKLvQO/J9kdvu/p+Vfv4QgBUn8WwoEpxHM/8rZMwBt5RJngHTFeY3riqs6pskL6diNP+xVYBpBe3xuWgWjsYoK4TIA05QSShD4ljnxanH6v1eVbrdgRWI/TfwAgReNvPYTuJ1vTnlkHEMm3e0b01oJVht9p534iQHIABcb5CphoK8GLgKLFr8Ctw/h5vjNNuJdhUBEeNbAfcbXaCZZIuwAl2aQ7+IRt4IirJHkGsTnH9MFzE5C2j4WREmgFgA+VNiqupVDVf3F3PRn7wCr/hcYklcxPiwLSZZBU5WYoV7DbH1idgTybZ9RqYcmuANLnPdy7g8bKCmkKqIbJHSKovpnk9F2vBQ8xAdKUE0viAEn26PT3s7qDz8DF/cwOAyN4xI3HT7DqRL0HACpgRgTIjD1gHu+BGfXnqLSEDSMOG4A4UToASGfgVQEuYUFMgw5AMPgO48e1FAJ5TBUgJaSdz+r5YXjQFK8C/5S0AwC9A8l0v1WfXbPNHXzI0j/tAiQrlm6rI/07CDcL926VvtFYA8IwO00bVOKW32Br+4W1po5pBVObZ3F6/3yO5+6ztCg0RthZWRkF5UaX3AiQA71OmzP4Bt7DpwRI5knyeFB62quWPoA9QF81TO4QWe9bSSlpP9GChyBdJkCacgJJjK2QxXB6jc2dXgoGspd9dTAeGpcGTh0ZlqbC8PwASbJIdu4HlttSAvdwHqLEAjG6qonSFYAU97WzNPA80gg2GFM93TpjjAFsR2HgnAAmAMEHkATwAfxsnvRKpP9PKJdzJZkQ6wD/+bgvG89slftcIQAx4lMMsn24HWkrXVoyNIIxynq1zeHLPtcxvJcWhQLIThsTo2gAqb0/PHNKkjPtDrj/i/H+OCgFMA7st3YJIHUlgwzKsyZAmnJiSzu319b/D0k2ly9sdYVa7J5RYDeq/w+G0xkwGVQDIricwlzc6Rvxe3LyQN+PtOAhYvSx+OJyTACJc7gu/YlqIEe6BURVP6PcAwBnPxvA6RD54TXvPoTRKiO47tBOPPcPAMaPJZkQa+qDCiDJII8OIDWWhrQK2w7uQVjT7M4Rhuk+id0eh5CE+5JuDNgsKd5HLE7/JjvT79HYbecNy8GKcjIZpCmmUGhcOkDid5LzwcttLu8rALfdahAhSGA5BKAcpAfAXmBcNM6MzwFORfaB3p/HjZhxye92IHmMAElw5MirjNo+BPY3RlP+fkidVwbfhvQRMKjtw1FK8EI+CLRqmktwKZ67s/v1wTOZPpvz/j7HDpC+VjvzhgZIgMgVmGd3+X7WxxGWQSFI1wFSf3+O8Ck2T9qVFlfgr2jg9igWL+/NBEhTTDkqMRjhOf3Sz+rhCf0fGOQ8gpKMYirjouF3zcAAEuxfAzgKYAFcGq1Ob7D3Tfedo0UDP5suYXvjPyaApHJk+FOOLCP+TdCPlQa2Ig3bAUSfweD3itF7ZHQWz3QaFs+DCQcUQLrT11ndwdxzB4a+z/T1hCt8zAAZi4MgTLYdqre5Az4u72McIqo8OmDbusQaGxEuo7S50m61utNn2Nyj9gs7PbLGTakJkKaYoovGPiA9B474rtUdegzMqUkNztA9EwNrb/g0OKPGr3GEliO6HKwBg7E6g7tx7vnk1MAV8bmExwKQepyIh0yVbrS40IFGnH/NmuIbh/jGQDPBhLNwnksfH0de/g6gm4P8bY6DtwyYHJwHFT4HbFqFhXoydnDQgyuLmD6ZRiNh+7cdE0DK/QG48jIgtImramyOtCsZh5IYAHYMkiwvQwPXa5D3XK6esXvSVyBdrezj1KbztM/fYdTsgzTFFAoMLw6QthSvA0zpnzCs7dJ/JaDUEQMBsPCaAq3EawKQClTFRScYuYLldmfwN/FlfDTquGErOWKAVACWyqkoZLrBqNXh+31yf99Fva719kxyZPTt4fZdxOWDyY6RV3Bkl9dlfbE7tMjmztglz7ELQTUAxnwYwifjzAA7Dc5D+fyS6bM77u4hAHy8ABINCdz/nUhLoXVg2lDGoeTIADLJOfxCa4r3aYCaYrbsTjAB0hRTjkoS+rjI7mxO7+8AREsAasI+YCyc/mI0ehoagZHAojQ2ZcZoYFD24wGA6KIirHq7yz/W6hj5HS06ZdyGwaEjBkiVLnWNQJcSfNvuTBtk73f3tyS4GLhoxoz88RpZMp7zglHOw3OfC5MUgGwPbvJf5gJKWbgC1cjTnQyZk9+tDtkE4xOC27EBJPs6JY5WuNiM435DPySyIWXUOUDGr50kDZzTPwPlLu+PfZwH56sragKkKSe8wPC0Sh5GhYdb1hsAOQEGtk3YI5cVdmT0LlEYHo2PLqoAl35dP8d5fvsAoAekD8+TvhOu7/9LnGwMw04wsqMBSE5mJkCyKyDwrj3FN5gbXUhwhxBL//suwP0PgxU2MGz2tyFMNgaGvMhvhK9W2eD+1Th3H5/n7j/ciecIAFKl+aDzjAPPsL9PXH7/pzaXL5I8SPohFfCpHY46AkicU+VF6QPQRhp/hzx9pKYOyeh1R/Hq59qfj6vZB2mKKYmAZHEHPFZn8F8AogMx91qMPmZMB7QpM/utLv9WAF4zQHC11RnYpTFJGhfu0wCS/ZCuwH4yGRk9BjOFkcVGgiFqE4iYHC1AihFzZLrQ4vL9TA//kkvCp3a7ZNipYsi6GoCGE9iRxvfA3nYrhhgbrdeA4iCA3GBxedOYxu63BM9E3h89fgCJPEo+WL6B1+2utAGxNexdBMhkt+8igNpY5GeVmhzOd9JhvPq59ufjagKkKSe4JBgdJ0ED8B6AcS1U/YYEBDF2GBEAL8XPkel9YjCeUTthNIusTu/fAY7/tLoCqwVgYoxFZ2ExdiSjtHZ3EAATzOrONce6aICo5BgBEq6lxem7pfv1d2kAzIGgGCgqtiqj50rUZO/AZKR9vTZSDVCXie46SCAOur/a0klnYKMlxeeTzXKvBoN0HAlAqkajg2vMC59BPuASK0CaZXN7f9e7f0Z81L/d+4LgN8sKZaaJbcBIbu7xij01Y5vkh8z+yNOj1ARIU05oESCKg9N5zuEXAswmw9A3ictJsCMDjAEkN4rw75fR1sEPfWxzpb8GgPwD3MwRuGeRPEOQpLErkKHhq+dwThiNZ9Quqyv4Jox/iBYtBAYe64c8ZoB8HyxyaBwgE/PY/j93A8fzD9vdo2q7CJAbAJAjGYYCSN9jOLctESAJdgcBjypD6bftEJTwDDfk0OJhf60z8Fgvl7enllQI0x0HQ0isrETw2+IY+Rs0RvPwHvZy1yIJt0OAPGRalJoAacoJLVK5NQMDI+rp8jrtTt90MBBZH0zjgKFwZxdl3AqMWtWekGPW2TzpmX0Ghr5PN9Xm9L4D1qKDGI1de04MTTFPstLU0XDNgyutTt/wbpeEz5C4BRTbNOM/VoAMagCpu/AMywAi3SSe2H9+7gDhPATWXKv67A4FkAScwCruRs5nY32QXQZI2UlnN44sm/aghesASORB8ulO3253+l/uNdB7qSRUhPloB5CGAa4+jvDZVkdaBsJaK2XNBk4BpHoPicrVREiLbw9+t0+LUhMgTTmhRVVuMTCLa4TV5vLfCwBarhiMPjkcBq9ASX6LAQ+WuZH1NmfovkuGhU/t6Qj1AlA8Bfazg8/iHoJKnEHSzaaxca9IAZngZ2CiTwHELtbjjwPZsQJkQHOxFUAOS5hr2XZSv35Tv97v7qmxPR05IRthRJD2NdxwQsIwAqTqYlAjuZ6MVoS/Isnhv4PPnvVTAJLT38EotpQVn5c5mnrfLO6VPlucX291BXbJhh7C4HQAQ1zMJ0ez3RlsVGbZBvpviG3yQTEyRgFIrfzwLm2e0PfxzDMIa2+8rCT9PEp5IU6cD3Iy/RakpQXpW49n9mh9lSrNet5NgDTlBJYE9yzZEbjClhKcAhDbpDr3YVwaY8RvfbBFA4pR++FazobezGdlsCLFm45n63AdRoh75NmY4ct/MCI17QRgZnWmz+zhCN5svcx/uiRAASX0GAEyxV/I78zoACngEjPitpPkvyHf/F4LnnkDz3OFDcIItnYAkK1qw4qM3VZnqMwy0HcLnz3D4evBb8scDJDyjHqWAEkmRwByBZoARmU4Pw/xrAcogzEGCcjx+wnG7K8lm3UF6qwpgQeMm3y0A6QYQLIcrSlpN6HhejfeHUCg1sJWLFIbBErfjkZqMa5FLc7AMjzzmY1r7XVQ1/NuAqQpJ6goEIq5Z+GTafQw4sJkz6idqnMfxqXARwwHhr1PVsUIy8rYBib1N33zCW4ma3Ok3YrrhXZPCK40jZPrm/m8DpI0PM2FlMGaUSvhCqfzq36ShJggXV0BSJli1BFABqbj2g0Jcwg7lPDJ3BEcz/J7LTUStgCZAVREkX6XX9Zzg1WDAQZf7Jnil++y8HMUuM7dfDqZKC5HNBgALNHgcrrNaExeQjl9COBBWdGljwG+ihsNkhrQCm1CmAUWV+AySTKlPUBqYr3uXkuPFO8IqyeD4RoH2FRadIAk8KZmrMW7nob/z+EdzBZ3Xu43AdIUUyDhkx2GqTVn9c84B8bgAxDUwxgANnQlAYhGVxGgJAMIMpCRUQ0jHkPXWgIAoPV0ei+3OwNP4vwOBRYCrAaw8JMpibuePJhgMwog63/Z5jZuRAvANjC8wwKkgCTD164JwAXeSk7xuSWczuUksLLvcTTa6g7MwXPaRPFAh3Mgbe6A5NvqDLYA4Ebp+eYmwDanNwfpaLcWO1ZuOPoUQArzTidrm2hz+B5GfO/g3J7kQTEgY1zMjxwZH9zsz8Du3kT4NzDNjFM7Qtm46Q2cGo3n6iCA3XoBSMSZGC4UzFRbOloDsB6PND6McyV439tV2cbyzLSbAGnKiSoGgASQkKEArJ5h36ACGriZCQAJo4exEwS4fhkGVmL1+P/P+OU/rioB6AzHfU2yu7YYKJ4/GCDhptPNHs1BgkXWlJG/IhCqUI4BIDUGid9Re8qIP1odI37IDW67Xz/yYrvjwe/ZBo78fpIjcAUNPNnh/TVYXC7AcYHVHdotwA8gQH7JSHWA4G8BdK1bYD/SX24bOOLGvkMmS3q5IqjLACkMdNQSsMWxFofvN2CHTwPMPo+xdaXMD+NXjNgzai/exRKL0393N+2TD5oAGFlGMYA8CeFeA8B/G2WwR9LLvsYYQEoZHWC/sngArsAca2rg9wD7uwUgU0dJ37EJkKaYIkLDUiDEvjquLQY4zowxnRjwECRExVDYL2Z1BfbYXL7n7YP8/foZPmBF4YACnimFIe6RcOJz8DSjk98yJ1IYmSuwCYAStl1n+NYyDU4zusP3Qcrvdv18/nrE8yqBCGkeDZd7nNUZmGBxhbKsrhAYbnAamO5CgPNW5FdYsQpT0qaAQSkHSfayQZD+QHeGbGZrveae2DLJLmyYK+EyDnGZPaOXoTEaQ5CxOn0ZSNcWAqQCZ/05ABTLm++CIOkKbuRyRk5H0qLFq0sEJnu/8LesLu+vEd+iWOMUyxPDE6DT+o8BdCgfm8frAOD/CmkuQ7nuksZP3rehHEyANOWEE/Y7KoYm7IPTXAAEo+g2C5uBMcN444MUMBhch8ESKEbjWmANmMpoDlDweeM0k6TrR16Be59BWBs1wxeg0TQGGAxTxcV9ItNf4addh+mTt5E2fdT20ABpYHpUOR9otbqCOwEQ68G+6qA10AakpxHHJgDOOhj7JzJKzEEVMi2VRqZLD08GTawu/z4AqprzyQEMuO78XswlXJWjiQAkB2m6CJDJntFVLGt+LjbJMXIYAEdmDDAdSDsZtQJ+GRDTgSnIj2X9A43PVf3u1hskgJKhC8F23f19+E5wbws/PQuGz7j1cle7lssXFCXP6+0pvnFk15aBI29JdoVmI549GkAmMH4TIE058YQVWnNhKUmDvJeDyb0EsPpEQAsGQYMyGAkAEkauDHkvgGIOGM2vY4ZhCAtsNNnq9o+A67hMjFF3s+MACRWA3M9JzAhzH+5dBJC5N8mhzYkE4B4hQFL5WynZKQxaAKlDJUiQmWkgogDBEBbDVe6o9g1wsqqP7M60u789KP65BYp8k+YIABLx1lucwYe4TRo/J4t43kH4u6RfEGlJBEg1Y4DgifdTngy2d5bjzviXIQ0AmTRg+PW4/69gh1sVQNK9lzRI3ti1wTwj7wS7BdyMpM/lI8/mdCi44vPtqRn7TIA0xRSK6nsU1tfrVu83bW6614G5METpaxMmI6OqAkRi4DQ4GjiY2MdgaC8mOUb05/Mixu+gOMLfgCubCvZVCOAT41aAlgBCAgDiQtLwXKGPcX2yYYefowFIgwIcCJJwuQ9SccEDACKCmAKPds9LWgEaYFujuRadQLXc6vKFeoP1SeoMgvv74Dq3O+usD1KF51E7kqM8mgF243q57umZdP3wC5GOSQCu9cJSmbY4OPGoTU5nuOkrwfpGcwdzLWpIrGE6Ca7/MABYqS0143MpIxUv8xZTGb12Z3AD4zeSUKYy80A21Q0tArsWAGWcJkCacoJLnPGdDYODgYwCoLQoAIy5ZsqwxFjU5HC57go1AhDG0LXUgtCnncTcbLIqThqHe7qdAMlnCRLtAE31Q8pgDYBZlgcGnQRECURjpUcHkKIq/Ykqxk82hfTxN88l3k/mJYM/wb3JqRnNcK3ftTu8aWDZffX5hsavMcogzUEMEmmLgwzCJeACnJl2d8YqmzOYg/N9ZJmiMzAccVUJuyTbJrBq03EYBkFTNht2p2+yOAN/6dnfMN0n1kVy/xkyGu8KNKAsAcZolHTwV2EpkFPv7zOC8rlcvoh82J2+3yD+JWC4MnCGe/me9LSbAGnKiSY07nifYY+BaQPICGEAcK9hQDpQ6MatmKQYnezE4/TPt7l8w/RJ2BKWDNTQSFS4dJXlW9ruUBVYiTKujgASKq4nXEKAA1ha6EH2h6pglfEfPUAiPoKUrsroD3G/lm8CJNIE0Nhsd/mnCTPrPypJ0iQSPtkRjru2RwGQq63OUJ76fGz4ZDx7g9XhK5NGQhgcpxkxbyx7LwBSudlg43sAbMV2ly/V2KXBMk9yBi60pHinIO2fcv6pNEhksRIG0uHyS/8j2DDz14TGYQRXP/Fpm8N/BwD7IxMgTTFFKrPBHQawJQ3kxrjBuTBe+ayruNZx95BMhOxRN5DdVqfvn+pTACoMThW6ZNiwU7v16/d13S2m8Vkcvp/hufdsntGfa/1rCoB0wxPjVcyGwJzsydgEoH62x4C02BcDKUcJkAJKAjQx5X+D4R+s8gynxjCvSHuzPcWfyw/va0lRoM08GgCh6wCpXGUCpD0lUJDkACOF4NlLAIQvoGzVNBuUtVWt01Z5IHsnC0eawCCroH/mfo8SOYSf5rW6Rjnx3t5i3Fr5xEBW6yrZL2lLHb0bLLPM6orvVI777iRAolEwAdKUE10SAZJrrzl9BAa5KdkzRvofxTiN/WcwdM1AOY2mHtceibG8QwhZDcKYABd1o3LNxXWl4cVBjWGDMcm0FE/GHhhzpSXhq4dHDJD8rwZptP5PsjI5EvjkOo2/M2BFesjYcD+AfQvS8z6nP53jSVcf8edoPcHg2AByFdKRrwMkvx1jcXCjjFAjrkvciQDJBorbxHGSemATlzWCvXP9uoit//Akiyv4JzQuHwh7lMEnlHMMIBEGykveQeqoLSib57sbvnXDT0/QxTYB0hRTWJl18AET6unxXgtX7HUYSGsyjQtH3bAASAQRGooYB1yw/XDzZuLeYfab9U8ZdC7cEMLiCNwO41yeLN/UptvazvgUUCn3U5YmBtYBlNJtQ8SlNbjY6V0BSP5WSoOGm6zAESrsSfKgPStpMD6rqQIkpFOLJ/g5fk+zDIRbi3QwPZCTjZv7dgyQHYxixwGyBSw8TwfIfmDxlhTfbSiDcqRxL8NQ74B5E9UGyDjAkr4Tv19DuXrwqJRPkuP+vozfSsbLaUssZ5UPPY8oe+2Tte70Wk4FMvYfC0ByTbY7Q3ZvUs/F0m4CpCknihAYNdcacuZVGd1R2e8Ew5srmyxwnp8yag04YsapGUdwLwzk3xZ34KfdPQ8knw72ybl8aqK0vw9VrWv29+kxYLTd4hpltTi9v4XxzoHRysoOgJwehzI+FZf8V+AR4rezn7c4vNcSOJhOuusw0AG45zWVlg4BEkeeI+sNcErMLrszuBH3NSHddTiuxbnPFWhC3R2CpPa8XwZxZHI4WZc7tA5pzuSSQik4CMFf+3kIgGS+NBaOuKQR4HVPejM/paADJMUu/cCBlxDXTlltw7ywnGSABYrfykUexbXwc60O/x/08mF3B66/bvNoLrqxkcNRZ8SKWQbmWJ1p8dVP4baTwVb/YHNyFDtDbYJsAqQpJ6YkAmSPgcHvgk1EYDyr1CDJQVt8KRAhKLHTn5Omnf6FVpf/KRhNGM+GcT0bBpMFQMgUJVDgCFfwMYAArntfwDMrEcYexWw6A0ifGCDSAvYXqkyG0fK7zkwnARL3DIQeHiBdMrjC/7Vgoi9and5R9pS0kXCTH8H1vyB9YErBPcl0JQkkAiIJYUi6pN8OwEJQEkbnCpXg2RvsN4eFOccmtEOOB0CqMHxhlO16AUiWN9OgAyRcbpYNnmf5rLU4fQ/r5WN1jLgZ98yX62yEXBK3Akg+x+lKCtw+R3ivSv+xDmjIhwmQpphCoWut7xsI96y7Y2SKxel/B4axS/ZABOgkAqQOGvpvGk3gM+jHSv1bcexIt2n6MYzpE4DlLtwrbqIWniFMPQ4ACJmdMsJ1dEHPdQyXzSC4asXmHNkJQGrhCeiSKcnzMOpAiTUl+Cuu9CHTOuumjHMsbu+liCcAprYQYCUb9+IZ7dmE9Kg0Cfti3598p7oZTGwcPxsrpWcQ3NvJPMhYuCp/movdIYME8Noc3ttRVtyFRwEd56IqoFKDNq7QAZX39N1JTt/T5w4J9ep2N9xzV9q9yFMz2a7ekOEZKRs+x3IVkHeHVoF5jpfpPZoQ6K0ucbE/PAxAaiPpJkCa8lUVw8DHxdcHz7SneP9oTfHKFl+K3SlDjhlGXBUI4TcBg8ZLl1ypYliJ/+O/lVtHRieAJmF0rIiX26iR2XlC+wDU7yU5fGoiOgBOANLFvtJOAJLPiyupAaQz8I4lJeiW5w2SDIDjOmhcR77BWFW+CQjG9KmjsDCfrD23uzO443YRGPGNWlAxsTnHdG2i+CEAEnIS8wuA/DfKV204zDwqkBWwRliSPyrvS0oJ/KRHf99FVn6cy5OxiUAOoGN8TLd6DnmTsOiae9IrwVD/GFutJBI+2ZaSxlHsDw/TB2kCpClfaTFuyy/bfMEAIwClrfZUTsHRASzmbhpVu0aADAAsAJIuuItdVA0g9XCM4RqUAKcNJhAAUwLLLSmBe87x3H2WfMOao9ick9hFgAQQvGfzBG/U3VAxYgoYdJLTezldfwDWp5rRq+fj6VNHAae4a4w8rLWmBELfvjbMpYaxrorjBJDdergfuAjAl2dzp69Sgy1kwpIufXqSCoMuuCs4x+4M3s3lnnZX+t9sqaO3SX+pXhYqP8LaOcXK6knfhXBf5RZwet+lJidxyaEJkKacwEJgjLNHDjBw1+lkT+hNGOwuMiTFUAxG0alqhicAoIHAoZVgowPPIVT62mDQahdtAMEGGO0T1p+k/YDGx0EbxNdlBglW9b7FE4x9cqHvkCGn6Qxa5g2y380VmmfzjNqrQIH5Ssi/Fq5Ku8TpTt8L0Ho5yRm6vlvCIE1na7GR/yMASIC5BXm4B2C0UN1HN5thSD55ZP+jlhbuxRl8FuFPRn4r4B7vNORDZ57a6ifZMWkz0pTZc+CI7xr7oSnaRPEOAJJph6quBpS7CZCmfBWFwGBwrzmCaXGkeWE8K2BssmEEjaAdQBjVABZigAQ+AgCUvw+jyuD4rB5Ox3HIvWpgBCDC76NEkwakDWKakxwjr7Cm+F/BuY4BUns2BpD8Jo0BINlXZ9zYwTKQ/ZGBx3HvNjVqHMtb+/RJ2OLaCkCkL7I5Aved00+bFwnpfLuzIwNIrou2gOHh2bfxbiSfmpvNd6OlC+FJAxDYivA/wrkPcW4NPIF9PK/fp/UlywRzDtBYnb4VyU7fXfZ+B0/PMgHSlBNbZHAm7l5zArfV4XsGlX07K724wQog24ODrjxPhdHEfh+JagZHlf8dx6FAjhtYyCcdAAKrLSneezgP0uYafgn+/63rANnuq4YsAwNA8nOwNkcagCGwzO4ZfQDAhzQwTElju3QpJiYA4Unfgv/PGb/nfbwAkiJhccmgMwD3H/fS/U8ASKgLACgzCgK7wIR34rhX0q4GwUQVQIJtc/DNk/653eV/T3ZY70BsXEllAqQpJ6wY2CN37rGnhAbDqIrt/DyrcuM6AgZdcQ1GQuM7HqoAQwu3XVwEOQI1+7tUPxs/j5rfA26hxf3ApXZ38BmAj3ZNA0jZVEJP/yEAUtaJx6fmUOz9/f3wzKtwsz/RwAjpkHJolzaAE+OTUfYMsuK5Flfg52R8DAf39LEdekdxSd9hAFIaMLr/YJEj4UpX492o/Aj4J7wfhEdADLKMtHJNSLMWH0CdZeXOWMsPsXF3dYlJiaEPtUt9kCZAmvJVlMT+R07xQCX3Wd3pVey85xZcmjG0AwX5L6xE3DTce2z6sBwFIGTQRgs/MV4FkDiS+RAckj0Zb1oHpg2Fe30N3MjH8ewxAKSUQwwYZJPgFF8I7BFlMYbAhTRIWcTBIV4WHGVXn7p1B1ejgXnMOuBBWY3S0xHq1TFAxkBG0ndIgIw3YhxA+1myKzgDwK33D2v54wfQ9PDY4CQAZPyaihdlweWhLKvQUqR3uL48NBzultDlcjiAFDZqDtKY8tUUAmS8U97mSbsSBvU8jG+zACSMXjMGgoBuZFQBRwEiV2inLTVjMwxuo92dsQmGtNnmaac819F5TQFcGyVOT/oOGDcnYas4EuPlbzFOTveRqUKe0QstA32jrQP9Q2HET8BQZUMNSdeRuNgCjokAyRFuuzMwCID2LvIGNk1wkHDbl4d2Tn20C/cxD+8kO9K43K+b9Tq/BaDBQZpOvmrI5w8DkDrAtLWdxInc8uEzd+hjNiqMV72jg7pA+F/X+DlpZABosqtPBjerKLQ5AkPik9wRlwHQTIA05cSVeN+jiMXl/bnVFZgDI9UmBQMQlCFrRiZGqMBRXE7/J1ZXsBy/n7N6Qk8CeJ6xOUPPwWCePbymPxu7153+OI8IqxDxr5WwBZxjhq7/VgbJTwNwNDs1Yw3c7JetjrThthTvX5Hez8TwVb8pGadK75EAZIw9tZ3EFSzWlEAB0go3m/MiGS7CipeJShtXtCA+xcpGMa5Gy0D/3QyFAzZI8zhc7+S72AzDCJAZAMhAIkAa1nb3HpBmh5vtwz1NakRf3oOeplg5daySTtVnKgAZ2mF1+KYmO7m5haoLaselrgMk4jWn+ZjyFRUDGCS7H+hOlxLAsTYGBnHD04DAK78JBAApurCLLSkBX5LTd73N7b+KnwiwDAxcZxk4sgvK+9S9dqe/H49WTk7nTuPs01L9nwqQ9PihGmNpldF1d2gXgGIeN9+1OXxvAly3cc24AjIasgZiEsaRAqTaCAN5vgfxLYVbr20UgbDiadLKRQMeuLSqXy+4x+oKFbDLgjv9ANDG4D75XAX763ivFgbzhDC0PsHOAJIAo61yuuSS8KnSreD0z0VDhjxx+WSsIVNl1qkynYiLQO4BkLuCDSi7dH5tUuKBKICMl0HnAEnmClX5NgHSlK+cqK25KDAKa/+R18DQnre6g2pLfnFzaQjCGpWBCVvg1ljiSm4le+NghoRx9BJjsckD7jvP4vRzN22wLWGC7cFEARRHYMm4lCu9FjoLwLkI7uInfCYG7tL/eEQAqf2Op8k6cLgTgPcqQGW7cmkTGg29bHBU5wTkBOjSEUfa0HPku9i+AMpz21EDJEHbANzJjsAVCOMVlIFMZj9EV0g75bvkunaOXo/ajbIoRbn9Sm1oLKLXiVj+uwiQ5iCNKV8poQHoKv1tYgjuUIWwEjEEAUajweG3F4asDUZ4RlXbnYGM7tc/kMwwjosABAByfwSzWQaAlPXQYIVcWqgZpMHY4wMQuwHUm6CboZ/jXKtcY3qln1TyoAZ3BBjSEeahADIGEiJ4jithxkBXq08SaJtYGBsOpTF2JgNOKB+k51Fhxg5vkGmUPkoBb7jYAuCSfoZ1aBdb3N84QNp/MqI3ymks8lKvgTHCEYA8BEhKeiVOAXp3aDvS8RzTp7vXai/QeDyULrrYJkCa8pWSGDhS+D1lqzMwARV8DQwb7i0MLs6SdCPjb8XclDGUyNZm19+lgQzCo3tGY9AZz6FU21y2H9mLwYC4tyIY2xt2z+hPZRkcN2VIYGyKBcX/yzleB+j49lmdPrWJA1manJf/ewEoMjGafZsIczqY8s3xdcdIz8EAKeUjU2scvp8hnHk2T8YBmzayb3V6AQb8bo2u8i2bPQAT+bgVgHA7zr0h8ykd/odsKYFGmxuNj4sM1s+123slHACMhEX3XJ7LaAJwZXM+KuNXkgiQdIntKcHbVIOGZ8iMFTi2f2cGlTI6gGcAkDKQxZ3LQ+deG9+cQs0FjcdDMQHSlBNPCFAxgOTIaPBKW0pwGir4XjE4MjAFSrqBKXakGTGMa4/N5XsezJNz51Q4EmaicXVREvr9+AkDpCMbYLRGmI5iWWRcinUp0GPa4ipMUe6Tz6ISVBVLg6pt2DhxOu5iC4NMHxoHSBqwIe0C4t1i/y2uwGUI+wUA3HbpY5R+P/8+uvhg0W1KhdES6CQerQtgOcrtcZvD9xekpdEm7j9A2iWTt6FMPxoA7rCjudg4tgBM2zFIKeP4bkuy2bD3WoSjVg+pd0Jg1BqFg0BSXWN6kXY0FK0ojw9s7sAvuxm+4a2ATMpBqxtdBkizD9KUr5AYKmyfn4KNuL2/RSX/QLY1owHLdJYEI5Bvl5CBcWUJ3OxmqyMt4wL9UwM0KAPrOlLhtlptmpsHxnauXbnZS+RTCwQOF9JCRijusyjOA6y59pgq6dJVMSoq+zHV5xqgALaeN4xtSx7yCO8rAQj9MrYxrICCASDbMTZ+ozrJ6Q3aUkdV97xxXFvyjWMlPAJ4XNVcTlHEkTwkzG4IDiJVWVPSaqyuwC51LYx7jDsbsc8SaR38cFvPIY/y9zqU/+Tk/r6LtOgpLBvFvDXp4wjY8G4mAOi2KoAkMxZWSpDar9SnVDFrfq8cTI9llL4D73saG0YtOIieZ4kj9h47B0g2SFDWC5NBmvKVEkOF5RQPGE4m2NEqcb2kj+wglgBXEIaA6wDI3XAzi+BW/tIAIjoLjBnWkQhHTsNaWPxtGzByIFzP6QIcGqDI6LSAia4EPva/KQUYiQoYEuTpznpg1J6MvTBupHn0Lvvg8G7boDE7cf1tuPK3xLsHGHcsL5oY/l92++lweQfB5X8pefAjawGAGwlkSMdae+oYHKmj1+O4AccNKKeNyakPbUK6NgG41lucXhwD23DtE1zbjvOfgSHvtKWO3qUGS9L34ForwmYecL+vI4BMYNrsmgCL/LPVHVpBcE0muCLvyWgkOMIv5UC2SCbLd+omeyQQs39U+jkzOY1JCw7SGUByLXZgEVgzN+VlfSDgQoWVsiEFk9YZZNAESFO+7EJDUGyNYh3gd8EAuM+grO8ly1BGQJAUA+BR/guAetK3Wl2hJzk1RwsCIuHFwjxiEZc2bvxnX3d/HwBkARjbuuTBYTCX0eIqa+7yHuguXP8UoM3NeTeARa22OANNONbi2kowno/wexHSPB86G/eU4n8xDDkKwJqB34/h2WvYv8j41Hes42WiyUltsXmi4ZN7OsK9erkzbkv2hKYku0PP2T2hJ5O5escdegIs9kmE/RRY7TNIo8zvtKcEn7enhF7E/38gDdzM93Xc8y80QP9G+t6FS/4+zhUjPVGkpwL6IVz/GuSjLMnpDwLcYp9wMEhCGpMGjByM9/YvgN625BseO4DyOgCA5EfOOE9U5orqDFUaGwAwwRT3VYLR/p5Tu7SgKNo7bA+QZJCBRQBa6VtF+eqsVOoFmCk3DtH6dzmg5jUB0pQvq8DgDZW1jyP8Datz5F2WlMAysCrZCAIVnu6Y/tU8YQgwEE4uVl++cwUbLSnBkVwhogVzTO61QWLPs2+wJ1xgGPjUXoMffgfA/EZyauilnp7AX3u6Q0/38gQn93T7c/F/XK/U0MM9XcH089wBXy9P6MGeqYF7cPxDT0/wjl4e3296u0K3Aph+luzyD012pQ21ub1D8P/HfYeMSrr77qlfD4fbTp42bdrXeCRQJmgbz7UJcHMbuPM8weRkx8grbANHXGV3pf04eeDwHyW7fT/ib7tzRD/5/guuWQd4r+a0Kc7ztDt8/RHfAGpPhz+Fm0JwhU5PV+iG5FT/UHtq4OfsC+zp8d+BPN3da1Dwtu+kZlxzwbDsswjQRmWa4qDdrRu/nQ1Qvhvl87J9yMNFttSMUrDROXiXC8Gal9vco+qs8AxsrvSNNlfoMwIczu8F63yFc1f1b19rfZtKEYf2m3KS1eX9I+JYwcZRe/9sQPWuDmlMcV31g4JBou68aQKkKV9SQWWNrcoIn8zdYeDOZVudwS26G4tKzwnEyjVjn542eEBXl8v4wCBmgX3dpH/jGtI5QLYz8MOpjGxD+wG4LgCD+k5q+kCA0i3fGRwafOGNY67/3k0Z/S7+6UOXXnrr2Isv/UX4gh/8atx5V90ZtvX7TV6P/r/NOuf6u3LOvNX7+jfD4WmnhsPRUyTML4lMa2v7WnjatFOHT55+GtM/bFrb15h+AWldBcQFsKWcyIA52p3sCHgAZL+2uH23cbJ9ksP7YNJAX4jfBQIjzUYD9zje28s2l+9dANobAOT7ugPsVcyQ+Kc2UC0EIHU5iQ0oAH2lcuNRB8R11/p6pZuD05oAntJ/Cg8kxV/YwzlyoPY8xARIU740QsBQBmC9zH96D6f3RrjLb6GStyoA1Cq/uGR0zdi3x/8AT/aPpY6GO+t72tbff4kEJ8LwDAYAw9UBj0Y9DYaudJpB2742DMeYDlMMTgdIlc5uJ/ftO/w07lEoO+MIIB8XpvrVECknSvjkXtfe+k32p3LQ6az+951z5lUPdLded6+l9+A0+4U/HXNe35+Nu/D8oaMu6zM0dG2fIaFrew/1nx9jjwdLQvlaUtJ+igbxPas7uBkN5+cA2p1QdnNo80y5YYnmvrO+OP0zezj9JkCa8iUTGpSwA2VYnPsoX79zhlZJ648KbgV7tNII3KGtNk/6GptnVA0A8kMYwJyegx+a2Wvw6Kd6p4Zu7X1TxjkMg2Cn3NToKYrhKBfQqDrribmHRrbynxLESyC+e+rCr4enLT91+PTa0ybXtp72QlPbN/IrV30zvHDtt3IL15+e82bVmTmzq86cPL3229TsooazjBr+d9PZShefLeemLTwrjPty3px9JsI9I7dwyenhtxd+y/t65Tfx/GmMi3EqF141TP9Lot6P6kpIbMCmkb3K+eTBwYttqYHbAYiPgh1OtDl9j1tTfM9aUrwvgaG+Dv1/8ECmo/GMwn2fhfsmJjkCV2hRAB+R7//BvJtiSqKwkhKgNElyDr/QluKL2FyhKps7fbXNGVyKyl5idQb+DZb4N1Z0sINwT1f6yF7u4F3nD0r/5fdvefgaB1xa2fEFQiMi8AjwHYPwebLKqQsXfp3Akl9Z+U2CzRPR5WdMnlf77YnRxWeHZyw/Ny9a3SNcuMQSfne5bfTri3uG317ee9z0ZRdmvrfyognFtZdMmF592fjilT8eX7z86syiuusmFNcMyJmxzJlVVOPJnlk1OHNmzY05RbU355Q03pITrftZbln9L7Kjtbdml9T9X3Zxza+zSmp/m1Nae1ukuPb2nJl1d+RGG2MaKan7XXZR/Z3USFHd73JL6u6Q+4pqb8spqflNTlHdryJldcMipbW/zCqs+XnW+9U/zS2tvym7uP6GSGHtoJyZ9e6soqqUcdHq/pnvr7wus6j6qqyi2h9NeGvpZeHpyy/JfG/JReF3l14AgO0dfnNRMvMoeWWekfesd5eekw5AJhizbAjCw6fDHY+2SeOkFeVRi4BlW9gAlOLinxyORk+5zJ97+kU3+3qw26OnJ/jdcxz+H57Vf0S/cwaOvO7sFK+jR3/fzT0cvt8kpfjvTBoQGKRvnSbCBvEY64cppvwnJF5JAZa9Ux88/7zU0J3Qx3oPyQicP2TU7RcOzRhywdBRPzn/htClBFAuaWNl52hnX7hvlwwzTCo+GqERLl9+KtkWjT4SbbLlljT2yaxouCi/rP7S3LKGq3IAatlltam5xQ1DCTg5AKKc4ro/ZRXXPZBdVOfLLqnNyCmufySnpH58VnF9bk5J7eSc0vqncN9fcHwR/1+NlNb9M1Ja/2/oOzj3Pq4VAbhKc0rrynFuFu6pxHEu9IOcaP3C3GjDIoDZYvxfgvs/wnGp0rplidoginuX5pbWLUV4H0GX4N4PcW5RRMJqnB8pqZ+L9FXidwXOleHZEtwzE/dOR/hv4/gGzk0DwL6SU1z7YqSk9rlItO5JAPUkpDUH58chnw9nltamA8DTskrq70Oa78L/2wjABF6E484m2AJoJxRXX5ZX1HDRuJIVfVim+SjbMBoXAugXBE4IE40kJ5k77vxG0iX3nyGuPeqJzC1N/PCXKab8b4qwAs2FivX3QeEbf40TxPsOGXPhxbc8dPGPfz7afqs3X6a8HJkgfLiRNEYa5fj3V9qz3q/6Tk5J1cU0WhpvdlF1/6yiFZ6s4qqhZGpZxTW/zymqvj+7pCYQidY+DPDLAjubBJB6Jr+s+YWJs1v+UTBnzb8mVq59Z9LcdYWT5q4vw7ESxwUT563/aOLcdVX4XTdx7trmSXPWrZlYuWZjwZy1Wwoq12wrmLN6R8Gs1bsKZq/eXTB71b6CWS0HcGybOHt128Q50Mq1bZPnrmubPI+6vm3K/A1tUz7YKPr4B5uULtCO+u+OVL/OZ+e303kbJGxRxMU4JW6koWDWqrb8iuYD+bNW7UW6mMaduPbppDlrtk2qXLMZ966fVLl2NbQJea5DPlfguGTi3PUfILzZE+duKEWYM5Dvtwoq107Ln7X675HyxucB2k+D0U4E2GYCTB9CI+MHG74vu6jmzqySumGZYM0TZla7JxRW/2T8zKors2ZWXZpZtPKice+u6DNhboN1YrTpbHYzsDtAe7HHLO3rHX/HullMMeU/Kqx0umpMkRWRLhIr57Q25TJJRVWjoF0SPP+1acvbTmU/Hd3drFkt5xSUN9vHTa+9MH9m/aVwNa/LLq5NzSqr/7m4oRUt9+VVNIfyKprG5VY0T8ytaHouf1bLKwCFt/LKmkpwrTK3vGlJblljDbQlEm3YmBut+wTguBO6N6+8ad9EABsAYt+Ueev3TZ6/YT/Aaz+A6AAA6cDjCzYfmLJgUytAqhX/Wx8nIBlBqh04TRZAXNuG8ABSazRVYAkwVcBJ4AKIEryUtsQUaT9IjdeVas9pQAxwVmHHVMXLNEyuVGkC6MXSyTTH8qHlRfKGPKq8btbyvknKAqC+H8/vB5juQ5z7UJ77UJa7wVBRhvVbwVg35JU1NOeWN1bhuDi3rGkOyrUI7+LN3IqWv+P+qbmzmvORl0fzypsD+bMa78kDM80pa7wlByCaWVpzDRqyH4wrrD5/0ltLBTzZN8u+1cm1taexG4T1SqsihxTWQVXnoqdwlJ6/+SzPa7cY6m3snCmmHLuwklFlACQaPUVXrRIecWXDM1+bPG/Lt3NmViVnwl3LKq3vlxWtS8mCqwsGchvYyb0Aw1CkuG4c3Vqwlufhnv4L7mJhTrRuNox0Uf7s1csABDWTP9jYCGNeM+WDTRtx3Drlgw07cPx88vz1+wgOU+Zr7I1gIICgVJ2DEugIIlAjuBF88me3tAIYDgCcwMRa9lMBvPvzK1r2AYj3AZyVAjjyyhv3AZgBvI0EESh+lzXgXAN+G7TUoPiPfO2nAmw6VP16wrPG8BK0aS/jNqZF0lbRvBcqaUYeeJS8kGFqeWvNj7FfA8hKuRBctbIygquhDAm+kyrXteK+vSjbXbj2KYD2Y+gG/F6N5xpwvbpgdsvSvGjDQrjtFewCyC6tn5ZTUv8XMM+JYKWPRkrrfNkza/7MPtrMkvob2QWSNavxcqTxgknFDdZwdOMZR9MHyjoq4KnVWwcH+jSGeTT115QTVbQKo48Gq9ZWA8gjaHVVRVx+Bgc68srrzsuDi5U1o+by7JKq68cXr7iBBiAgWFQzSvrByhqfhpH+HWzoLbiwpTDQBTDWKvxvgVFtxrXPaNhkTjRcGqW4nws3tT2xcDN0S9sTCzaLK0ojBji2TYJrqwBvdStYVyvAoBVg0ZpX1tgGMGkDo4TW8/cBgMp+sCBRAh6YD8EjBih5FQocqQQUpQDO2asIoAnAAjdcXF3GLSBD1QA4xjhjSnBRSqAGk22n8etK+YwhHAOw6ypuNtOgpUdYpqQTYM80Q5GPBMBHnrX8CphqgC9scT/Y9gGUU6uUFcoM59pYhngGZSqstpXsVfLKNGtAyncRezeieD94Z7zOexE3wmjZi7L8FOC8adKc1U1I7/JJc9bMQ3hFSPcbSMuLkYrGx8FWxwNQ/dmlDX/MKqr9ZU4p2Gfhims4UJYfreubPf2jXvA8zg0vXPitLgIo6jNXL8VWMKnuIa3eyzmt7ptyIotWEQQANVX9NwmuSYcilYlAOG35qTLNBK07O+3zok3fg9t0fVZZ7dDc8vo7I2UNPrjEE2BUT4PhvAb3awbOzYOxrYSrthq6Fdc+A8jsAuPbDePaA9axD8cDYIOtZCpwf2OAAAMSFxOGBQNrFmOF0RL4DsTZHA1dM3KAHZgUQBDGXQ7DLm9m35xyYXVwE1ADa6KLLKoBEEEpZvBkTfit2BPcbirdb7ildE0XwDVduHm/KFxU6hMLNu3D8SCFO7sXjPdgnb8xUTu6Z8HGjsNk98ACxq2lQaVDpUtUpRlhSJlSdSYdK18oWXcMbOcosFVsehXKTPo1UYZNUpYClixbKeN4mcd/s9zl3ci74jtjWAKmWoMhgMpynY93PX8D3vnGfSj3PUjH53g/O/HedqCObMGxKVLauAwN2xzE/R70H6hXTyCuxxD+SJy/PbusHo1vw9U5M+u/O2F6bRKnU7Fu0lVntw9BUKu+B4sGllL/NddcV91OtDtN+YpJ7EVTVUuptZZaZdDu65I8sXzjGdnR2l6R4urLOJUkUlzz85yiqrvYwueU1mZGSuqm4vc/c8vqiwBG82AQywA6DXDV1sEotoEB7ZpUueYADZEGIn1iAkIGEBQGBOAiEIphav1yAmwGcNP63cSgYwanudFgK3EG83Hbk4twpOI/QEQbAAH4Mk6wMgUEAgCtCB/McdVuGPROMKRPEcfWiXNWbQaj3YDfa3FvC/MEAKmj6wjWtmLi3LVLcW4xwlo4ee7aD5CmeUhT5aQ562YjjvKJHACqXBtF/kpwTzF05sTKdTPxfKEoB0TmrmmnOKddl3vnrivis/hfyrA4qMSwcX62xFW5bh7OL8DvRYhnMVj0UqRrBc5VT5K0rm1k2qFrkdeNKL/NzBvzWFDRsgv53oPyBbMEmLFsCWQsHwExlJeUm4EVauVpLFOWv/4u2dgIo0VY+XNU/2niuyQDFRaqvU+Da6/HawyvUt4T+0V3QrdC10LrCuas+ihS3jg3p7S+MFJS/xr0SbjnY3OK60dy8Aheyi0chc+taL6k4P1m+9S318pHw7oqup3oxKG9areZ8iUQvLBEQDQyRL7grkykZYvLScns98ktrD5/7PsrfpAdbbqWUz6yo/V/iJTUZuSV1Reg5X4ZFX062MJ8VPYatOYbcO4zMERxPcnEhKkQjDQXOMZaxIDICJUBaa5g20RtIILgKABYqRiHYnaaS0njoZLpybm1B/CfzHMXDHkH4tmG4xYc2Qe2BkbWMnn+ukaEUQdDrUY6V8CglsJt/BA6L1JaNysnWleCfM3A/7dgUP+KlDa8gvy+CMD/C45P4Tg5p6Q2P6eoJkf6RsvqH8kurhsjU4GKaoJZJbXe7NKqEVnF1Q/kROvvxbm76RLi+h+yS+vvzCypuyOruPZ2xPFbmctYWvcrjrQj3GFKq4dlF9fealSe06/zXumakHmQtbcxLKTzDobNOLKK6/6UXVhzD0eUOU0pt7RmRHZptQ/3B7U0PhQprQ0jD+NxLie7tK4ADdoU5P1p6F8R1stI22u4/gbKgtODCsHcSnF+Nn5/APBZHClvWpo3a9UKgGc1genx+RsaWbbQtSjrjWDGW/D7E74DgNvneP97cR8aQ7w7dnnI+1LvjGAn5xO7AhRYUvk71gCuUe8Z75xsUxrAGGADlPGfdYPPgWnuRx38NL+8aS1Y68r8iqY5OL6dN6v5+UhZXQRlGWC55ZXWDR4/Y/nVY2cu+z6nf+UWLrFwcJADPJoZdC6aLXVkY4ptGqa5mfK/I2SG06YNU6sTyBAJiHxhXRBHtO2U7IUNZ02c2/Sd3IrGazi5GWBxX25pw1i4L1MBGP9GyzwLv5fTNUZF/BgV8lNUTLrGNIRWqcBaf1msD1AYhG4AGgjGwI+VnwCnAE8NqPC3AGgrDKgVBiR9fqj0BxD/PsS9k2453Kt1edHGRrhxKwHQi+ByzQbwFYkxVDS/Dv0bwPtpMMH8/PLmCQXlzQ/nz24O4vzwnLJGgFfjnQD7X2eX1PxCgJ/zIaNVKeweyJ5Rc3Uk2nRFbrT+h3kzmr6XOWNVX460Zr+9vHd4+rxexonVmUUru2e+Mb+7PsGaGuZkc1kBo1a/KJ33bVk98+ZsUfbRyhzNmEY7UcM9eEY9z3CqzmSYevgSF+Jk3LF0IE2SPmje29U9CAKR6HJbdvSjXrnvruiTVbT0grFwR7Nn1nw/q6z+Uk58l7690uqf5JRVOSPltYNyihpuziqt/WVOSf1vUCa/R8NyD5jYiIKK5tDEisZHJs5aMwFlOhH/n8HxRZT3NDSW7+SXtxTjnVTmljcvRl2pRr1pxnE93t026C4ONgHEpE8U9eQAGjnWHw70qAZUV7J7MlEBUtQZAqeoqk8666ROYYOsN55Qhov6tQf37ES6tsPd34y4WwCSnHsaRcPwz+xo3ZORaOPDeeV1f8qJ1t6cN6u+X3YR3nN04xlco66Zx6EFNqYBpszk4CR4AUtT/nvCF0BAVC9EtWa6+3y4l0MAzZ+x6tz86Kq+nD6TW1w7FO7yXWQauaV1E9HSvgLGUASAWTBxVksdKvFGccEqWqQlZ+tN9/VJcV0/xm+q5m5pbphRYwMoUK3iSiUHoLFvag8A8FP83wSm0My5hwWVaxfDKOYAdIvgxr4Ng5uWV9bwEio2gBrMBywIQDYKLGpkFpha5szqO9h5nzlj5c2ZhSsHySqSGVXX58ysupJzJLPBEjJnLO+bW7KiT3hmVfKEinVJnEbEpX6ck8flgOxPNSt1XFiPomg0J09vPY1llDN785kE3HBhvWV88eKeMgf1nQ8VuM6ouVwmkRdW/2TCjCpnZkntoKzCqqFZM6uH4f38LlIszNabU9YwOqe4mt0wkwCQz+aVNb2cP3vVPyfOXvMuGsMS1K1K6GK892qA4SoA4Ob82S07UEf20iUnQOIa6pDGIvVuFK2OJajUR/0IZT1dsEWek/qnBtt2oG6tR72uzpvVNA8AOQP16mUw69yc4jo/SMIduWXVN2QXL786txwNJAgELO/QdQR1iPVIV9qn6LBhx7wKzJTOpF2hS4tFUCQg4ngoSh9e3naqsAuwHqnUYAlwsW7Mnln350hZYzivvOVZVMD3wBoXgZWtonuClr6VzI+Axsr1JFXvb0LlU2BHVxlKtqe5TXxGY4mcO/c5dAcq/lboxoJZq9fmlTe3gInUwWX7CJWwEmDHFR9w6epfhD4BJpcF128Mro3MKWm4KxduJe6/cUJprSMXBlhQUveDKfOaz5fpQWRtYFQCbigHLbum/I8JNwfhQAkbo8fnr+meX1zTM39GXd/c6Kof5nNApazOmRdtuJlsPlJS8+dIeX0amOdDqBsR1I2nUCdeBpN/Ewy0GHVhHs4ty4021AMwWwCY61C30LCu5eT3zwrmrNmNc/sFSFEXY245mCjrqjTsBFUNQKVeQ1Xf6QZx6SNw0VH/t8EOGsFw58FFfxPpeYr1Emm5M7OwdtDYGcsuF5YJRs58sUtKy+5BQnuljQqRYT012LHYsinHJnoBk/WR5Sjaf/iCzV2y/vSJ0arvCEOMNtyaE23wwkXNQwV7FccyMMQVcJXYSm9h5WLnt2KHG1F5wA7R4j754Val/C1MkS2w6ohnfxIqpIwKw12h67sDlXgj4mpABVuCSlWBCvZOwZwWsISWJ+DiTICLlgHwuz+vtOG2grKGoVmF1S66sxMKV/5wXEnthdlFDb3Hv7O454TipVa6hbJpg7iWTd+Yys0f2Bh8wWKsvHrZG5VdFzh/kLa/r1PVuj4OVn3wrL12dC+0o7A70A7T2sHzOJ+Qb604vjARwJi2/NT81yu/Kd0N7B54e2GPCcUN1vEAUbJ9sv6smfWX5kdrr41Eazx57PYpa/wd6tiDBWVNo8EAs1GvnkYdfBWN/HS40JyovhT1rwn1cTPq42dQTmWS7hyCpcyFFebJRl/Va1XXeVQEQFx8ACwa+L0AYPFuEHYLgPojsN9iYZlclVXa8IBMeo9WXcmpRuEXot/Qste5oGyHcbs52LLYNMqe57SrphxedEBUC/g1FfeZAzDaTQkimwhEq3vkvP/RxRPeW/aTrKLqn8oSu6KabLzMv6MSFaJFXTxpzpo17I/hIMeTi7e1PbPss7ZnV+xSunxn29SlO9qeWbK97akPtwlIsqKwNYaLvQeVZPvE2avXwyVqyJvVshRuSSVHqoUBltT+jW4TGMBj+O3NLq39I1yuX3HZGSeAgx1eSVeM63cnTP9Qpl90qTP8SEQz7EOpAA7KU7QzENKvd6bGe2NqDCs+Afm/pe3T02GaO8qbURPuj+dJv26MrzM93oZPpkZXP3dOvYWNP+r2D7KLa67OLal25ZTU3ZI1s+q3qId/xvmADKSV1j4OoHxJGGhZYwkaaplVAXtoQl3eiDq9AyC7j3WcdZ2g+RTs4umPtrdNbWcbz8A2nly0VZgpwPZTaDNsaUFeRct7sIHnEffY7Jkr/zx+5sqbMt9dcU3mjEV9pR8YZaclP0FYPrFyxpH2LlOR8Fu7xRRN4hWKzBAFpheWOtdOcI4bA7CTfsJbc63Z7y/+QYQ7yJRW/7GgvOmxgvLmFwsqWkoLZjXX5Jc3f8KpFI8v2IgXv7Xt6SWf4OV/IpWALaaAIBgjXOQDkyvX7QGA7kSF0TuzV+WW1q0ECM7NLW14Hy7Pq/j9VKSsNjM7ypHAhrtyotU/QyV0jC+suSK3vPl8zj1jf5WAn0r78TEQhkVlZYsZvaaawR6kHRi3lKeuphydaOVnLFP1LrTy7uhdtCW+M/09ijK84yOSLkUWNp5BJpoZBQMtrepHAOVuSnnlDX8CUIbAKrPBQqfi3LTcaONM1O0P4D5XoZ6vRt3fAhKwHR4SicReqMwbFfCEN/WU2NB2saWnYEMEVjBUzgPdguNygPCMvFmrnmU3AUfLc2audHAt+igQAzXoNq3DTVhYTrQblKcqE61sqdotJ6ZIBZKVJ3ixqGCHqjB0Reh2EJSyiqtvzyqtGZ1TWv0s2OJMvOilk+dtaIa7sAW6my+QLd9zKz9ve67qc7SEOwUcCYoc+QNw7s6raPo4f1ZzE1yUJfnlLVG84Dfyypr+wv4fAGQor7j6T7klNb+AO+HMKqzqRxYYKVl2Id0JMkGOonLNrKT76OQgY2uvemU5YpVuCOpxAmlTDiXx8u7oXXSmOkBCO3r3usbjOHKhK/9CtOkb7IfnKP64GcvOow1lv7/iB5lFy64iuZDpVMX19+SUNozOKanPz61ofCG/ovktNPqzcFwGXQWvaRuOsnyVLvkzS7e3PQebem7FbujnwjjplYF47AKYsl+0Ea7+opzi2nfhVT3BDVOyZ1b/X6Rs5XX0pNi1oCXxYEGe2ZVGTBBWefT29SUUZF5vWeU3Kom0qh0I9+Ib9+8Pzhv7zoeXjytcNmh8YdXdOaX1WXhJf39i0Zbo4wu31E1ZsHnH03gxf6na3fZC3YG256H8/Qxaucc/2Hhg8vwNOybNW7exYM7qRgAg5/7NwQubDnb4MlziSTklNQ9FOHduJufn1d8I9+T63OLaS7Kn1/aayj7AcFT/3MERi17BJY9ankV1toHzRkPoSFlGoqZ8NUV7vx29e6MqO9HqTUJd0lno0dcRsjrOapg0q6E3dx+SNeDFtUM5OyK7uO7BnKKaRyNw12E3r2aV1MwEA50HsFxON3vK3A2bpszfuJN98+yi+mv1HrHDF+r2t/0F5IQzPXBt2+MLN698YuGmmZMqV78QidY9llW4/PcTZix2ht/54IfcmYr97FpyEkTlXetm02znWPL6vy1aJpHZDpkimSQ3Jw3/v3pLpLjhskh5408LZrd4oU/ihczILWuqAfPbPnneutZnPvpU2OGz0GeWfsrO5Va0WnvzZjXvyCtrWJ8XbVyZV9Y4G67Em3juuUhZfSbcYi/Y523ZpXWD2bFcUFRzgWyS+vbCb9FtVztSH2ZJli5t3SQvekezXnn1Ck3tKI+mmPKFiKHeUaVOajot9pmNw7NQVY+jp7C/UzYJlh3g6y2TZL7oymvhtd2UX9b4u0i0MRApa4iAJb4At/wd2Nw82FwtdBNsdefkuev2PblwS+vUZTtgo6ovk14dyArXvW+FS74M3ttb+bNWFcAlfwDu/g0TZlR/L/x65bkc7CHz1ZIUE21+5VcHJOVFAWxkHpQ+YtVRxnBfzuyqZND/60H/b8uaWf1IVnHN3wGGs59asm0lCncjKPy+v1bvbXu+dp8AI0eXuVrh8QWbVk9ZsIlL3IoKKppfi5Q1Po4XGc6cWXUvXOJfZL1flYIW6sdjS6oupnshi/oBiCxsLfZDirHSUXFKgE9adL0SGoCR19STppjyXxKtLlIV4Omqs02t3x+2KHW2i0IyQK+Om7BwxsXYmTXfzyut6if7X5ZUc6XTg3Cjx+WW1D1TMKvlX5Mr10WnzN+0DPa5fvK89XsJkPTunq/d3/bXqj1tU5d/tvvZ5bvWPbFo67K88uZSPP9XsNb0rPdXDBv/3tIrJ1TUJmlRHyTMTwxXkK8jycd/U2IvhkCofnfcaqGVODsLDI6tUl55468AXI+gIF8CHZ87Zf76DVxFwNaHYDh12c4Dz634/JOpSz9bBUBcGSmtW5BVVP1edlHNc7mlNWPpBuQW1/ya/Sl5RbU/4nxHWc2BQtSi64Ko9EqBS0e39InG+kBiFcwUU778Ig086zvrNQdH9DrPFWWcu6lsuOsConBKRtHK7pGS2gs5ayNSVD0kq7D69uzi2jS47Flwz18AABaCOS58YtHH1SA8a+H9faqPE9Aj5Aj5lPkbVj+xYEvZlA82P5dX3pLBFW0kONxwmIM8WnQJonAGqgO+Svv/FmCqwlb9iR0VrlxH4edUVZ3JZV0TAYp53Oy1tOHfcINXTpqz5mMU0g4U1ucAxn0oqFac351b3tBUMGdVtKByzcsFs1dlF5Q1jswprfvVhOIq54R3lvyQk6bZAe1/aYnsXHK4FSEsRIKgjJSjYnQwF0sVsPzX1RRTvsKi1/dYvSe4qN+0DQ6YKFsBkIoX2Lnodk43mWwzg1N9ihb2zpqx7PKsaI2HXVx5s1t8BbPX5hXMWf1aXkVLJUBzNffyBPlpfXbFzr3wGD9/asl2riffklNavyRS2vAqsGIMu9xyShovpttPO9fSmiA6kekMh/5zwoIwMCstMR0mSK2Jrb4qEm24PbeiYSyAbtoTC7d88PjCzaTeMptfTdLetOnpxZ8shL41Zf7GqZzLlV1YdU9m0cqbH3t/0XXh6R9eEv5/83oBCL8tBXQYkYISF1ilT14e0qu7+/q1jgraFFNMgeh2LkCp2Q3+x+2p62A0dWHb1+WTE/xYGsjNuOlL+o+fvvLnmTNrHuQqsikLNv/1ycWfTH/yw21LgQufcF05pxfBVT+AI71HbrzxDwDmGH5DictoucGGFnx7idm7jlEC+l+saBRWa13wu8OC4QoBbgrA7ZX4pTlOXM0ra/obWoMPAZIf51e07H1i4ebtTy7etnrSvPVVkdL6OZGS+r/DdR4HSv5HfpkuN7ryh5F3l9s4RUEL9vCCtCgXmdOGlOoMsSsv0BRTTOm6CADBtsTGxN7opqud9o8EjMJvt32LSzAjhTVXZM2suSlrZu19OSV1OXnR+tc5+PPEBxtrnlq8bR0I1Gd55Y174UFyxVolWOczwIwHuIEwmWVedG0Pslwt2Jjo6WSa+FthwReAB1rLcTLdVO1UgjDizPlrustuOKW19wMQn80tra3kBNT88uatQP7tkWh9C3c5AYt8sWDOmofzZ6++Pae00ZHzftXFHO7P+MescziSrQq5c2FaeA+VaVIFANEKQFf+x9njXximmGIKRSdL7WxOgRL+i4su9iwsrnNxhMOn+F8qPJ0j2Vxuyb0HQKg8k+as+cOkyrXj8meteg3/FwJD1gIct8M934L/jSBXUWDNFG57x12o+DkTLciDREujsErt1LGIyqhkWqOs6nyiyL6JpY3XcI0xEvwYMvAaWOFcHKtxrMsta1yQX9b8JlB/EjIykttH8XvF495acr6/cMnpWjCdiUbjFQuksuB1cORv7UWYIGiKKf9Dottqgr0a7Ri/let7aMmeVnTW2Hc+/O6E92sGcPwhp6Q+CEx5CoD5LvDmQ5yrB86sxHEWMOZF7prEb7BnldX+iF8A1YKJiWH0PnaUC0cufFgykBAA50jxI/PcOqsgWn8lP+zOPoTc0ro3kMDZHGVGwouhfwO6P5xb0vh/eaUt/WQpXhcnXusFSPquVI0maxkyxRRTvqQSt201SCou+hHY9rRpy0/l4GykrOm6SEXD7fBMx+WW1/8DhKwst6xhAfCnIqes7tVIWX1Y9VU2XEYSx+XJsgw4URjn8cMUbrTAofxIee0g+v/cWRsJ+3ukrIGs8TkA5KO50fo/5FXUuyMV1ZdxvhR3pRGK3bkolmhggx2pAmxTTDHlyy8d2zhVxwHNJe/U5knUuAKIu/7TtY5E64ZEyuvv4aIQ4BG/BPp6pLT2JenPLG/4U260LoUf0QtHu7Dr0JGI9r3mc7n7MtjgwPyS+t+CzvrBGMcCDMeDPabncCE8EphX0XBR/uurDv9hfL0gxH2Oj4Tpqt1liimmnEBixAAjNghgdgEXwvBsJ82p/yGY5FAQt/v4WZDcaON4gOOjuWX1IyIljcPIPLm5DEfUD7WX5WGFieTcQtJT0tTMaNOQSEXz7QDFe3NKau/Ki9bezNFm+vn6HMSOMqH7/HrLoBdAVzJsiimmmEKs0HHDiCPa1QQRQI22ncIZMFyNw8Uj/LhebnnDH3OK6++NgOBxf82JZU3f56c4NJA8cizig9wFmUPo2eUNV2eXN19fMLv+yoJZLT/gOmYZVj/YpxeJgWA7Km2CoimmmHJMYsATwRQNY7SrBwmnHZLkRWa3XMg9Hohl8t2haP2VmTPq+srcTJK7IxXZ8RiuNbdXRyDf4R5zZIra5QRhAonqakhf7eV4qESbYoopphwv0fGG2OMIR09RXXYds0IQv2+NL2+2jyuvPj+/eFXPqQu3nhVtaztygOTAClnk3VOnfl0mgQIAtUsih6O6pphiiin/BdHxSPox1fSixOlEck6b2M6Ps7XHtq5Jxwis3GSt45TD86bbbIoppvxPCrCpHU59MVil6CsnZgOJTUA0xRRTvoQirjjA8jjNqWYAhkC+SAQ2xRRTTPmPSAKu6Zh2NLjWDiBNMcUUU75aciwAaYoppphyIku3bv8fx6ErQ5Mv9hAAAAAASUVORK5CYII=;" parent="1" vertex="1">
                    <mxGeometry x="-10.600000000000023" y="-1030" width="131.2" height="40" as="geometry"/>
                </mxCell>
                <mxCell id="nhbN_m_MJA_WDUEvRPEo-4" value="" style="shape=image;verticalLabelPosition=bottom;labelBackgroundColor=default;verticalAlign=top;aspect=fixed;imageAspect=0;image=http://peteletrica.uff.br/wp-content/uploads/sites/509/2021/09/Python-logo-notext.svg_.png;" parent="1" vertex="1">
                    <mxGeometry x="195" y="-1070" width="70" height="70" as="geometry"/>
                </mxCell>
                <mxCell id="nhbN_m_MJA_WDUEvRPEo-6" value="" style="endArrow=classic;html=1;rounded=0;" parent="1" edge="1">
                    <mxGeometry width="50" height="50" relative="1" as="geometry">
                        <mxPoint x="115" y="-1040" as="sourcePoint"/>
                        <mxPoint x="175" y="-1040" as="targetPoint"/>
                    </mxGeometry>
                </mxCell>
                <mxCell id="nhbN_m_MJA_WDUEvRPEo-7" value="Spatial Interpolation" style="text;html=1;strokeColor=none;fillColor=none;align=center;verticalAlign=middle;whiteSpace=wrap;rounded=0;" parent="1" vertex="1">
                    <mxGeometry x="170" y="-1000" width="120" height="30" as="geometry"/>
                </mxCell>
                <mxCell id="nhbN_m_MJA_WDUEvRPEo-8" value="" style="shape=cylinder3;whiteSpace=wrap;html=1;boundedLbl=1;backgroundOutline=1;size=15;" parent="1" vertex="1">
                    <mxGeometry x="345" y="-1072.5" width="60" height="75" as="geometry"/>
                </mxCell>
                <mxCell id="nhbN_m_MJA_WDUEvRPEo-9" value="" style="endArrow=classic;html=1;rounded=0;" parent="1" edge="1">
                    <mxGeometry width="50" height="50" relative="1" as="geometry">
                        <mxPoint x="277" y="-1040" as="sourcePoint"/>
                        <mxPoint x="337" y="-1040" as="targetPoint"/>
                        <Array as="points">
                            <mxPoint x="307" y="-1040"/>
                        </Array>
                    </mxGeometry>
                </mxCell>
                <mxCell id="nhbN_m_MJA_WDUEvRPEo-10" value="Interpolated&lt;br&gt;Data" style="text;html=1;strokeColor=none;fillColor=none;align=center;verticalAlign=middle;whiteSpace=wrap;rounded=0;" parent="1" vertex="1">
                    <mxGeometry x="315" y="-990" width="120" height="30" as="geometry"/>
                </mxCell>
                <mxCell id="nhbN_m_MJA_WDUEvRPEo-11" value="" style="shape=image;verticalLabelPosition=bottom;labelBackgroundColor=default;verticalAlign=top;aspect=fixed;imageAspect=0;image=http://peteletrica.uff.br/wp-content/uploads/sites/509/2021/09/Python-logo-notext.svg_.png;" parent="1" vertex="1">
                    <mxGeometry x="484" y="-1070" width="70" height="70" as="geometry"/>
                </mxCell>
                <mxCell id="nhbN_m_MJA_WDUEvRPEo-12" value="" style="endArrow=classic;html=1;rounded=0;" parent="1" edge="1">
                    <mxGeometry width="50" height="50" relative="1" as="geometry">
                        <mxPoint x="414" y="-1040" as="sourcePoint"/>
                        <mxPoint x="474" y="-1040" as="targetPoint"/>
                        <Array as="points">
                            <mxPoint x="444" y="-1040"/>
                        </Array>
                    </mxGeometry>
                </mxCell>
                <mxCell id="nhbN_m_MJA_WDUEvRPEo-13" value="Data Processing" style="text;html=1;strokeColor=none;fillColor=none;align=center;verticalAlign=middle;whiteSpace=wrap;rounded=0;" parent="1" vertex="1">
                    <mxGeometry x="459" y="-1000" width="120" height="30" as="geometry"/>
                </mxCell>
                <mxCell id="nhbN_m_MJA_WDUEvRPEo-14" value="" style="shape=image;verticalLabelPosition=bottom;labelBackgroundColor=default;verticalAlign=top;aspect=fixed;imageAspect=0;image=https://www.gbif.pt/sites/all/themes/gbifBootstrap-1.0/gbifBootstrap/images/GBIF-2015-dotorg-stacked.png;" parent="1" vertex="1">
                    <mxGeometry x="474" y="-900" width="90" height="90" as="geometry"/>
                </mxCell>
                <mxCell id="nhbN_m_MJA_WDUEvRPEo-17" value="" style="endArrow=classic;html=1;rounded=0;entryX=0.5;entryY=1;entryDx=0;entryDy=0;" parent="1" source="nhbN_m_MJA_WDUEvRPEo-14" target="nhbN_m_MJA_WDUEvRPEo-13" edge="1">
                    <mxGeometry width="50" height="50" relative="1" as="geometry">
                        <mxPoint x="370" y="-880" as="sourcePoint"/>
                        <mxPoint x="420" y="-930" as="targetPoint"/>
                    </mxGeometry>
                </mxCell>
                <mxCell id="nhbN_m_MJA_WDUEvRPEo-18" value="" style="shape=cylinder3;whiteSpace=wrap;html=1;boundedLbl=1;backgroundOutline=1;size=15;" parent="1" vertex="1">
                    <mxGeometry x="630" y="-1072.5" width="60" height="75" as="geometry"/>
                </mxCell>
                <mxCell id="nhbN_m_MJA_WDUEvRPEo-19" value="" style="endArrow=classic;html=1;rounded=0;" parent="1" edge="1">
                    <mxGeometry width="50" height="50" relative="1" as="geometry">
                        <mxPoint x="564" y="-1040" as="sourcePoint"/>
                        <mxPoint x="624" y="-1040" as="targetPoint"/>
                        <Array as="points">
                            <mxPoint x="594" y="-1040"/>
                        </Array>
                    </mxGeometry>
                </mxCell>
                <mxCell id="nhbN_m_MJA_WDUEvRPEo-20" value="Bioclimatic&amp;nbsp;&lt;br&gt;Data" style="text;html=1;strokeColor=none;fillColor=none;align=center;verticalAlign=middle;whiteSpace=wrap;rounded=0;" parent="1" vertex="1">
                    <mxGeometry x="600" y="-990" width="120" height="30" as="geometry"/>
                </mxCell>
                <mxCell id="nhbN_m_MJA_WDUEvRPEo-21" value="" style="shape=image;verticalLabelPosition=bottom;labelBackgroundColor=default;verticalAlign=top;aspect=fixed;imageAspect=0;image=https://upload.wikimedia.org/wikipedia/commons/thumb/3/38/Jupyter_logo.svg/1200px-Jupyter_logo.svg.png;" parent="1" vertex="1">
                    <mxGeometry x="770" y="-1083.75" width="84.19" height="97.5" as="geometry"/>
                </mxCell>
                <mxCell id="nhbN_m_MJA_WDUEvRPEo-22" value="" style="endArrow=classic;html=1;rounded=0;" parent="1" edge="1">
                    <mxGeometry width="50" height="50" relative="1" as="geometry">
                        <mxPoint x="703" y="-1040" as="sourcePoint"/>
                        <mxPoint x="763" y="-1040" as="targetPoint"/>
                        <Array as="points">
                            <mxPoint x="733" y="-1040"/>
                        </Array>
                    </mxGeometry>
                </mxCell>
                <mxCell id="nhbN_m_MJA_WDUEvRPEo-23" value="Species Distribution Modeling" style="text;html=1;strokeColor=none;fillColor=none;align=center;verticalAlign=middle;whiteSpace=wrap;rounded=0;" parent="1" vertex="1">
                    <mxGeometry x="752.09" y="-986.25" width="120" height="30" as="geometry"/>
                </mxCell>
                <mxCell id="nhbN_m_MJA_WDUEvRPEo-24" value="" style="shape=image;verticalLabelPosition=bottom;labelBackgroundColor=default;verticalAlign=top;aspect=fixed;imageAspect=0;image=data:image/png,iVBORw0KGgoAAAANSUhEUgAAAkIAAAHwCAYAAABKTQDjAAAAOXRFWHRTb2Z0d2FyZQBNYXRwbG90bGliIHZlcnNpb24zLjMuMiwgaHR0cHM6Ly9tYXRwbG90bGliLm9yZy8vihELAAAACXBIWXMAAAsTAAALEwEAmpwYAABgGUlEQVR4nO3de7wdZX3v8c+Pi4AoogSL3ApCtF4qFGPUUk+9YYFaaUv1eKkWT3s8eA61HrWoh4ptqZVCpdVqS6mnBRRqaa2Wys3QU7AimACFmACagGgukJCE3Elg7/07f8ysZPZkZq2ZteY+3/frtV7JXmvWrGdmr7Xmu3/PM8+YuyMiIiLSR3vV3QARERGRuigIiYiISG8pCImIiEhvKQiJiIhIbykIiYiISG8pCImIiEhvKQhJ6czsXWb2zYzL/r6ZfXnC19tqZs+fZB2Rdf0fM/ti+P9jzMzNbJ+C1n102Na9i1ifzGZml5rZJ+puh4g0m4JQh5jZw2b2RHhwXWNmf2dmz8j4vDcW1IY9woK7X+Xubypg3a81s5lw+7aa2Uozu8bMXhFdzt2f4e4PZVjXylGv6e5/7O6/NWnbw9ectZ/d/cdhW6eLWH/stTx8D+wTuW8fM1trZr2YPMzdz3b3C8pav5m9wMz+0czWmdkmM1tsZh/qY7DN+nnKsB43s+OLaJNIVgpC3fNL7v4M4CTgFcDv1dyeoq0Ot++ZwKuAB4D/MLM3FP1CRVV+arQROC3y8+nA4/U0pVvM7Djgu8AK4Kfd/VnAW4F5BO/NPOtq+/ssk75sp7SPglBHufsq4AbgpQBm9hYzW2pmG83sFjN7UXj/l4CjgX8Nqyznhve/ysy+Ey5/r5m9drDu8PkXmNltZrbFzL5pZnPCh78V/rsxXN+rzewsM/t25PmfNbMVZrbZzO4ys9eMsX3u7ivd/Xzgi8CfRNa/669KMzvdzO4L27nKzD5iZgeG++bwSHXp8LBb7p/M7Mtmthk4K6Wr7r+Z2Woze8TMPhx53cvN7I8iP+/6KzlpP8erZ2EbrjWzDWa23Mz+e2Rdvx9Wv64Mt2Wpmc0bsZu+BLwn8vN7gCujC5jZe83s/nCdD5nZ/4i334LuwXVhRetdI14zlZnNN7M7w9/7GjO7JLx/sB/el7Jf9zKzj5nZg2a2PtwPz4k8/nOR9+oKMzsrvD/++3izmd0TLvcdM3tZ5LGPhu+PLWb2/QzB+g+A77j7h9z9EQB3/767v9PdN4brTPzMhY89HL7mYmCbBdW6wTZuCd+zvxJZfm8z+0z4e/ihmZ0zeO+Y2VvN7K7Yvv6wmX09sh8uNbMF4bpvNbOfDB8zM/szCyqFmyyoar005feX+F7J+Xmab2a3h/vkETP7vJk9LVzP4Lvj3nAd/9Vi3x3hckM/3yN+byJ7cnfdOnIDHgbeGP7/KGApcAHwAmAbcAqwL3AusBx4Wvx54c9HAOsJKgh7hc9bDxwaPn4L8GC43gPCny8MHzsGcGCfyPrOAr4d+fnXgUOAfYAPA48C+4eP/T7w5ZTtey2wMuH+1wMzwIHhzw4cH/7/EeA14f+fDZyUtq7wtZ8Cfjnc7gOi7Yls298DBwI/DTwW2eeXA3+U1t6E/TxrXwG3An8J7A+cGK77DZG27Qh/J3sDnwbuGPJecIIQvAY4OLytCe/zyHK/CBwHGPDzwPbYPpoCLgH2Cx/fBrxwzPfn7cC7w/8/A3hVxv36QeAO4MiwHX8N/H342NHAFuAdBO/tQ4AT478PggrpWuCV4f77jfD3sR/wQoLKzuGR9hw3YlseBd475PEsn7l7CD6nB4T3vRU4nOC991/D5z8vfOxs4L5wHzwbuHnw3gm3YQPwosjr/ydwZmQ/bAH+S7jsZwk/j8AvAHeF7w8DXjR4zYRtGvVeyfJ5ejlBJXefcD/fD3ww9r49Pu27I+vnWzfd8txUEeqer5vZRuDbBAfWPyb4Ur3O3Re4+1PAnxJ8Kf1syjp+Hbje3a939xl3XwDcSXAQHvg7d/+Buz8BXENw4M7E3b/s7uvdfcrdP8Pug9G4VhN8OR+c8NhTwIvN7CB3f9zd7x6xrtvd/evhdj+RsswfuPs2d/8e8HcEB+GJmNlRwM8BH3X3He5+D0Gl692Rxb4d/k6mCao9J4xY7Q7gXwl+/28Hrg3v28Xdr3P3Bz1wK/BNIF6h+4S77wwfvw5421gbGfwujjezOe6+1d3viD2etl//B3CeBxXAnQQH2F+zoJL2LuBmd/97d38qfF/dk/Da/x34a3f/rrtPu/sVwE6Cg/I0wXvwxWa2r7s/7O4PjtiWQwgOwmmyfOY+5+4rBu8zd/9Hd18dvvf+AVgGzA+XfRvw2XAfPA5cOFhJuE/+geBzi5m9hCBkfCPyWte5+7fCZc8DXh2+554i6Mr7KcDc/X4PK1xxGd8rcbM+T+5+l7vfEX72HyYItT8/Yh3D5P18i+xBQah7ftndD3b3n3T3/xl+yR4O/GiwgLvPEPwFfETKOn4SeGtYvt4YBqufA54XWebRyP+3E/yFn0lYtr8/LMVvBJ4FzBnxtGGOIPgrcWPCY2cSBLgfhV0Crx6xrhUZXi+6zI8I9u+kDgc2uPuW2Lqjv6P4Pt/fRo+7uJKgS2yPbjEAMzvNzO6woDtuI8G+iv4uHnf3bbE27bG9ZvaaSLfI0pS2/CZBpeQBM1tkZm+OPZ62X38S+FrkvXg/QXj5CYKKyqjQMljHh2Pv6aMIqkDLCapOvw+sNbOvmNmo3+l6Zn8e4rJ85ma918zsPZGuu40E1bvB7+Lw2PLx9+kVwDvNzAjC8zVh6NljeXffSlBBOtzd/x/weeALwBozu8zMDkraoAzvlSTxbXyBmX3DzB4Nu8v+OMM6hsn7+RbZg4JQP6wmOBAAwbgAgoPAqvCu+FlEK4AvhYFqcDvQ3S9ktKFnJFkwHuijBH/hPtvdDwY2EVR0xvUrwN2xA3bQGPdF7n4G8Fzg6wTVq2HtzHJG1VGR/x9NsH8h6Mp4euSxw3KsezXwHDOLDrQ9mt2/o3H9B8EB+ycIqoS7mNl+wFcJqhU/Ef4urmf27+LZ4RiQaJtWE+Pu/+HBGXDPcPeXJDXE3Ze5+zsIfhd/AvxTbN1p+3UFcFrs/bi/B+PgVhB014yyAvhUbB1Pd/e/D9t2tbv/HMHnxImMOUtxM8FBOM2ozxxE3g/hmJ2/Ac4BDgl/F0vY/bt4hKBbbCC6rwira08SVGjeSVAxJGl5C84kfU7YRtz9c+7+cuAlBEH1d+Mbk+G9kvXz9FcEJzjMdfeDgP/D8M/+rM+Umc36TA35fItkpiDUD9cAv2hmbzCzfQnG5ewEvhM+vgaIzrvzZeCXzOwXLBikub8FA2ePZLTHCMbrpM3j80yCcSePAfuY2flA4l+gw4SDPI8ws08Cv0XwhRpf5mkWzGH0rLB7YjNBJQGCbT7EzJ6V97WBT5jZ08MuiPcSdEtAMObjdDN7TviF/cHY8+L7eRd3X0Hw+/h0uL9fRlBBuWqM9kXX68AvAW8J/x/1NIIuoceAKTM7DUia5uAPwn35GuDNwD+O0xYz+3UzOzSsjmwM745OHZC2Xy8FPmW7B/geamZnhI9dBbzRzN5mwcDhQ8zsxISX/xvgbDN7ZfjeOdDMftHMnmlmLzSz14cH+x3AE7F2Jfkk8LNmdvHg4Gxmx1swMPhgRn/m4g4kCA2Phet6L+GJDqFrgN8J3/MHE/wxEXclQXVnyt2/HXvsdAsGlT+NYNzgd919hZm9Itwn+xKEjh0p2z7qvZL18/RMgs/hVjP7KeD9scfjn5F7gZeY2Ylmtj9B1Q4Y+fkWyUxBqAfc/fsE4wf+AlhHcGD8JXd/Mlzk08DvhSX5j4QH5TMIwsVjBH9N/y4Z3i/uvh34FHBbuL5XxRa5ieAMkx8QdB3sIFt31MDhZrYV2AosIhhY+1p3T5uw8d3Aw2EZ/mzCcRTu/gDB4NyHwnbm6d66lWDg678Bfxp57S8RfHE/TDB+4h9iz5u1nxPW+w6CsR2rga8Bn/RgfNZE3H2pu+/RXRV2w32A4CD7OEEl4drYYo+Gj60mCB1nh/tuHKcCS8Pf32eBt7t7dMxS2n79bNiub5rZFoKB068Mt+HHBF0jHybo7rmHhLFT7n4nwTihz4fbs5xgIC4EB/gLCT4bjxJUF/YI1rH1PQi8muD3tdTMNhFUTO4EtmT4zMXXdx/wGYIB5WsI3te3RRb5G4L31GKCgdDXE/xBET3wf4kgPMWrQQBXE4S3DQQDlgdn/x0Urvtxgs/jeoKqT7x9Q98rOT5PHwmfuyV83fhn5PeBK8J1vM3dfwD8IUEFbhmxqiYpn2+RPGzPPxJFRILT5wnOmMtSCZzkdY4Bfgjs6+5TZb5WV4QVmUvdPdr9dgDBmXEnufuyyP2XE5zR1bU5xUQKoYqQiEjDmdkBFsyZs4+ZHUFQ3flabLH3A4uiIUhERlMQEhFJYGY32O4z4aK3od1mZTWHYBLHxwm6xu4Hzo+09WHgdwi6CEU6y8z+1oIJQJekPG5m9jkLJqVdbGYnjVynusZERESkDczsvxCMEb3S3feYBd3MTgd+m2Ds4CsJ5t965bB1qiIkIiIireDu3yIY9J/mDIKQ5OG0Egeb2bA5vxSEREREpDOOYPaZyCtJnzwYCK730jlz5szxY445pu5miEiPLVuyMvWxqWfsO+vnFx3zE2Otd+5LSz2hT1rkrrvuWufuh1b1er/wugN9/Ybip226a/HOpcy+FNBl7n5ZjlUkTdA5dAxQJ4PQMcccw5133ll3M0Skg06be26m5Q49Kvn+9SfHJxzfbeHlHxr52rPWuyn454ZlF2Vqk3SXmf1o9FLFWb9hmoU3HV34evd+3rId7j5vglWsZPbM60eSMBt+VCeDkIhIXlkDTlVtSAs3gyB1yG27Lz132txzFYakUg7MMFN3M5JcC5xjZl8hGCy9Ke1CwgMKQiLSeU0IOQPRAAN7BpvBz/PPugTYXSU6be65s6pJ608+jENue3SP5aPPEekaM/t74LXAHDNbSTCn1r4A7n4pwazrpxPMHr+d4HI9w9fZxdPn582b5+oaE+m2JoWbSQ3rLhuXwlC/mNldE3Yp5fLyE/bz79w4dAzyWPY//IeVbgforDERkVqVEYJgdoVIRNKpa0xEGqVLlZ40RYSfaBdb2vri3WsiRQnGCHWjR0lBSEQq04eQM0pRFaA869FgailDQwdL56YgJJ1W14G3TwcdhZvsigpB0UHSWWU5I02kjxSEREqgcCBlGXSJjROGBlQhkkk5znRHTrZSEJLOUhiRroufig97Vp2SloFg/JDGDokoCElHKQRJX6UFn6jo3EMKQzIuDZYWaSiFIOmqLCEnblT3mc4sk3E4MK0gJNI8CkHSZJOM68ljnNdQIJK+UhCSzlAIkjaIX0oj6/JZFBGyFIgkK3WNiYjI2NKqQ3m7v8qcmVphSPpAQUg6QdUgaaNxxvxAeeEnTqfZSxoHnT4v0hQKQdI3aVewz/Pc+NXr09Y/+HwpEElcN+aVVhCSllMIEhl93bGkylN0Ysb48wYhKUqBSLpKQUhEpGWSgsrAuN1tWSkQCYQzS3dksPRedTdAZFyqBonUR58/6QpVhKR19AUsfVd01SfaLZZn3RpM3WMO090oCCkISbMo5IhULzpoeli3WxJ1lUnbKQhJJRRwRJpt0iqTAlG/ODprTGQXhRwRGVAg6gtjGqu7EYXQYGmZiEKQiCTRd4O0hSpCkkhfYiIyKQ2m7i4HZjRYWtpo/lmX7DGBWtnzjohI++UdRD2grjJpOgWhnhhcURoUgEQkn3HPKItSIOoejRGS1hiEoOgXmEKQiNRB3e7d4ARBqOhbHVQR6rBoFWhAAUhE8kq7OOu4VB2SJlEQ6iAFIBEpWhnfIQpE7Tbj3egaUxDqkMGXyiHhz0X+BSciUpZod5lCkVRNQagDdo0BqrkdIiKTio8hUjBqpsEYoS5QEOqIpLK1usNERKQMjjHdkfOtFIRa7rS556oSJCKdpW4zKZuCUEvpFFQR6br4vEUaXN0sGiwtjTTJAGl1pYlInXZMbeW7K6/mVUe+k/32eQaQPImjLt0hRVIQaqmyzgjLu94s4SlpnfHnxZeJXgZk1LJ55G2vwqFIdR7ccDtPTG1i+YbbeclzT9l1/yQzWks5ujRYuhsjnaQQ4wSM+HPWn3zYHrdJXrfIEJT1+eN+4eovVJHx7ZjayqotSwBYuW0pj5709F2PKQQ1kTHtexV+q4MqQi102txzoUFzBI177bI8oabqOZH0xStSrQc33I6bB6UGn2HVvQt4+fTJdTdLekBBqIWaOlFikcGmrG0sM+BoALvIeAbVIPdpAHxmmnXLF7HzqBN2jRWKG8yftvDyD1XWTtnNgZmOdCopCElvpIWgMsZFichw0c/dw3d8dXc1aMBnWLLfvRzzqjOHXutMgUgmpSAknTMqqJRdUbth2UWqDomMEA03G1csxWemZz3uM9NsXr6YQ6ZPzvSZnX/WJRxy26Maq1ehrgyWVhCSzqgqAI06g0UhSCSfE996/qyfo2eNrq+jQdIrCkLSSmUOzM66PnWRieyWNAdQHTTpYjXcrbazvIqmICSN1NSQMWysgkifpc0BlCbtcxSfQ2zcz5sCUflmOtI11o04J51SdAgqKrgM2nXIbY82NqiJ1CE6B9CqLUvYObU1ddlR84uNOx1H9LlR6qqWUVQRqsiwD6P+YtldaSkyYBRZuSkz+GhwtbTdgxtuxz045cvdM1eF0jzyM0/ngRs+z8/OeVuu50WrSdGfdUmO4gUzS3ejlqIgJLUaBKDBF1c8DI0z63RRoaXKqo/CkLTVrjmACOcAYppVW5Zw/HNePWusUJ4/TFYvXsDOrRtYcsS9HMPxudqjrmvJS0GoIvEDXfTDOuoA2OUPdtK2Zd3etOXaduFZBSBps2g1aGCSqtCT2zezbvlCwFm3fBFHnHAK+x5wUKbnDvvsqypUNA2WljFkPXDHy7tNU/c8PWUquqok0nVrty3fVQ0acKZZu205LyF/EFq9eAEMglV4qY1jXnVm6vI6gaEemllaStXED3XWYNDEtotIeV537PszLZclsAyqQYPJFQeX2kirCkVPYIDki0BHzT/rEs1ALXvoRpyT0mQ9QyrrlebbQNUgkXLEP1vx75dZ1aCBsCqUJK2aPszgkhwyuWm3wm91UEVIhkoKN03vuksz6i9SBSCR8kS7ndPOEE271MbGFUshpXssvq62fj9JfWoJQmZ2AXAGMAOsBc5y99UJy50KfBbYG/iiu19YaUMlUVu/YDQbtEg9slZu4pfayLP+rGebgrrIiuBYZ06fr2srLnb3l7n7icA3gD3e/Wa2N/AF4DTgxcA7zOzFlbayYPrg1W/QhdfWMCfSFUV/FqNTcGShLrLJzfhehd/qUMuruvvmyI8HEgxAj5sPLHf3h9z9SeArBFUkyWDQ964KSLqiA9GmHWu4afln2LxjbWHrFOmisv4QybtehSGBGgdLm9mnzGwF8C4SKkLAEcCKyM8rw/tkhDLDTxeDVVF/mS5ecx3ODPeu+UZBLRPphjzdVlWbf9YlCkRjGMwsXfStDqW9qpndbGZLEm5nALj7ee5+FHAVcE7SKhLuS6ocDV7vfWZ2p5nd+dhjjxWzES1VxhdNX6pL4waiTTvWsO2p9QBse2q9qkIiEU0LPyJRpQUhd3+ju7804fYvsUWvBpJOB1gJHBX5+UhgjwHVkde7zN3nufu8Qw89dPINKEnVgaKIL6A+BKBJLV5z3ayfVRUSade0GqoK5eMUf+p8XafP11KHMrO5kR/fAjyQsNgiYK6ZHWtmTwPeDlxbRfvKdMOyi1rzxRClQcbpotWgAVWFROq17qTUDoRZon/oKQz1U11jhC4Mu8kWA28CfgfAzA43s+sB3H2KoMvsJuB+4Bp3X1pTe1unjLMx+iTPNserQQOqCknf1dWlPghBo8JQUtsUhrKbYa/Cb3Wo66yxM8Nuspe5+y+5+6rw/tXufnpkuevd/QXufpy7f6qOtkp/ZQ2T257akOt+ka5bf/Jh7Jjayq0PX8bOqa11N2eopM+4wtBo7jDtexV+q4NmlhaZ0KnHf6TuJog0QjRULN3vXp6Y2syS/e7lGI6vrU3rTnLm3J089mTYHzqadLE/ujEtZMuU/eHS4OZi9bFrUCSv6OdkcPFUcNYtX8RTT2xOf2KD6dT6YYyZEm51UBBqqWFhRwfu4mmfimQ36+KpQy6aWoasg6STpH2vKgx1m7rGRDIa50rXIn0zqAYNLp7qM9OsW76II044hX0POKjm1g03qqsMdKmkAYfaxvQUrRtb0UOqUIhIE82qBg1UWBVKGw80StY/bNRdtptmlpZCqKrQTGm/F13DTSTZ4DOxccXSXdWgAZ+ZZuOKemY/yRqM9Mdlf6lrrCaDLw19+Jpn8LtR2BHJ78S3Jl06snv63lXmGDM1zQRdNFWEatLWGaa7TJUekfE16ftsUAUat5ssD3WTtZ+CUMfED+Q6uGejfSTSLVWEoIG+jhvqyhghdY21QJ5utPgyTforrcmi+0mhSETG0afuMgdmOnLWmIJQjQ657dFdB2AdfEVERKqnIFSzSQKQBlwXQyFURIrUj8qQMV3TTNBF60Zdq6XyBJi0ZcsKQU0LB9HT1osa96TxUyJSpud/7jN1N0EyUEWoYqfNPXfX/w/JsPywoJM1BOWtHEW77JpAlS+RZuvjZ3NwKY9Rg7IHYeihD3y49DZVSWOEJLNo8KlDtOJRZcCJh5doO5LakBZ24u0fto5x2icizZc1dFQpb1ue/7nPdC4MdYWCUMMNwkv8wJ10X9b1DZ4/7PGsA7lHnW2V9b4sj41aLm+FTESaL3oR1XUneaPC0DCTXPy1LboyRkhBqASDgXJFHXDzholx11nWMlWJV4ySQl+T2ivSJU9u38wDN3yeF51+zsQXV21ziEhr+5y7rVNVIXdT15jMdtrcc3vZT95Uh9z2KJt2rOGOlV/m1TvezUH7P7fuJlVOAVCqtHrxAnZu3cCqexdwzKvOHHs9o0JQ/PG2VYi6FIa6QkFoTHWP/ZHRFq+5DmeGu7fcyE+/4dxOh4FRIVzzVUmZnty+mXXLFwLOuuWLOOKEUyauCmVVdHfZpOubc7clhrno/V05vX5aFaH+UfhppuhBftAltmnHGrY9tR6AHZvWsO+/LYaOVYXGqUCOO7ZMJM36kw9j9R1fBQ8P/j4zcVWoTaKhZ9Q1zuL3zz/rktaHoaqZ2anAZ4G9gS+6+4Wxx58FfBk4miDj/Km7/92wdXYjztUo7QwoHWzqMdjvi9dcN+v+e9d8o47mjGX9yYfNuok02aAa5DPTAPjMNOuWL+KpJzbX3LLxFFVdWneSZxrr1NZrlDkwgxV+G8bM9ga+AJwGvBh4h5m9OLbY/wLuc/cTgNcCnzGzpw1brypCIwyqQOtPPgzGOENKqjMIDdvWr2Lb8vWzHtv21Ho271hb6VihYdMERB8fNS1AWhVH8ytJE6xevGB3NWigZ1UhaM9YpeJYHV1j84Hl7v4QgJl9BTgDuC+yjAPPNDMDngFsAKaGrVRBKCap+2vYgWac8DNsrhzJJ+l389B/XJW47GCsUFyV+38QaqLtzjt+Z5zgo/eYlGXjiqW7qkEDPjPNxhVLYYwgFA0UoyoqTQgfw7rBktof70pr8xlyNTgCWBH5eSXwytgynweuBVYDzwT+q7vPDFupghAa+9NmSZNE7ti8NnHZtPvLGDcz7ozgaZNeTlL1UQiqTx/+6DnxreeXtu5hA4/bYFQ72xyCgpmlS/k9zDGzOyM/X+bul4X/T3rB+E78BeAe4PXAccACM/sPd0/tq+1tEFL46YakgPCK9/zpROsZ92DVxC6qLh54pV8GYaLNoUFyWefu81IeWwkcFfn5SILKT9R7gQvd3YHlZvZD4KeAhWkv2MsglDcElXlpCh2osqsqaNT1V3xR26f3lHRRW6pAebV5TqHp6s+3WgTMNbNjgVXA24F3xpb5MfAG4D/M7CeAFwIPDVtpb4JQkypAOlCN1qTqSpNPOW9quyTQtAsY90ETr0vWRY6V1TWW/pruU2Z2DnATwenzf+vuS83s7PDxS4ELgMvN7HsEXWkfdfd1w9bbiyBURAjSAad8TT5gNCUMNaENIm2QNL+PtJ+7Xw9cH7vv0sj/VwNvyrPOXgQhaY4mh51Rym67Qk636fcrcW3uFgOY6chUhN3YiiGa1CUmkkYHyW7SpU0kTdtDUJd0PghJc6iikqyt7Zbh2lz9zKNp7985d5u6wirgDtNuhd/qoK4x6YSmfRmP0rb2ymSaMsasLE0eFB4//b7KkJQ0eeKcu03XF2sYVYSkdFVcM6sJ1+WKHujSDnq6Dp3kUfd7emDH1FZuefivueWHl7Jzais7prZy68OXsXNqa91NS5UWeKqYjyjpOmNdnAdpxq3wWx06HYQ0Pqh+Tfkir8Lgr34FHenanFAPbridHVOb2TG9heUbbufBDbfzxNQmlm+4HWju57yJXWTrTnKe/7nP1N2MiQWnz+9V+K0O6hqTUjT1izFNGdeMa3J3gTRPU7vPdkxtZdWW7+36ecXmxexlQcBYtWUJh5x6BvvW1bgM4pWYssNRFys/XdfZIKRqUL3aFALGPfhkeV7aBVaLbIe0w7AzyJr8WXlww+3MePSiqjPMhMd6d2/dVebLGis0GP/TJ9OJl/5qn053jUl9mvzFDrvH6pQZPpowbknqMex9Ne4FeesQrwbFOdOsW76Ip55IvZ5l7aLhRNUgSdLZipAUY1T3T/Sv3KZ9icdF2z6qrV268KrIuPasBiXwmcZXhZICUB8rOEUq8erzletkEFq2ZCWHHjV6ORku6aA+GMcQf6wNASBrG/OGoCK2Xd1i3TP4nQ77HDXd2m3LRy7jM9NsXLEUGhyEohR+imK1DW4uWieDUJvVORNt1teuI/SkVaKKWu+4B6Zx29GGg6DUo0kh6XXHvn+P+6Lta8MfQFUZzBMk7aMg1BB1fKE0dfr/rIOQo8bZf/Ev8yq/4KPrb9r+FxmmS+/Xqs8o65qZjgyWVhBqgDpDUN7HuiSty0KkbJpqob2KuKr9nLuN+WddohmmG6IbHXwdU8VfXEmvUfdfeuOexaXqijRZUugZpemhqMtnRA5mhc7SzZV1ubTntpmuNSaFquvgnecsqiraUNQ62vTXtYJbP+T5PQ/ev2WMFcrzR0PSsm35XGUVvf4X7BlO4meWFRFeutT9psHS0npFfqnlnSQu6Yu1iC/9tnxRKwBJ3DiVo0nkCVpN/1xlPRU+qVtr1POyrDtPQGp7JaiLFIRkbJN8UTf9izWvPIO3FYIkLh5KyniP5DmNv02fz7RgMSpw5K32KMDMFlxrrBvVLQWhnpr0i67oU+zrmLunTG0/uEh1mva+aFp7hhk3BEWXy1tJyirL6fTP/9xneOgDH869bilWJ4PQ3JceCZvqbkX7jTvWpugQ1KYv5mFUCZIs4rO1F/W+SRvn06R5i/JIGs9TxHqK0ocKkk6fl04bfDHGw1De0DIqTLW9ctLGA4g0y7CxQWW8v9p0MkEZYSJtYLT0V2eD0A3LLtIV6MdUxKDN+F+fWQdHt+ULWgFI2qyu92+eK783uVJz3MtW8uDiIydeT5vPINO1xqRzii6/w+xQMyrgtCUAiRSlyTO7l/V5zHoZij5Ua9ocggZ0+ry0WvTLrsy5SkYt16Yy/UDTDlzSPWmV03E+s+NMUVHmvEFFnopelyKqQdCObe2DTgchdY8NV9UpukUuP45h25n0+go60jRNuwxP0boSCKY2beaRz36e533wHPY56KChy7Z+m12nz4vM0sSqTp6Ltzax/dJtae/PpLO6Jn0dXVswvzyhZmDjTQuY2vA4G2+8mTlv+9Why+5cuYrVn/ksR6xazao/+UwRTZYx1dLBZ2YXmNliM7vHzL5pZoenLPe3ZrbWzJZU3UbJbtwrv5dZecm77uhZciJtMM71vooOWUVoamUkGmqymNq0ma0LF4E7WxcuYmrz5j0eX/GHf7zr/se+dDXMzPDYlVfx/M+1Lwg5wenzRd/qUNdIp4vd/WXufiLwDeD8lOUuB06tqlEy2uDLN3rLYxCAyr5o47jhTKRuo96Hk75Pu3zB1KKMCjVJNt60AJ8JQp3PzOwRoKLBaufKVTz16BoAnnp0DTtXrS5+IyowE3aPFXmrQy1ByN2j76oDCcJl0nLfAjZU0igZqajZqOODN8f9Yh88t+zqkkjVso5rm+RK9k05a23O3VbZGVTxqkyamTu/Bj4T/ODTzNz5dY572cpZt/h6ty5cBNPTwR3T07MCVDxYrb38S7Oev+maKzjllv/NKbf872I2VHKp7dw3M/uUma0A3kV6RWhiNyy7qKxV984kX5hFnp6fFnzKnohOpGxZK615ZoPuy8ztWYzq7jruZSs58ojv88iN9+FTQRDyqRkeufE+dm7Ytsey0fUOqkED0arQrGrR1BRTj62btey2h9ez5cHHJtu4ig3mEVJFaAgzu9nMliTczgBw9/Pc/SjgKuCcAl7vfWZ2p5nd+dhj7XpDtUk8hETH1gyrzCR9wcfXk+WWt30iZSoqREwy3ifLc9vwmSi7KpSlu2vn+m185z1X7Blqpmd46Mrv7rH8IAxtX7J0dzVoYHqa7UuW7Fkt8uQxUUv+6EYAVYVqUNpZY+7+xoyLXg1cB3xywte7DLgMYN68ebPeaTqNvnjxEBMPOLr6uvRFk67V1aS2NE3SGJ74mV0PXXkH09uf3OO5PjXDutsehA++PnHdR/9heqfGumu+ukewSrLtx7tHgZxyy/9mwWv/bORz6qbT5ydgZnPdfVn441uAB+poh5QnbYZpESlO0uztaWGoDZOXZp15Oq+0MTwHn/rGXafGT23azCM33gfAXvvtw8lXv5f9nnPgyHWPutxGYrUI2G/OgbzmH/87AB8/5no+/fDpeTerVo7mEZrUhWb2QmAG+BFwNkB4Gv0X3f308Oe/B14LzDGzlcAn3f3/1tNkGWbYX6H6C1W6Ku8Mz3V+Fpoegso0bAzPoCo0c+fXdleMwq6wF6VUgOIGYWjQVRYNRoNqUXyAdVTbQlDX1HXW2Jnu/tLwFPpfcvdV4f2rByEo/Pkd7v48d9/X3Y+cJARp0LSMa/Xm+7hx+cU8slmFSxlP1RMaNnG+oDoNG8MDu6tBowZIDxMPOtGzy4aFoDbryjxCmllaZITvrb0BgMVrr+N5B/1Uza0RyadNIaisyRWHjeGBlIpRzqpQVDT4dDUEdUk3Lh0rUpLVm+/DCf9KZEZVIcll1BldZU8q2pYQtO4kr3WG6Se/v3hXNWhg1wDpmjT+7DHvzunzqgiJDDGoBg2oKiSTqHucUBPVfYmN4162kuPCQctV2bl+G3d+4Brm/cXbUgdkP7j4yGCErJSuVxUhjROSPKLVoAFVhUSKU2cISpohuioPXXkHTzyyKXFuorbo0oSKqgiJpIhXgwZUFRKZTBOqQGX6+DHX7/p//Iywneu3BafpOzxy4308/z2vTKwKtWFsUVdOn+9VRUgkj3g1aNT9IsNkmfW8DzOj9ykEJXnoyjv2OE1f6tW7ipBmmZasTj3+d+tugnREWriJTnKYdFHiruljCIpOljioBkVP03/spu/x5+dt5a+3vaXUthVNEyqKiMhI8QAUHyydNDO0dFe0GjQwM+186XPr4TdrapSoa0y6QQcRaar4BYfj//ZF3dUgYOilMCY1qksMYN13HtrjNP2pp+A7C7aW1axSuVvhtzr0siKk7rHu6fq4CmmntLCjEFSPMrrGsgSggesXHTH0chqDdbXlkht1zQRdNFWERKSX4pUaKUdTQlDRPn7M9akhaP3aKX7953/Ihsem9lg27TlJ9z//c58pqLUyjIKQNJIOUFKmqt5bfatUNjn0FFENGgSaUVWgL/3Feh5d8VQw9ifjeof93ETeoZmlexuENLmitNWOqa3c+vBl7Jxq57gCya5NQWoQgpochqqwfu0UN/3jZtzhxn/avKsqFBUNOm0IPV3X2yAkzdaH+VTGsWnHGm55+K94YmoTyzfcXndzJEGRZ4K1tSratDBU5eSEX/qL9cyEZ4btOiMsQZbKUtNpsLSIVO6eR/911/9XbVnC8c95Nfvt84waW9R+eQN3PJwknQ7f1gBTlDl3Bwe0OgLRcS9byYOLjyw0/GQNLINq0NRTwc9TTwVVoXd/4BCec2j2w207Bkt3Zx6hXleE1D0mbbJpxxqemHp818/uM6oKTWgwoWGW4JK2nAZdB+bcbbtudRmEnzpCEMyuBg0MqwolGYSgwan+GjBdvl4HIZE2iVaDILjUx6otSzRWaAzRrld1wZajad1jeY3TdXX7gq27qkEDeeYJioegplPXmIhUJl4NGhhUhV7y3FNqaFV3KAwVq64usSIkhZ9PP3x6plD0D3ccV0gbpFq9rwipe0zaYPGa6xLvd2ZYu215xa3pnlFdW13v9lp3kre+gjOpYRWgKgY1p1WD6uxqHMbR6fMiUqFtT21IecR43bHvr7QtfdPkENTEANO09mTR9rO3ZDLqGhNpgVOP/0jdTZCGKSpwFBlc6gpB43aLNSUAJZ0l1tRK0C4eTKrYBaoIoe4xkT6KVnqGzVvV1PFDgwNlUw6YbasENTkEtcUMVvitDqoIiUjvxOf7qTLsDE7ZL0KRIaiMdZUZjiYZHN30ENSUcNsXCkIi0ntJkyQWOTaoqVUlKO6gO+duY91JXslBvMqZosuSFILSTpuff9YlLLz8Q2U3KReH2k53L5q6xkLqHhPph6yTJ44jKfDE76tj8PVgUHXZ3VdtCEF1V4M+/fDpI7vD2tbN2HaqCImIlCTp8htVix9Uq6ja6ECeT1smUJytO5fYUBASkV4pM5zE11f3qfd1BJKqxgUNwkOeClETqkFd0pWzxhSERESkEFUEr3GrJ00NQe2sBnWLxghFaJyQSH/UXa2pQpVnHzU1BI1zzbCida0SNNCVa40pCImMsGNqK7c+fJkubtohfQhBUF3XWFMnUky7bliVhr1enmA3/6xLimiOJFDXWMwNyy7itLnn1t0MaZAHN9zOE1ObdHHTDsgSgJowwLkog1Paq3idR4/bxCOf/TzP++A57HPQQaW9VtYxQcOqQPFwUkbFqKgA1FTu3Tl9XkGoQutPPqzR84nInnZMbWXVliUArNqyhOOf82r22+cZNbdKytT28BNVZaVm400LmNrwOBtvvJk5b/vVUiZVnPTU+bRwMri/iEA0ScWpbRMp6qwxSZQ2U22Xvlz75MENt+PhqRHurqqQtF4ZB9snt29m6x2LwJ2tCxdx3BGnwAHFVoUmPTtsWEApqiKUZUB02na0LQR1iYJQAnWPCeyuBjnTADjTqgq1XHTG6LTqbPTxNv8BU2U1aPXiBbvPpZ6eYdW9CzjmVWcCxXTP5a0E5anKTBKCxqn+dKFbbECnz8seol+a6gZrv2g1aEBVofbT57JYT27fzLrlC/GZ8A+GmWnWLV/EESecwr4HHFR5CCpbGYOtVQ2ql84aK0jSX47xq1tLu6zdtnxXNWjAmWbttuU1tUiqEL0SfVs/t2nho4wD7qxq0IAHVaGuhSDIfzr+qApQm0NQV06fV0UoRd7usbQyerQy1NYv1b563bHvr7sJ0gBdOousDBtXLN1VDRrwmWk2rljKM/jVmlqVXZEDpeM6HYKoL7gUTUGoQIMvTH1ZinRLmz/TZR9sT3zr+amPrWP8ilAV1aBxw08Rp8aP83tp4lXou0BBqGSqAom0WxtDUBMqDZN2iz24+MhSw9A4IWjU+KAyQ1ATdWSstIKQiEiSNgYgySZLCMo7KDpLCOpKAOoaBaEhxj2NXlUgEWm6QcWmjINzEaful1UNGhWCRs0FlNSuLp0Sn5lmlhYR6aYuVIKSgkg88PS1OvHph0/fIwzl6fIaJ/T0dV+3hYKQiPSGprQY7cntm3nghs/zotPPYd+CZ4fOoopB0nm6vSap9nQ+AHVkkJDmERrhhmUX1d0EEZnQ+pMP26PSM2rur7aKV4Pm3G2JB+S07qvVixewc+sGVt27oJT2DdOkeYMeXHykQtAIdcwjZGanmtn3zWy5mX0sZZnXmtk9ZrbUzG4dtU5VhESkk0aFmj5XhAYhaN1JPuuAPZglGnzW7NBla1IAgsnH/GQJQfF9L6OZ2d7AF4BTgJXAIjO71t3viyxzMPCXwKnu/mMze+6o9SoIiUgnDbtWWFIIKrsaNDjwlTlIOS7va8yaJdpnXzMsqyqvcTaJsgY4j9rnbdk/WdRwrbH5wHJ3fwjAzL4CnAHcF1nmncA/u/uPgzb62lErVddYBuoeE+mO6MSn0VvSMkUq4uKjRUhrQ9o1w556YvPE6y5a1hCTtlzRIWjQ/dinEFSTI4AVkZ9XhvdFvQB4tpndYmZ3mdl7Rq1UQUhEOiseaLIGnCrGCk1yUEx77iTrHHbNsDplHasTP7OryhA0yrqTPPF3M87va/5Zl+R+Thmc0sYIzTGzOyO390VeNmlnx3fiPsDLgV8EfgH4hJm9YNi2qGtMRDqtjm6wMqWN74FsVae0A/fjP/5e6jXDyNA9NkkIi4eT6Jih4162MjHYJAWatPWoG6wEDpQzj9A6d5+X8thK4KjIz0cCqxOWWefu24BtZvYt4ATgB2kvqCAkIr1SVwgq4qCYZXzRuGOPnn30T/PY92/n0Be+Ove4oCLFB05PEmJ6OdFhty0C5prZscAq4O0EY4Ki/gX4vJntAzwNeCXwZ8NWqq6xjDROSKT92lwJgvIGWMfPFnv0+E2p3TlVqirIZBnfk2TY/smy79p+1ph78bfhr+dTwDnATcD9wDXuvtTMzjazs8Nl7gduBBYDC4EvuvuSYetVRUhEeqHtIWggz8EzazdZdHyQM8PGG29mztt+dfxGFqDsEBTdj0UGvrrDY9e5+/XA9bH7Lo39fDFwcdZ1qiIkItIhg0pO1gNy/GwxpqfZunARU5uzny0GxVU3Jp3IMIsmhKBJ9ldTBkwH44QKvtVAQSgHdY+JtE/S6fF1iHe/lHE6/TjrSzpbzGeCqlBebejqKTIEDdaVtxuxDftptOLPGKvrIq61dI2Z2QUEkyDNAGuBs9x9dWyZo4ArgcPC5S5z989W3VYRkSLFw9A4igxQG1cs3eNsMaan2fGfS5lzfP5B02VVW4oQDS5FybquboSfbqprjNDF7v4JADP7AHA+cHZsmSngw+5+t5k9E7jLzBZEp9Kuww3LLuK0uefW2QQRyagJlaCiFB0qBgfmE996fqHrTXutJoSiItuQZ5s6G4Lq/5UWopYg5O7RzucDSdid7v4I8Ej4/y1mdj/BDJK1BiERkSJkORW+jPBQ5UG5jApM3TobanqstrPGzOxTwHuATcDrRix7DPAzwHeHLPM+4H0ARx99dGHtFJH2iVaChl1zrAmqCglVHsCrvJ7aMEUHsXG6/ereB6VxahvTU7TSBkub2c1mtiThdgaAu5/n7kcBVxHMC5C2nmcAXwU+GKskzeLul7n7PHefd+ihhxa9ObNo0LRIMyUNjG5yCKpKVQfjwaDh6MDwLlSD4gPds84R1NkQ1DGlVYTc/Y0ZF70auA74ZPwBM9uXIARd5e7/XGDzRKRjFHj2VPWBuAkH/qQ2TDJGKW19kB6ImrAfKtH+jAvUdPq8mc2N/PgW4IGEZQz4v8D97t6QSRNEpKnKuGJ8GaqokJRRjSgySJQl7bXytn3Y1eRHzdNU1fY2Yy4hK+FWvbrGCF1oZi8kOC3+R4RnjJnZ4QTTYZ8OnAy8G/iemd0TPu//hLNKiojsoQ0XWB0cKMs6k6qsA3ETTvUfpsgQNO56elMJ6pi6zhpLnJwinEvo9PD/36aueJiBTqMXab6mhaC4osJQ3w/ARW2/QlBOHekayxSEzGwvgsvYHw48ASx19zVlNkxEZBJND0GTasuBt6xB01V3udXdFSblGRqEzOw44KPAG4FlwGPA/sALzGw78NfAFe4+U3ZDRUSyalMIGqcq1OeDb9ZtH5y9VtT6in5uJ/SkIvRHwF8B/8N99sVozOy5wDsJxvFcUU7zmk3dYyLN0abwE5c2KDdN1oN81+Td5sF+iu7LcfdbvLLVx/0/iwMdmUdoaBBy93cMeWwt8OdFN0hEJI82B6A0XZh7JyrP5INldEEVGVrqDEBFBDrZ08jT583sBeEZXiIijdGUq8rXoWsHwTLGEVU5oeGT2zez+Kt/zFNPpM75O7H4vmlCWHYv/laHUWOELgyXmTEzc/ffraZZ7aHuMZHydSXwPLl9Mw/c8HledPo57HvAQXU3pxKjDthZxkjVEfyS2pTWjtWLF7Bz6wZW3buAY16VeFJ04W2R4oyqCL0BOA/4BPD68psjIrJb16o+0QNmH3QpBKV5cvtm1i1fCDjrli8aWRWKTsg4bGLGLG2pfVJFL+FWg1FB6CMEA6GvBD5efnNERAJdCkCQ/YA57MDXpetXlX1GV1VWL16wu0/HZ4aG3LTf7bgzX9fOrfhbDUYNlr4VuLWitrSWusdEitW1EATJB8xR3SiNONhllOdsqq6EoEG49ZlpAHxmmnXLF3HECafs6vqctFurSxevbaqhFSEzO2bE42ZmRxbaIhHptS6GoLQDZlJVaNh1rpoq6SCddIp/1u2qe9uHXWg1ala4DTkzPLhqQaZuL4CpTZtZ8YflDrQui3nxtzqM6hq72My+ambvMbOXmNlzzexoM3u9mV0A3Aa8qIJ2iojMcshtj866tliTL7qadMAc1Y3SVvHK0KhgF3183ACYdbxNHvG2JL3GxhVLd4XbXaan2b5kSebX2XHVzUytf3zke6HucNhlo7rG3mpmLwbeBfw34HnAduB+4HrgU+6+o/RWtoC6x0SKcchtjw6tCsUDT5MD0EDSAdNnptm4YimUcJZRlZrWZVPFZJODbT7ypE/sEZaymnO38eT2zTwcGTcW7VLLav5Zl7Dw8g/lek4hahzcXLSR1xpz9/sIzhwTEanEOOGmyV1qJ771/LqbUJqiLhzbNFm3Kc9kkXHjjBuT4tVy9XkRkSI1OQR1XTwIVNmFU1b1Z5Jgl7U9owZaR7sYm3lJlfrO8irayJmlJbsbll1UdxNEekchqJ+adDX4ccY3DRs3Ft22wf8bWXXryDxCqgiJSGspBNWrzmtfRV+vedWS0dLGjW14dAnP4FdTn9fGbW26TEHIzIxgwPTz3f0Pzexo4DB3X1hq60REpLF0UB5fdNxYlmpPI/d1A4tU48jaNfaXwKuBwdXotwBfKKVFLafuMZFqqBokZckTOiY93b+1IahDsnaNvdLdTzKz/wRw98fN7GkltktEJJECkNSliEAyzuU0GqtnFaGnzGxvws02s0OBmdJaJSIS07ULsEqzNTmANGLgtNOPa41FfA74GvBcM/sU8GvA75XWqpbT5Ioi+SWFnFGTK4qUqYwwNOm8S40IQR2TKQi5+1VmdhfwBsCAX3b3+0ttmYj0nkKQtFGRp/Y3cw6hQF3XBiva0CBkZs+J/LgW+PvoY+6+oayGiUh/KPDUYzCDt/Z/cUZVbFTRaZ5RFaG7CHoCDTgaeDz8/8HAj4Fjy2yciHRflQdhHfh3i1+wVvtkcnWFoPlnXVLKekfqSKYbddHVYwHM7FLgWne/Pvz5NOCN5TevvTROSGS0sg6+w65V1vQDfrztZbe36fujLcYJOfEuL51KX4+sg6Vf4e5nD35w9xvM7IKS2iQikkuWi7Q2+YA/zkVmJ32tJu+PtikiBEl9sgahdWb2e8CXCYphvw6sL61VHaGqkPRF2kG1rAN8nvU29YBfZfiJv2ZT90kbFRmCJj2jrGq9GCwd8Q7gkwSn0AN8i92zTItIj+Q5iK4/+bDCDvhtr/oM5N0fRY3fUQgqXptCi6TLevr8BuB3Sm6LiDRIUQfMScJQ1ue16eA+aGuVwW6cEKQB1MMNO0V+WEDq1Cn0NU2AWLSsF139dxLGh7v76wtvkYjUrugDYJ4w1IVur0kUuU2TVuMUhvLLE4IGyw7uV4WpHlm7xj4S+f/+wJnAVPHN6R6NE5K2qevAl/eg3ZUDdFVnzuV9na7s37LEKz9ZwkzaY60MQE4/Tp8fcPe7YnfdZma3ltAeEalJmQe+pJATfb0+hqAqpw7owv5qimgVp87uqkZ0l/UpCMVmmN4LeDmgT5aIjFTVvDh9HwycFiabsD/iXUBdFq0URbe3yKpPKytIDZa1ayw6w/QU8EPgN8tqlIhUr+izk8pafthzmnDQr0NTq0DxA3YjqhgFGbYtRQSgrKfSL7z8QwDYFR8e63Um0ZXT5/fKuNyL3P357n6su8919zcBi8psWJfcsOyiupsgksk4IWaS4FPHXDptF99nTQxB607ybo2HicgT5Mra1kG33CAEyWSyVoS+A5wUu+/2hPtEpAeyHIzzPL8IdR/8yzJsXzUtBLU95GTVlarWxDry6x519fnDgCOAA8zsZwi6xgAOAp5ects6RWePSVukdZGpelOPpKkH2hyA2hoikraxqm1p7D7rQxACfgE4CzgSiF7edgvwf0pqk4g0TNNDUBuqQdF9WMY8TXVRCMr+nLxGjROaf9Yl6h4rwKirz18BXGFmZ7r7Vytqk4g0iELQ+Mo+Y67J295lVQS6pnczmndnsPSorrFfd/cvA8eY2R6x090vSXiapFD3mLRBkdcHK1vTg0CRlykZaOs0AW2tBsWlbUfTg4ukG9U1dmD47zMSHtNvXaTFqr5ifJHaFgKK1vftr4tCUEwfrjXm7n8d/vdmd78t+piZnVxaq0RkbFku6jnsQNrkipACQHP2QdaDfxcqQcO2oewQNGr/1TpOqCP5L+s8Qn+R8T4ZQXMKSVXWn3xY4kFz1IFUIUjSDOYHynLwr/sSFFUYtR8G+6Dr+6HtRo0RejXws8ChsTFCBwF7l9kwEckvHhayhJqmBp+orCGoreNnRqn7KvC97fqZUHT26Tl3Gz/0u1l35VXMOevdPPNnTkgMSG26HEkvBksDTyMYH7QP8MzI/ZuBXyurUSIyubSA04bgk0fXtmegzNPt88gbgtpwAC9C3v3y5PbNrPvHq4LnXnk1x/qJicv1Zf81yagxQrcCt5rZ5e7+o4raJCIT6lo4SKqIjLONT27fzAM3fJ4XnX4O+x5wUFHNK1RVF6ktwzgH8XigaEMQGBaC0ub+eejbV+/+YWaaH9o9qVWh1uhJRWhgu5ldDLwE2H9wp7u/vpRWdZxOo5ciZBkU3SVZt3NYcFi9eAE7t25g1b0LOOZVZxbVtMI0LQSVPSA6af1tvjBrtBss6sntm9nyyLJZ9w2rCkm1sgahq4B/AN4MnA38BvBYWY0SkeGiB8hRA6L7EpRgeHB4cvtm1i1fCDjrli/iiBNOaVRVqCldYXkVGYLaIK3dg0pQ0v6YVQ0amJlm/Q/v5ZBjTyi6idXoy4SKEYe4+/81s9+JdJfdWmbDRGRP4xwg+xKKRu2b1YsXgIff3D5TSVXox3d9gzVL/p29n3YAP/3L5w4NXk0LP1nPDJNA2v5KqgYNPPTtq9obhKAzXWNZT59/Kvz3ETP7xfACrEeW1KZe0Gn0ksXgFPi0U+HHWV/XZNk3g2qQz0wD4DPTrFu+iKee2Fxq29Ys+XcApp98glX3Lij1tarWxxA0ThVr9eIhv/fw/Tip+WfpIg+TyFoR+iMzexbwYYL5gw4CPlhWo0T6rszA0pWxRXn20axq0EDJVaEf3/WNWT8/9oM7Gtcdl2bUYOAqXr9pQWvcCtnGFUsTl9336c/ixLeeP3G7atWRilCmIOTug0/0JuB1AGb2wZLaJNJbVVZshr1W00NS3v20ccXSXdWgAZ+ZDg5SJQWhQTUo8oKNHaSdRdOCSZUm6SY88tOfYN01X2XLHQthehrba2/mzH1la98HXZS1IpTkQ8CfF9SOXtLZYxLVpG6raNWoSRWkcfdR1X95x6tBA22qCkUVGYLaNkh60rFSU5s2s3XhIpie3S3bxvdBXFcGS2cdI5Rk7E+GmV1gZovN7B4z+6aZHZ6wzP5mttDM7jWzpWb2BxO0VaTRmhSCmqbIMVJV2aMaNBBWhdqi6MtDtPn6ZEltyrJ/dlx1M0wnd8tKM0xSEZokC17s7p8AMLMPAOcTnJYftRN4vbtvNbN9gW+b2Q3ufscEr9soqgYJND8EFVkJyjMpYtP3y7jK7I4rShODSNNk3Ud1dMtKPqOuNbaF5MBjwAHjvqi7R0/VODDpNdzdga3hj/uGt44U4hSC+ibtiu5NPtiXGYBG3d92r/iNz9TdBClQ2kSJWbR+QPQwHTkij7rExjOHPT4JM/sU8B4iA7ATltkbuAs4HviCu3+3rPbIaE0aK9I2Xb0YaBZ93GZJlnb5ifgyTdK09kTVfTHerpika2woM7sZSPoNnefu/+Lu5wHnmdnHgXOAT8YXdPdp4EQzOxj4mpm91N2XpLze+4D3ARx99NEFbYVEKQBNpk1fWJP+rtu0rVKttDAUDxxtugp7HWr/Pu7hzNK5ufsbMy56NXAdCUEosq6NZnYLcCqQGITc/TLgMoB58+Z15NcjUo+0rjyRIgzCTTzsDLv2mIJRA3XkSDvJWWNjM7O5kR/fAjyQsMyhYSUIMzsAeGPScm2lmaXbZdIzl9pYIRl3Vus2z08k1cp6Vlo0ILXt9PsytfF7pYlKqwiNcKGZvRCYAX5EeMZYeBr9F939dOB5wBXhOKG9gGsiEzuKVEJfNLtlqRKN2l/anxIVDTWq9OTTiM9SRzJpLUHI3RPPGXT31cDp4f8XAz9TZbuqpgkVm2nSikZ8UHkjvrAq0JftrFoTLzch0iV1VYREGiXLQTxPt0502ej/2x4W2jgNQJOlhZyiun/i62lSoIq3TVe7T9fEs8OM7gyWrmWMkOymsUL1KmPG4mGBqWtjZNo243MTjRMIhq0rehv1WtJ8XfvOaCJVhKSX8h68i/wyauJfd+PowjbULUuFI2sVpE0VlVFXt+97YIt/3zT2s9aRX5OCUANorFBzlfXXWNp6G/uFF9GGNrZZ3rDSput3Ze2qUxgKNPqz1qF5hNQ11hDqIhuuji+EOkrSh9z2aOr4IpGotO6vtsgbzJoQ5KSbFISksaq+6vggdMTDSB2ibai7LSJ1iAafPoWgVn3evYTbCGZ2qpl938yWm9nHhiz3CjObNrNfG7VOdY01iLrIqqv8DMbpxL90mvYlNGp/dOmMtK4aNSNy3hmT21wFgnyhpk8BCJr3/dM04byCXwBOAVYCi8zsWne/L2G5PwFuyrJeVYSkNco40Dc1PIxTCSvzS1Rf0PmN6rqKP553+TyyBIont29m8Vf/mKee2DzWawwzaHvfgk0erfyMVV8Rmg8sd/eH3P1J4CvAGQnL/TbwVWBtls1QEGoYjRVKV/QXRRO6wJKMezmLMkNdUwNjEw07dX3Yqe2j1jmurOFj9eIF7Ny6gVX3Lhj7tZIMAtC4IajtFbAs2jo3l3nxtxGOAFZEfl4Z3re7TWZHAL8CXJp1O9Q1Jo3UxIBSlbyn17fhC7Orij5Ip12BvWxPbt/MuuULAWfd8kUcccIp7HvAQYWse9IqUJerSG0+e7REc8zszsjPl4UXVYdgHse4+Ifkz4GPuvu0Wbb3joJQA/V9rFCfQxD0/kuw8aoKJ1VUgQZWL14AHr6ez7Dq3gUc86rEKyFJQVozV9Aw5XwU1rn7vJTHVgJHRX4+ElgdW2Ye8JUwBM0BTjezKXf/etoLKgiJSGZdmQxyHG0IQOMYVIN8ZhoAn5kuvCoku+kEh4ksAuaa2bHAKuDtwDujC7j7sYP/m9nlwDeGhSDQGKHG6utYIVWD6v1iTNr/g7FUOp2/PIMKTh3jYWZVgwbCqpAUq6wQtPDyDxW2rszKGCg94u3v7lPAOQRng90PXOPuS83sbDM7e9xNUUVIpAGaFIDiVZ/4NAN1t7VqVYSTOgcEb1yxdFc1aMBnptm4Yimoe6wQnegGS1DHzNLufj1wfey+xIHR7n5WlnUqCInUqKkzZieFoazP7Yo+nK0EcOJbz8+8bNo+6fKA5kmVHYJqqQZ1jIJQg/V90HSXlR2Akr5884SYtPZ15S/ZUfoSgoqiOYKSdbUStEtHPiYKQiIdkzbOJ4vOfVHnpAA0nC6Gml0V1VNVg4qhINRwqgoJ9KtLqi46wA83bP+oGjRbFRMkNiEEdeXq8wpCIhVr0qUzovpcDVIISjbo8hq1f5Ie73M4in6Whk05Mfhs5/3sNSEEdYmCkEiFFIKap8shaJKxO4P9kmWAdNolRZKW7ZtRn608n73GBaCOfHQUhEQKEv8rcBJN7Arr4mSKbQ9BowJGvJrT50BSllEVn1HVoCwaF4Ag60VSW0ETKrZAXydXbItxrhSfpo4LwWZpexcnU2x7CBpHnm1OC03xC6j2cT8OjPvHQZc+R12gipBIBknVnnG/AJOe1+QvxnjbulAZ6sLBO0t1J63LqqjKUNb9OFiuyRWpcd7Xw5bP8plOe34jK0AxRvIVUNtIQUhkhPiX1SRffk0LQW0PNFl0IfRA/hAxbLuzhqFhy4yzX5s631BZn8Gsn/c2BJ8uUxBqCZ1G33x5v0zbEIDaPCFcXwNQFbLs2zqvn5bFoAKU9XOYpxI8bJ2dGurQzF9tbgpCIiNkCQN5y+BNHAdU5vMlv7IDUDygFPV68fU0cRLGpDFvRY7zG6yv65UezSMk0lPxsQTjdIdVZZLXnmQslIynjPCTNYjkGceTts5hA6yjr9PEKleaPH+0NHmsn6RTEGoRdY81RxsuWVHEa9fV/kmrFU2rQMTbX1Y1Jm2dec7yyjN+aJz9XHcIKivYdL36k6hZH7OxKQiJlGDSSdQm/cty0gBT15lhkwaYpgegUfc3QZ62NXk7ssrzPm/zWV6STkFIpIHyXi0+/twiXr9qWWYwzvtcmU37abasZ4CqezhFR95OCkIiBWt7d1jbNPHgnhbemj6fTlPbVaQsf2RorE8GrsHSUhONE2q2MoJI1oHZbQ1BkwSZJoagJE1oZ9ZrhuUdCN1GWT8rbf1MST4KQiIFKfJLM+2MrbS/Ztv4hT3OrMRNr6hAvoHJVcna7ThqAsUm7/dJTdIVNv+sS/o5TqgZb++J6VpjLdSpCbkk8RIWkP5lHL2/yOucVWncWYmj/29KyIiKTiI4ambnunU51EyijZ8nmYwqQiINk+WLuE1f1mVUEpo4SR/km3G5SnmvQt/U/TtKWlVm/lmXZHp+lqvId+Fae0XRGCERmSVtosUsZ6Z0/cu16DDUxoN03fLu/yZ3RVbVDRWt1moAdXcpCLWUBk3XJ/qXYZb723jF+SINDqiTTL7XheDTtDARlVYtamKbxwlBCy//0Miq0CRTVvRW+z+WgIKQyNgm+eLs2xduUtfMqHDTlRDUxDAxkDTDdZOqQE0cgNzlym1e6hoTkVlVoLxXsZbhFICqV1cIqiLwZKkKjTIsBPX2zLEOUBBqMXWPNUeW09r7HoCi1Ya2h5xR2hiCqtD0oDCsyqtKUIyjrjGRPsozEVve4JNlwHTbB1W39WykYdocetK6Hycd3N70wCMSpXmERBoselZZ0v+lPnPutlaHoIGuBdNhxgloaSdBCLurQkXeaqCKkEgB0iZFTHosz3rS7mtjVahLB9wuBCBIP1ssq65XfgafM51RtidDg6WlITROqNnK+PJUCKpetAupKyEIsoefLgWeYYOm81yMNT7+r42fSwkoCInkMMn1iPqqzSEoz7W4uqBLgWcc41Z+evtd0N6P9iwKQiJjquOvwN5+4Vas64EH+h168pxKnxaMkj7/OoW+nTRYugN0Edb6aODy5JoWOprWnqKtO8l1sM5In+3hzL3wWx1UERIpSNlzBrWxGpSlW6xJXWddC0EKPOnyTrAY7zZr4+exUJpHSETSKAQ1K9xk1dYQdMhtj6oqXIEsIUjBs50UhDpCZ4/VI36JjTyBJc+FWJt+Vkobg09Um0KQDrbFiVeFRv0RM+wz2Mffi06fF5E9ZK0GpX2hxu8fNq9QE4JRUQEoGkSqDFVNDkB9PLA2mUJQdykIdYiqQtUr+1TbrIGpDpMElrQAohAU0IG1OlnGCikEpVBFSETyKiLAtDkEDQsffQxBvT6IdkDff3/qGhORXJoQYKowTsioKgRVEYDiVcL1Jx/W+wNmW+SZUFG/0+6oJQiZ2QXAGcAMsBY4y91Xpyy7N3AnsMrd31xdK0WKoxBUv7LaFh+zpTO42iete0xnh42gitBELnb3TwCY2QeA84GzU5b9HeB+4KCK2tZqGifUPApBk62viGpRkW0bBB8Fnm5L+twqAHVTLUHI3TdHfjyQlFxpZkcCvwh8CtA7UFqnqyGoyGARvZBp0kVN0x7LGpCKaGu8u0QhqHsWXv4h/RGZh2uM0MTM7FPAe4BNwOtSFvtz4FzgmRU1S6QwXQ1BRYsGlWGhZc7dtisMVRWCVAHoJ1WD+qW0IGRmNwNJR4Lz3P1f3P084Dwz+zhwDvDJ2PPfDKx197vM7LUZXu99wPsAjj766Alb327qHpOuGgSbYWFokvCjg12/3bDsosSxQnpfpFBFaDh3f2PGRa8GriMWhICTgbeY2enA/sBBZvZld//1lNe7DLgMYN68eR359YhImqLHJOlgJ3F6T6Qz1DU2ETOb6+7Lwh/fAjwQX8bdPw58PFz+tcBH0kKQSJPkOQVXmkEHPBnQe6F/9qrpdS80syVmthh4E8GZYZjZ4WZ2fU1t6hQN5qzHYGxBWWFIAUtEGsO9+FsN6jpr7MyU+1cDpyfcfwtwS7mtEilW0YOlm37h1bZSBUCk3zSztEhBygop41SBos/pWniKB5dR14nKsy4RyU5jhKTxdPZYdYoMG2nBJ+trqPtMRErn6KwxESnWsACTJQQlPb/r1aDofXkrQ6oGiQgoCIlMLGtIiS4X77qatIrThxAkIs1iM3W3oBgKQiIlG4SUtLCjEDRalupN2oUzx1mXiPRHXafPS0V0Gn25yg4c608+bI/XOOS2R2fdqm5TkynkiFTIS7jVQEFIpMGiYSct+Eyy3vj6mjjQOm+4Gba8gpJIccyLv9VBQUhkTKMqL0UHF8kuKfBoH4pIEgWhHlD3WLWKDEBlic6AnXR/UxRZwdHnQKRATmdmllYQEhlDWmCoOwDlCTJNCz1xk4ag6PPVJSYiaXTWmEhOSQGiTQGoTxSARMrTlZmlVRHqCXULlEchqHgKMCJSFVWERMakAFQOhSCRllBFSNpGVaFijDsYOmlOoHF1NQSJSDsY3Tl9XhUhkRJlDSyD5UYFrK4HIFWDRKRqCkIiNYuGm6RZpNMe6xqFIJEWqfF096IpCImUJC24jBNoygpB8YvBioj0jcYI9YzGCZWvyLFAZWpSCFI1SKR9NEZIRPZQdLAosxIkIjKRbvSMKQiJTKqMsDIIKm1b9zhUDRKROqlrrIfUPZZNXUGhzGpNnZWgpGkHFIJE2ktdYyId14RT2Yscx1PnGWjR11a3nIg0iYKQSIr1Jx+WetCu8iyuIsJQXSFoWOhRZVKkxRyY6cYgIXWN9VT0INSWs5zKFt0P8X+rbEPSfUVVUcrcnkHXV/QmIh3mJdxqoIqQ7FLkAbeN6ui+iQ5cHlb5GfV4ltco2iTrVTVIRJpCQajHblh2EafNPbfuZvROPEAUXaVJCkxlvMa4FIJEuqGuwc1FU9dYz+mgVL2kLrisz4uKdj+lBZMsVaS0bqxh6xQR6QpVhATQwa0Ok1Rp4t14464rb3fgpO8TBW+RDtG1xqQrBnO59KmbrGnjoeKVnbRgM6rNebrd8mx/EftKIUhEmkhdY7JLXw5UZZ76Pm5gKGMMz7C2ZG2nzv4SkTR1TKhoZqea2ffNbLmZfSzh8XeZ2eLw9h0zO2HUOlURkrElBac2VJWKOLCXHQ7yrr/o6k7RFbO+hGyR3qjhdHcz2xv4AnAKsBJYZGbXuvt9kcV+CPy8uz9uZqcBlwGvHLZeBSGZZdIDVt/PRJuksjN4bllzBlXdFTagECQiBZkPLHf3hwDM7CvAGcCuIOTu34ksfwdw5KiVKgiJFKRJk1JOEoJEREYxwKofLH0EsCLy80qGV3t+E7hh1Eo1RkgK19cKQFO63JoUyPr6XhCRsc0xszsjt/dFHrOE5RPTmJm9jiAIfXTUC6oiJNIhSSFI1SARKcVMKWtd5+7zUh5bCRwV+flIYHV8ITN7GfBF4DR3Xz/qBRWEpBR9HSs06vT3Uc8rWl0hSJUgke6roWtsETDXzI4FVgFvB945q01mRwP/DLzb3X+QZaUKQiIlSApESVeALzKoaFyQiHSZu0+Z2TnATcDewN+6+1IzOzt8/FLgfOAQ4C/NDGBqSIUJUBCSEvW1KpQkHkqadvp9kVQNEumBmq4W7+7XA9fH7rs08v/fAn4rzzoVhERKVEcgUSVIRCQ7nTUmpVJ1oF/0+xbpCw+uNVb0rQYKQlI6HRyrUfflMPR7FumXOi6xUQYFIREREektBSGphKoF3abfr0gPqWtMROqw/uTDNHu0iEhBFISkMjpgFqPusUAiIjjYTPG3OigIicjYFG5FpO0UhKRSOnB2h36XIj3XkTFCmlBRRERE8qvpdPeiqSIklVMlof30OxSRrlBFSERERHKr4erzpVBFSERyUTVIRLpEQUhqoYNpO+n3JiK7aLC0iIiI9JIDNc37UzRVhEQkE1WDRKSLaqkImdkFwBkEeXItcJa7r05Y7mFgCzANTLn7vCrbKVKH6OUzmjKDtEKQiEQZrsHSE7rY3V/m7icC3wDOH7Ls69z9RIWg7tHBdbamXUNMRKQPaqkIufvmyI8H0plpmUSKo2qQiDSaKkKTMbNPmdkK4F2kV4Qc+KaZ3WVm7xuxvveZ2Z1mdudjjz1WdHOlJDrIJmtKCBIRSaWzxoYzs5uBpDr/ee7+L+5+HnCemX0cOAf4ZMKyJ7v7ajN7LrDAzB5w928lvZ67XwZcBjBv3rxuxFTplSaGHwVVEem60oKQu78x46JXA9eREIQGA6jdfa2ZfQ2YDyQGIREplkKQiKTS6fOTMbO5kR/fAjyQsMyBZvbMwf+BNwFLqmmhVEkHXBERqUtdEypeaGYvJMiTPwLOBjCzw4EvuvvpwE8AXzOzQTuvdvcba2qvSK8onIrIKF05fb6us8bOTLl/NXB6+P+HgBOqbJfU54ZlF3Ha3HPrboaIiPSMLrEhIrOoGiQimagiJCJdoxAkItnUd7p70XStMWkMHYRFRKRqqgiJiEKoiOTjqCIkIiIi0naqCIn0nKpBIjIWTagoUjwdlEVE2sHcC7/VQUFIpMcUPEWk7xSEpHF0cK6G9rOITKQjV59XEBIREZHe0mBpkR5SNUhEJuLAjE6fFymNDtTl0b4VkcmV0C2mrjERERGRaikISWOpclE87VMRKYwqQiIiIiLtpsHSIj2hapCIFErXGhMpnw7exdB+FBFJpoqQiIiI5NOh0+cVhEQ6TtUgESmeg3fjqqvqGhPpMIUgEZHhFISk8XQwFxFpIJ0+LyJNpgApIjKagpC0gg7q+Wh/iUipBoOli77VQIOlRUREJD/NIyQiTaRqkIhIdgpC0ho6wIuINIgGS4tI0ygsiojkoyAkraIDfTrtGxGpTgnVoJoqQhosLSIiIvk4MKOZpUWkIVQNEhEZj4KQtI4O+rNpf4hILTrSNaYgJNJiCkEiIpPRGCERERHJTxMqioiIiLSbgpC0krqEtA9EpE4lXGdM1xoTkawUgkSkVg7uOn1epFZ9DQN93W4RkTKoIiQiIiL51dSVVTRVhKTV+lYd6dv2ioiUTRUhkZZQCBKRRunI6fMKQiIiIpKPu641JtIUfaiU9GEbRUTqoIqQSMMpBIlII3Wka0wVIREREektBSHphLxVk7ZUWdrSThHpH5+ZKfxWB3WNSa9Eg8UNyy7itLnn1tgaEZG28s50jSkISWekBZumVlXWn3wYAIfc9ugejzW1zSIiXaMgJJ0yThdZU6pCCj8i0hpOZ2aWVhASqUm0EqQQJCJSDwUh6b26qkIKPyLSah25+ryCkEhFFHxERJpHQUiEcqpCCj4i0lUOuMYIiUicwo+I9IJ7Z7rGNKGiSGjSEKMQJCJSLjM71cy+b2bLzexjCY+bmX0ufHyxmZ00ap2qCIlE5O0iU/gRkb6qumvMzPYGvgCcAqwEFpnZte5+X2Sx04C54e2VwF+F/6ZSEBLJSeFHRKQW84Hl7v4QgJl9BTgDiAahM4Ar3d2BO8zsYDN7nrs/krZSBSGRmHhVSMFHRCRB9WOEjgBWRH5eyZ7VnqRljgD6FYTuuuuudWb2o7rbMcIcYF3djahYK7fZ7OJJnt7KbS5AH7db29wPTd3mn6zyxbbw+E03+z/NKWHV+5vZnZGfL3P3y8L/W8Ly8f65LMvM0skg5O6H1t2GUczsTnefV3c7qqRt7o8+bre2uR/6uM1J3P3UGl52JXBU5OcjgdVjLDOLzhoTERGRNlgEzDWzY83sacDbgWtjy1wLvCc8e+xVwKZh44OgoxUhERER6RZ3nzKzc4CbgL2Bv3X3pWZ2dvj4pcD1wOnAcmA78N5R61UQqs9loxfpHG1zf/Rxu7XN/dDHbW4Md7+eIOxE77s08n8H/leedVrwHBEREZH+0RghERER6S0FoZKZ2W+H04EvNbOLIvd/PJwC/Ptm9gt5n99kk2yzmf2+ma0ys3vC2+nVtXx8k/6ew2U/YmZuZmWcklq4CX/PF4TT399jZt80s8Ora/n4Jtzmi83sgXC7v2ZmB1fW8AlNuN1vDZ83Y2atOdtqwm1+jpktMLNl4b/Prq7lkpu761bSDXgdcDOwX/jzc8N/XwzcC+wHHAs8COyd9flNvhWwzb8PfKTu7ahym8NljyIYAPgjYE7d21TB7/mgyP8/AFxa9zZVsM1vAvYJ//8nwJ/UvU0VbfeLgBcCtwDz6t6eirb5IuBj4f8/1pbfdV9vqgiV6/3Ahe6+E8Dd14b3nwF8xd13uvsPCUa3z8/x/CabdJvbqIht/jPgXEZM/NUgE22zu2+O/Hgg7djuSbf5m+4+Ff54B8H8Jm0w6Xbf7+7fr6y1xZj0M30GcEX4/yuAXy63uTIJBaFyvQB4jZl918xuNbNXhPenTQGe9flNNuk2A5wTdh/8bUtKyhNts5m9BVjl7veW39TCTPx7NrNPmdkK4F3A+aW2thhFvLcH/htwQwltLEOR290Wk27zT3g4d03473NLba1MRKfPT8jMbgYOS3joPIL9+2zgVcArgGvM7PlknwI88fnuXutfzyVv818BF4SPXQB8huCgUauyttnMnh6u402FNrgAJf+ecffzgPPM7OPAOcAni2j3JMre5vA1zgOmgKsmbnBBqtjupunjNksyBaEJufsb0x4zs/cD/xwGl4VmNkNwnZqsU4CvTHn+Y0W1fxxlbrO7r4ms62+AbxTV7kmUuM3HEYw1uNfMBsvcbWbz3f3RAjcht5Lf21FXA9fRgCBU9jab2W8AbwbeUPcfNFEV/q4bo+RtXmPhFc/N7HlAG4Y19Ja6xsr1deD1AGb2AuBpBBfruxZ4u5ntZ2bHAnOBhTme32RfZ4JtDr80Bn4FWFJ2gwvwdcbcZnf/nrs/192PcfdjCL5oT6o7BGXwdSb7Pc+N/PgW4IGyG1yArzPZNp8KfBR4i7tvr6rRBfg6k32PtdHXmWybrwV+I/z/bwD/UnaDZQJ1j9bu8o3gw/NlgoP53cDrI4+dR3DGwfeB0yL3f5HwzIphz2/qrYBt/hLwPWAxwZfJ8+reprK3Obauh2nHWWOT/p6/Gj53MfCvwBF1b1MF27ycYHzJPeGt8WfKFbTdv0IQ8HcCa4Cb6t6mCrb5EODfgGXhv8+pe5t0S79pZmkRERHpLXWNiYiISG8pCImIiEhvKQiJiIhIbykIiYiISG8pCImIiEhvKQiJdIiZbS15/deb2cHh7X+O8fzXmlmuSTLN7HnR51hwFfc7zeznw58PNbMb87ZFRAQUhEQkB3c/3d03AgcDuYPQmD4E/A2Amf1UeN9/Af5X2KbHgEfM7OSK2iMiHaIgJNJxZnaimd0RXsj2a4ML2ZrZLWb2J2a20Mx+YGavCe9/upldEy7/D+GFJ+eFjz1sZnOAC4HjzOyesELz2ljV5vNmdlb4/1PN7AEz+zbwq5FlDrTgwrqLzOw/zeyMlE04ExhUfPYGZgiu7xS97tPXCS7eKiKSi4KQSPddCXzU3V9GMGt39Jpe+7j7fOCDkfv/J/B4uPwFwMsT1vkx4EF3P9Hdfzfthc1sf4Jqzi8Br2H2RS7PA/6fu78CeB1wsZkdGHv+sWFbdgK4+1Lg6cC3CS7QO3BnuH4RkVwUhEQ6zMyeBRzs7reGd11B0K008M/hv3cBx4T//zngKwDuPrgMxrh+Cvihuy/zYBr7L0ceexPwMTO7B7gF2B84Ovb85xG7yLC7/7a7v9zd/1/k7rXA4RO0U0R6SlefF+m3neG/0+z+PrCUZYeZYvYfVvtH/p92HR8DznT37w9Z7xOxdaXZP1xWRCQXVYREOszdNwGPD8b/AO8Gbh3yFAi6nd4GYGYvBn46YZktwDMjP/8IeHF4Ve5nAW8I738AONbMjgt/fkfkOTcBv21mFr7WzyS8zg/YXaka5gUEF8gUEclFFSGRbnm6ma2M/HwJ8BvApWb2dOAh4L0j1vGXwBVmthj4T4KusU3RBdx9vZndZmZLgBvc/XfN7Jpw2WXh83D3HWb2PuA6M1tHELJeGq7mAuDPgcVhGHoYeHPsdbaZ2YNmdry7Lx/S5tcB143YLhGRPejq8yIyi5ntDewbhpjjgH8DXuDuT9bUnl8BXu7uvzdkmW8BZ7j749W1TES6QBUhEYl7OvDvZrYvwTie99cVggDc/Wtmdkja42Z2KHCJQpCIjEMVIREREektDZYWERGR3lIQEhERkd5SEBIREZHeUhASERGR3lIQEhERkd5SEBIREZHe+v9CB4J9EFp9BQAAAABJRU5ErkJggg==;" parent="1" vertex="1">
                    <mxGeometry x="930" y="-1087.51" width="118" height="101.26" as="geometry"/>
                </mxCell>
                <mxCell id="nhbN_m_MJA_WDUEvRPEo-25" value="" style="endArrow=classic;html=1;rounded=0;" parent="1" edge="1">
                    <mxGeometry width="50" height="50" relative="1" as="geometry">
                        <mxPoint x="866" y="-1040" as="sourcePoint"/>
                        <mxPoint x="926" y="-1040" as="targetPoint"/>
                        <Array as="points">
                            <mxPoint x="896" y="-1040"/>
                        </Array>
                    </mxGeometry>
                </mxCell>
                <mxCell id="nhbN_m_MJA_WDUEvRPEo-26" value="Analysis and Insights" style="text;html=1;strokeColor=none;fillColor=none;align=center;verticalAlign=middle;whiteSpace=wrap;rounded=0;" parent="1" vertex="1">
                    <mxGeometry x="928" y="-986.25" width="120" height="30" as="geometry"/>
                </mxCell>
            </root>
        </mxGraphModel>
    </diagram>
</mxfile>